SplineFontDB: 3.2
FontName: KANewStathisMain-Regular
FullName: KA New Stathis Main Regular
FamilyName: KA New Stathis Main
Weight: Book
Copyright: SIL OPEN FONT LICENSE Version 1.1
Version: 1.000
ItalicAngle: 0
UnderlinePosition: -100
UnderlineWidth: 50
Ascent: 800
Descent: 200
InvalidEm: 0
sfntRevision: 0x00010000
LayerCount: 2
Layer: 0 1 "Back" 1
Layer: 1 1 "Fore" 0
XUID: [1021 596 -667042339 7629701]
StyleMap: 0x0040
FSType: 8
OS2Version: 3
OS2_WeightWidthSlopeOnly: 0
OS2_UseTypoMetrics: 0
CreationTime: 1553139663
ModificationTime: 1588781217
PfmFamily: 81
TTFWeight: 400
TTFWidth: 5
LineGap: 0
VLineGap: 0
Panose: 0 0 5 0 0 0 0 0 0 0
OS2TypoAscent: 800
OS2TypoAOffset: 0
OS2TypoDescent: -200
OS2TypoDOffset: 0
OS2TypoLinegap: 200
OS2WinAscent: 1000
OS2WinAOffset: 0
OS2WinDescent: 200
OS2WinDOffset: 0
HheadAscent: 1000
HheadAOffset: 0
HheadDescent: -200
HheadDOffset: 0
OS2SubXSize: 650
OS2SubYSize: 600
OS2SubXOff: 0
OS2SubYOff: 75
OS2SupXSize: 650
OS2SupYSize: 600
OS2SupXOff: 0
OS2SupYOff: 350
OS2StrikeYSize: 50
OS2StrikeYPos: 300
OS2CapHeight: 700
OS2XHeight: 500
OS2Vendor: 'UKWN'
OS2CodePages: 00000001.00000000
OS2UnicodeRanges: 00000001.00000000.00000000.00000000
DEI: 91125
ShortTable: maxp 16
  1
  0
  106
  198
  10
  235
  4
  1
  2
  30
  6
  0
  100
  0
  2
  3
EndShort
LangName: 1033 "" "" "" "1.000;UKWN;KANewStathisMain-Regular" "" "Version 1.000" "" "" "" "Trevor Bullock"
Encoding: UnicodeBmp
Compacted: 1
UnicodeInterp: none
NameList: AGL For New Fonts
DisplaySize: -128
AntiAlias: 1
FitToEm: 1
WinInfo: 0 14 6
BeginChars: 65537 106

StartChar: .notdef
Encoding: 65536 -1 0
Width: 500
GlyphClass: 1
Flags: W
LayerCount: 2
Fore
SplineSet
410 -200 m 1,0,-1
 93 -200 l 1,1,-1
 93 800 l 1,2,-1
 410 800 l 1,3,-1
 410 -200 l 1,0,-1
168 733 m 1,4,-1
 168 700 l 1,5,-1
 233 700 l 1,6,-1
 233 663 l 1,7,-1
 167 663 l 1,8,-1
 167 630 l 1,9,-1
 333 630 l 1,10,-1
 333 663 l 1,11,-1
 267 663 l 1,12,-1
 267 700 l 1,13,-1
 333 700 l 1,14,-1
 333 733 l 1,15,-1
 168 733 l 1,4,-1
167 604 m 1,16,-1
 167 500 l 1,17,-1
 333 500 l 1,18,-1
 333 534 l 1,19,-1
 267 534 l 1,20,-1
 267 604 l 1,21,-1
 167 604 l 1,16,-1
233 534 m 1,22,-1
 200 534 l 1,23,-1
 200 570 l 1,24,-1
 233 570 l 1,25,-1
 233 534 l 1,22,-1
167 473 m 1,26,-1
 167 440 l 1,27,-1
 233 440 l 1,28,-1
 233 403 l 1,29,-1
 167 403 l 1,30,-1
 167 370 l 1,31,-1
 267 370 l 1,32,-1
 267 440 l 1,33,-1
 333 440 l 1,34,-1
 333 473 l 1,35,-1
 167 473 l 1,26,-1
300 413 m 1,36,-1
 300 347 l 1,37,-1
 167 347 l 1,38,-1
 167 313 l 1,39,-1
 333 313 l 1,40,-1
 333 413 l 1,41,-1
 300 413 l 1,36,-1
233 291 m 1,42,-1
 233 235 l 1,43,-1
 267 235 l 1,44,-1
 267 258 l 1,45,-1
 300 258 l 1,46,-1
 300 211 l 1,47,-1
 200 211 l 1,48,-1
 200 291 l 1,49,-1
 167 291 l 1,50,-1
 167 178 l 1,51,-1
 333 178 l 1,52,-1
 333 291 l 1,53,-1
 233 291 l 1,42,-1
167 118 m 1,54,-1
 167 5 l 1,55,-1
 333 5 l 1,56,-1
 333 118 l 1,57,-1
 167 118 l 1,54,-1
300 38 m 1,58,-1
 200 38 l 1,59,-1
 200 85 l 1,60,-1
 300 85 l 1,61,-1
 300 38 l 1,58,-1
167 -18 m 1,62,-1
 167 -51 l 1,63,-1
 237 -51 l 1,64,-1
 167 -98 l 1,65,-1
 167 -131 l 1,66,-1
 333 -131 l 1,67,-1
 333 -98 l 1,68,-1
 231 -98 l 1,69,-1
 301 -51 l 1,70,-1
 333 -51 l 1,71,-1
 333 -18 l 1,72,-1
 167 -18 l 1,62,-1
EndSplineSet
EndChar

StartChar: B
Encoding: 66 66 3
Width: 0
GlyphClass: 1
Flags: W
LayerCount: 2
Fore
SplineSet
-20.5 -166 m 128,-1,1
 16 -173 16 -173 16 -180 c 0,2,3
 16 -186 16 -186 -9 -194 c 128,-1,4
 -34 -202 -34 -202 -86 -216 c 2,5,-1
 -115 -224 l 2,6,7
 -184 -245 -184 -245 -348.5 -297 c 128,-1,8
 -513 -349 -513 -349 -512 -350 c 1,9,10
 -676 -327 -676 -327 -813 -301.5 c 128,-1,11
 -950 -276 -950 -276 -1163 -229 c 0,12,13
 -1254 -210 -1254 -210 -1277 -203.5 c 128,-1,14
 -1300 -197 -1300 -197 -1316 -186 c 0,15,16
 -1323 -181 -1323 -181 -1327.5 -175 c 128,-1,17
 -1332 -169 -1332 -169 -1332 -164 c 256,18,19
 -1332 -159 -1332 -159 -1328 -156 c 128,-1,20
 -1324 -153 -1324 -153 -1317 -153 c 0,21,22
 -1296 -153 -1296 -153 -923 -229 c 0,23,24
 -823 -251 -823 -251 -675 -277 c 1,25,-1
 -659 -274 l 2,26,27
 -611 -266 -611 -266 -463 -206 c 0,28,29
 -388 -177 -388 -177 -369 -170 c 2,30,-1
 -347 -162 l 2,31,32
 -312 -150 -312 -150 -293 -144 c 128,-1,33
 -274 -138 -274 -138 -259 -136 c 0,34,35
 -237 -134 -237 -134 -232 -134 c 0,36,37
 -219 -134 -219 -134 -200.5 -137 c 128,-1,38
 -182 -140 -182 -140 -174 -141 c 2,39,-1
 -118 -150 l 2,40,0
 -57 -159 -57 -159 -20.5 -166 c 128,-1,1
-512 -350 m 1024,41,-1
EndSplineSet
EndChar

StartChar: C
Encoding: 67 67 4
Width: 1413
GlyphClass: 1
Flags: W
LayerCount: 2
Fore
SplineSet
836 200 m 0,1,2
 836 212 836 212 810 238 c 0,3,4
 739 312 739 312 607.5 365.5 c 128,-1,5
 476 419 476 419 339 438 c 0,6,7
 260 450 260 450 195 450 c 0,8,9
 114 450 114 450 64.5 430 c 128,-1,10
 15 410 15 410 15 364 c 0,11,12
 15 345 15 345 17.5 335 c 128,-1,13
 20 325 20 325 27 315 c 0,14,15
 41 294 41 294 56 283 c 128,-1,16
 71 272 71 272 85 268 c 128,-1,17
 99 264 99 264 136 256 c 0,18,19
 183 247 183 247 209 247 c 0,20,21
 229 247 229 247 229 252 c 0,22,23
 229 255 229 255 220 261 c 0,24,25
 189 281 189 281 175 295.5 c 128,-1,26
 161 310 161 310 161 327 c 0,27,28
 161 336 161 336 163 341 c 0,29,30
 174 370 174 370 213 381.5 c 128,-1,31
 252 393 252 393 300 393 c 0,32,33
 426 393 426 393 552 333 c 0,34,35
 592 314 592 314 608 303.5 c 128,-1,36
 624 293 624 293 637 276 c 0,37,38
 650 260 650 260 654 248.5 c 128,-1,39
 658 237 658 237 661 223 c 0,40,41
 662 214 662 214 664.5 210 c 128,-1,42
 667 206 667 206 676 202.5 c 128,-1,43
 685 199 685 199 707 196 c 0,44,45
 737 192 737 192 771.5 188 c 128,-1,46
 806 184 806 184 820 186 c 0,47,0
 836 190 836 190 836 200 c 0,1,2
1033.5 197.5 m 128,-1,49
 1043 202 1043 202 1043 215 c 0,50,51
 1043 223 1043 223 1038 227 c 128,-1,52
 1033 231 1033 231 1026 232 c 0,53,54
 1018 233 1018 233 1014 238 c 128,-1,55
 1010 243 1010 243 1003 256 c 0,56,57
 1000 264 1000 264 994 275 c 0,58,59
 987 288 987 288 983.5 296.5 c 128,-1,60
 980 305 980 305 978 308 c 0,61,62
 972 321 972 321 969.5 325.5 c 128,-1,63
 967 330 967 330 966 331 c 0,64,65
 955 351 955 351 936 356 c 0,66,67
 920 360 920 360 855 360 c 0,68,69
 835 360 835 360 831 347 c 0,70,71
 830 345 830 345 830 341 c 0,72,73
 830 332 830 332 841 321 c 0,74,75
 853 309 853 309 864 278 c 0,76,77
 885 219 885 219 919 204 c 0,78,79
 934 197 934 197 948.5 195 c 128,-1,80
 963 193 963 193 988 193 c 0,81,48
 1024 193 1024 193 1033.5 197.5 c 128,-1,49
1243.5 197.5 m 128,-1,83
 1253 202 1253 202 1253 215 c 0,84,85
 1253 223 1253 223 1248 227 c 128,-1,86
 1243 231 1243 231 1236 232 c 0,87,88
 1228 233 1228 233 1224 238 c 128,-1,89
 1220 243 1220 243 1213 256 c 0,90,91
 1210 264 1210 264 1204 275 c 0,92,93
 1197 288 1197 288 1193.5 296.5 c 128,-1,94
 1190 305 1190 305 1188 308 c 0,95,96
 1182 321 1182 321 1179.5 325.5 c 128,-1,97
 1177 330 1177 330 1176 331 c 0,98,99
 1165 351 1165 351 1146 356 c 0,100,101
 1130 360 1130 360 1065 360 c 0,102,103
 1045 360 1045 360 1041 347 c 0,104,105
 1040 345 1040 345 1040 341 c 0,106,107
 1040 332 1040 332 1051 321 c 0,108,109
 1063 309 1063 309 1074 278 c 0,110,111
 1095 219 1095 219 1129 204 c 0,112,113
 1144 197 1144 197 1158.5 195 c 128,-1,114
 1173 193 1173 193 1198 193 c 0,115,82
 1234 193 1234 193 1243.5 197.5 c 128,-1,83
570 157 m 0,117,118
 580 157 580 157 586 160 c 0,119,120
 604 170 604 170 604 196 c 0,121,122
 604 229 604 229 573 258 c 128,-1,123
 542 287 542 287 489 304 c 0,124,125
 448 317 448 317 398.5 325 c 128,-1,126
 349 333 349 333 308 333 c 0,127,128
 258 333 258 333 235 320 c 0,129,130
 226 316 226 316 226 312 c 256,131,132
 226 308 226 308 240 304.5 c 128,-1,133
 254 301 254 301 267.5 299.5 c 128,-1,134
 281 298 281 298 290 296 c 0,135,136
 388 279 388 279 429 267.5 c 128,-1,137
 470 256 470 256 484 239 c 0,138,139
 493 230 493 230 493 220 c 0,140,141
 493 207 493 207 475 189 c 0,142,143
 469 185 469 185 469 181 c 0,144,145
 469 178 469 178 478.5 175 c 128,-1,146
 488 172 488 172 498.5 169.5 c 128,-1,147
 509 167 509 167 514 166 c 0,148,116
 557 157 557 157 570 157 c 0,117,118
1371 -3 m 0,150,151
 1381 -3 1381 -3 1382 1 c 0,152,153
 1385 8 1385 8 1377.5 17.5 c 128,-1,154
 1370 27 1370 27 1357 34 c 0,155,156
 1320 53 1320 53 1258.5 72 c 128,-1,157
 1197 91 1197 91 1145 100 c 0,158,159
 1128 103 1128 103 1087 103.5 c 128,-1,160
 1046 104 1046 104 960 104 c 0,161,162
 875 104 875 104 697 102 c 0,163,164
 673 101 673 101 629 101 c 0,165,166
 483 99 483 99 386 99 c 2,167,-1
 310 99 l 2,168,169
 195 100 195 100 159.5 102 c 128,-1,170
 124 104 124 104 73 114 c 2,171,-1
 38 120 l 2,172,173
 30 120 30 120 30 113 c 0,174,175
 30 107 30 107 36.5 97.5 c 128,-1,176
 43 88 43 88 54 80 c 0,177,178
 106 39 106 39 142 31 c 0,179,180
 176 23 176 23 243 16 c 128,-1,181
 310 9 310 9 398 6 c 0,182,183
 418 5 418 5 479 5 c 0,184,185
 547 5 547 5 601 6 c 0,186,187
 668 9 668 9 777 11 c 0,188,189
 872 13 872 13 940 16 c 0,190,191
 1008 18 1008 18 1044 18 c 0,192,193
 1202 18 1202 18 1332 1 c 0,194,149
 1357 -3 1357 -3 1371 -3 c 0,150,151
EndSplineSet
EndChar

StartChar: D
Encoding: 68 68 5
Width: 0
GlyphClass: 1
Flags: W
LayerCount: 2
Fore
SplineSet
-129.5 -275 m 128,-1,1
 -124 -276 -124 -276 -118 -275 c 0,2,3
 -107 -273 -107 -273 -87.5 -254 c 128,-1,4
 -68 -235 -68 -235 -68 -224 c 256,5,6
 -68 -213 -68 -213 -78.5 -205.5 c 128,-1,7
 -89 -198 -89 -198 -109 -191 c 0,8,9
 -131 -182 -131 -182 -144.5 -178 c 128,-1,10
 -158 -174 -158 -174 -171 -174 c 0,11,12
 -180 -174 -180 -174 -184 -175.5 c 128,-1,13
 -188 -177 -188 -177 -193 -182 c 128,-1,14
 -198 -187 -198 -187 -203 -192 c 0,15,16
 -218 -205 -218 -205 -224 -212 c 128,-1,17
 -230 -219 -230 -219 -230 -227 c 0,18,19
 -230 -231 -230 -231 -227 -237 c 0,20,21
 -224 -241 -224 -241 -210 -248 c 128,-1,22
 -196 -255 -196 -255 -177 -261 c 2,23,-1
 -145 -271 l 2,24,0
 -135 -274 -135 -274 -129.5 -275 c 128,-1,1
EndSplineSet
EndChar

StartChar: F
Encoding: 70 70 7
Width: 0
GlyphClass: 1
Flags: W
LayerCount: 2
Fore
SplineSet
-269.5 -275 m 128,-1,1
 -264 -276 -264 -276 -258 -275 c 0,2,3
 -247 -273 -247 -273 -227.5 -254 c 128,-1,4
 -208 -235 -208 -235 -208 -224 c 256,5,6
 -208 -213 -208 -213 -218.5 -205.5 c 128,-1,7
 -229 -198 -229 -198 -249 -191 c 0,8,9
 -271 -182 -271 -182 -284.5 -178 c 128,-1,10
 -298 -174 -298 -174 -311 -174 c 0,11,12
 -320 -174 -320 -174 -324 -175.5 c 128,-1,13
 -328 -177 -328 -177 -333 -182 c 128,-1,14
 -338 -187 -338 -187 -343 -192 c 0,15,16
 -358 -205 -358 -205 -364 -212 c 128,-1,17
 -370 -219 -370 -219 -370 -227 c 0,18,19
 -370 -231 -370 -231 -367 -237 c 0,20,21
 -364 -241 -364 -241 -350 -248 c 128,-1,22
 -336 -255 -336 -255 -317 -261 c 2,23,-1
 -285 -271 l 2,24,0
 -275 -274 -275 -274 -269.5 -275 c 128,-1,1
-69.5 -275 m 128,-1,26
 -64 -276 -64 -276 -58 -275 c 0,27,28
 -47 -273 -47 -273 -27.5 -254 c 128,-1,29
 -8 -235 -8 -235 -8 -224 c 256,30,31
 -8 -213 -8 -213 -18.5 -205.5 c 128,-1,32
 -29 -198 -29 -198 -49 -191 c 0,33,34
 -71 -182 -71 -182 -84.5 -178 c 128,-1,35
 -98 -174 -98 -174 -111 -174 c 0,36,37
 -120 -174 -120 -174 -124 -175.5 c 128,-1,38
 -128 -177 -128 -177 -133 -182 c 128,-1,39
 -138 -187 -138 -187 -143 -192 c 0,40,41
 -158 -205 -158 -205 -164 -212 c 128,-1,42
 -170 -219 -170 -219 -170 -227 c 0,43,44
 -170 -231 -170 -231 -167 -237 c 0,45,46
 -164 -241 -164 -241 -150 -248 c 128,-1,47
 -136 -255 -136 -255 -117 -261 c 2,48,-1
 -85 -271 l 2,49,25
 -75 -274 -75 -274 -69.5 -275 c 128,-1,26
EndSplineSet
EndChar

StartChar: G
Encoding: 71 71 8
Width: 0
GlyphClass: 1
Flags: W
LayerCount: 2
Fore
SplineSet
-307.5 -264 m 128,-1,1
 -302 -265 -302 -265 -297 -264 c 0,2,3
 -287 -261 -287 -261 -269.5 -245 c 128,-1,4
 -252 -229 -252 -229 -252 -218 c 0,5,6
 -252 -208 -252 -208 -261 -202 c 128,-1,7
 -270 -196 -270 -196 -289 -188 c 0,8,9
 -323 -173 -323 -173 -345 -173 c 0,10,11
 -354 -173 -354 -173 -357 -174.5 c 128,-1,12
 -360 -176 -360 -176 -364.5 -180.5 c 128,-1,13
 -369 -185 -369 -185 -374 -189 c 0,14,15
 -398 -208 -398 -208 -398 -220 c 0,16,17
 -398 -225 -398 -225 -395 -229 c 0,18,19
 -393 -233 -393 -233 -380.5 -239.5 c 128,-1,20
 -368 -246 -368 -246 -350 -251 c 2,21,-1
 -322 -260 l 2,22,0
 -313 -263 -313 -263 -307.5 -264 c 128,-1,1
-131.5 -264 m 128,-1,24
 -126 -265 -126 -265 -121 -264 c 0,25,26
 -111 -261 -111 -261 -93.5 -245 c 128,-1,27
 -76 -229 -76 -229 -76 -218 c 0,28,29
 -76 -208 -76 -208 -85 -202 c 128,-1,30
 -94 -196 -94 -196 -113 -188 c 0,31,32
 -147 -173 -147 -173 -169 -173 c 0,33,34
 -178 -173 -178 -173 -181 -174.5 c 128,-1,35
 -184 -176 -184 -176 -188.5 -180.5 c 128,-1,36
 -193 -185 -193 -185 -198 -189 c 0,37,38
 -222 -208 -222 -208 -222 -220 c 0,39,40
 -222 -225 -222 -225 -219 -229 c 0,41,42
 -217 -233 -217 -233 -204.5 -239.5 c 128,-1,43
 -192 -246 -192 -246 -174 -251 c 2,44,-1
 -146 -260 l 2,45,23
 -137 -263 -137 -263 -131.5 -264 c 128,-1,24
45 -264 m 128,-1,47
 50 -265 50 -265 55 -264 c 0,48,49
 66 -262 66 -262 83 -245 c 128,-1,50
 100 -228 100 -228 100 -217 c 0,51,52
 100 -208 100 -208 90.5 -201 c 128,-1,53
 81 -194 81 -194 63 -188 c 0,54,55
 29 -173 29 -173 7 -173 c 0,56,57
 -2 -173 -2 -173 -5 -174.5 c 128,-1,58
 -8 -176 -8 -176 -12.5 -180.5 c 128,-1,59
 -17 -185 -17 -185 -22 -189 c 0,60,61
 -46 -208 -46 -208 -46 -220 c 0,62,63
 -46 -225 -46 -225 -43 -229 c 0,64,65
 -41 -233 -41 -233 -28.5 -239.5 c 128,-1,66
 -16 -246 -16 -246 2 -251 c 2,67,-1
 31 -260 l 2,68,46
 40 -263 40 -263 45 -264 c 128,-1,47
EndSplineSet
EndChar

StartChar: H
Encoding: 72 72 9
Width: 0
GlyphClass: 1
Flags: W
LayerCount: 2
Fore
SplineSet
-364.5 -252.5 m 128,-1,1
 -360 -253 -360 -253 -355 -252 c 0,2,3
 -346 -250 -346 -250 -330.5 -235.5 c 128,-1,4
 -315 -221 -315 -221 -315 -212 c 256,5,6
 -315 -203 -315 -203 -322.5 -198 c 128,-1,7
 -330 -193 -330 -193 -348 -185 c 256,8,9
 -366 -177 -366 -177 -376.5 -174 c 128,-1,10
 -387 -171 -387 -171 -398 -171 c 0,11,12
 -406 -171 -406 -171 -409 -172.5 c 128,-1,13
 -412 -174 -412 -174 -416 -178.5 c 128,-1,14
 -420 -183 -420 -183 -423 -186 c 0,15,16
 -432 -193 -432 -193 -439 -200 c 128,-1,17
 -446 -207 -446 -207 -446 -214 c 0,18,19
 -446 -218 -446 -218 -443 -222 c 0,20,21
 -435 -230 -435 -230 -403 -241 c 2,22,-1
 -377 -249 l 2,23,0
 -369 -252 -369 -252 -364.5 -252.5 c 128,-1,1
-209.5 -252.5 m 128,-1,25
 -205 -253 -205 -253 -200 -252 c 0,26,27
 -191 -250 -191 -250 -175.5 -235.5 c 128,-1,28
 -160 -221 -160 -221 -160 -212 c 256,29,30
 -160 -203 -160 -203 -167.5 -198 c 128,-1,31
 -175 -193 -175 -193 -193 -185 c 256,32,33
 -211 -177 -211 -177 -221.5 -174 c 128,-1,34
 -232 -171 -232 -171 -243 -171 c 0,35,36
 -251 -171 -251 -171 -254 -172.5 c 128,-1,37
 -257 -174 -257 -174 -261 -178.5 c 128,-1,38
 -265 -183 -265 -183 -268 -186 c 0,39,40
 -277 -193 -277 -193 -284 -200 c 128,-1,41
 -291 -207 -291 -207 -291 -214 c 0,42,43
 -291 -218 -291 -218 -288 -222 c 0,44,45
 -280 -230 -280 -230 -248 -241 c 2,46,-1
 -222 -249 l 2,47,24
 -214 -252 -214 -252 -209.5 -252.5 c 128,-1,25
-54.5 -252.5 m 128,-1,49
 -50 -253 -50 -253 -45 -252 c 0,50,51
 -36 -250 -36 -250 -20.5 -235.5 c 128,-1,52
 -5 -221 -5 -221 -5 -212 c 256,53,54
 -5 -203 -5 -203 -12.5 -198 c 128,-1,55
 -20 -193 -20 -193 -38 -185 c 256,56,57
 -56 -177 -56 -177 -66.5 -174 c 128,-1,58
 -77 -171 -77 -171 -88 -171 c 0,59,60
 -96 -171 -96 -171 -99 -172.5 c 128,-1,61
 -102 -174 -102 -174 -106 -178.5 c 128,-1,62
 -110 -183 -110 -183 -113 -186 c 0,63,64
 -122 -193 -122 -193 -129 -200 c 128,-1,65
 -136 -207 -136 -207 -136 -214 c 0,66,67
 -136 -218 -136 -218 -133 -222 c 0,68,69
 -125 -230 -125 -230 -93 -241 c 2,70,-1
 -67 -249 l 2,71,48
 -59 -252 -59 -252 -54.5 -252.5 c 128,-1,49
100.5 -252.5 m 128,-1,73
 105 -253 105 -253 110 -252 c 0,74,75
 119 -250 119 -250 134.5 -235.5 c 128,-1,76
 150 -221 150 -221 150 -212 c 256,77,78
 150 -203 150 -203 142.5 -198 c 128,-1,79
 135 -193 135 -193 117 -185 c 256,80,81
 99 -177 99 -177 88.5 -174 c 128,-1,82
 78 -171 78 -171 67 -171 c 0,83,84
 59 -171 59 -171 56 -172.5 c 128,-1,85
 53 -174 53 -174 49 -178.5 c 128,-1,86
 45 -183 45 -183 42 -186 c 0,87,88
 33 -193 33 -193 26 -200 c 128,-1,89
 19 -207 19 -207 19 -214 c 0,90,91
 19 -218 19 -218 22 -222 c 0,92,93
 30 -230 30 -230 62 -241 c 2,94,-1
 88 -249 l 2,95,72
 96 -252 96 -252 100.5 -252.5 c 128,-1,73
EndSplineSet
EndChar

StartChar: P
Encoding: 80 80 17
Width: 1436
GlyphClass: 1
Flags: W
LayerCount: 2
Fore
SplineSet
1204 -11 m 0,1,2
 1210 -11 1210 -11 1211.5 -9.5 c 128,-1,3
 1213 -8 1213 -8 1215 -5 c 0,4,5
 1218 4 1218 4 1194 23 c 128,-1,6
 1170 42 1170 42 1129 62 c 0,7,8
 1072 89 1072 89 1012 100.5 c 128,-1,9
 952 112 952 112 876 112 c 0,10,11
 818 112 818 112 749 107 c 128,-1,12
 680 102 680 102 546 89 c 0,13,14
 420 76 420 76 373 76 c 0,15,16
 333 76 333 76 291 85 c 0,17,18
 250 93 250 93 227 106 c 128,-1,19
 204 119 204 119 204 131 c 0,20,21
 204 142 204 142 224 148.5 c 128,-1,22
 244 155 244 155 283 154 c 2,23,-1
 350 151 l 1,24,-1
 384 149 l 2,25,26
 408 149 408 149 408 158 c 0,27,28
 408 168 408 168 382 185 c 128,-1,29
 356 202 356 202 327 215 c 0,30,31
 287 234 287 234 252.5 240.5 c 128,-1,32
 218 247 218 247 158 248 c 0,33,34
 107 248 107 248 80 243.5 c 128,-1,35
 53 239 53 239 41.5 228.5 c 128,-1,36
 30 218 30 218 30 198 c 0,37,38
 30 169 30 169 72 133.5 c 128,-1,39
 114 98 114 98 188 64 c 0,40,41
 246 37 246 37 306 25 c 128,-1,42
 366 13 366 13 429 10 c 128,-1,43
 492 7 492 7 599 7 c 0,44,45
 764 7 764 7 870 11 c 0,46,47
 893 12 893 12 936 12 c 0,48,49
 1033 12 1033 12 1156 -6 c 0,50,0
 1199 -11 1199 -11 1204 -11 c 0,1,2
1496 -354 m 0,52,53
 1511 -354 1511 -354 1520.5 -350.5 c 128,-1,54
 1530 -347 1530 -347 1540 -340 c 0,55,56
 1556 -327 1556 -327 1556 -299 c 0,57,58
 1556 -248 1556 -248 1500.5 -209 c 128,-1,59
 1445 -170 1445 -170 1341 -145 c 0,60,61
 1172 -102 1172 -102 1059 -102 c 0,62,63
 1037 -102 1037 -102 1027 -103 c 0,64,65
 974 -105 974 -105 939.5 -112 c 128,-1,66
 905 -119 905 -119 898 -129 c 0,67,68
 897 -130 897 -130 897 -133 c 0,69,70
 897 -139 897 -139 905 -142 c 0,71,72
 911 -145 911 -145 1035 -153 c 0,73,74
 1094 -156 1094 -156 1169 -170 c 128,-1,75
 1244 -184 1244 -184 1289 -201 c 0,76,77
 1326 -214 1326 -214 1346.5 -230.5 c 128,-1,78
 1367 -247 1367 -247 1367 -264 c 0,79,80
 1367 -273 1367 -273 1360 -281 c 0,81,82
 1355 -286 1355 -286 1350.5 -290 c 128,-1,83
 1346 -294 1346 -294 1342 -298 c 0,84,85
 1340 -300 1340 -300 1332 -307 c 128,-1,86
 1324 -314 1324 -314 1324 -319 c 0,87,88
 1324 -326 1324 -326 1331.5 -329 c 128,-1,89
 1339 -332 1339 -332 1361 -335 c 2,90,-1
 1399 -342 l 2,91,51
 1471 -354 1471 -354 1496 -354 c 0,52,53
EndSplineSet
EndChar

StartChar: V
Encoding: 86 86 23
Width: 1816
GlyphClass: 1
Flags: W
LayerCount: 2
Fore
SplineSet
1170 219 m 0,1,2
 1170 231 1170 231 1148 252 c 0,3,4
 1087 316 1087 316 973 362 c 128,-1,5
 859 408 859 408 740 425 c 0,6,7
 673 435 673 435 613 435 c 0,8,9
 458 435 458 435 458 361 c 0,10,11
 458 345 458 345 460 336.5 c 128,-1,12
 462 328 462 328 469 318 c 0,13,14
 481 300 481 300 494.5 291 c 128,-1,15
 508 282 508 282 526 276.5 c 128,-1,16
 544 271 544 271 564 267 c 0,17,18
 608 259 608 259 627 259 c 0,19,20
 644 259 644 259 644 264 c 0,21,22
 644 268 644 268 636 272 c 0,23,24
 610 288 610 288 597.5 301 c 128,-1,25
 585 314 585 314 585 328 c 0,26,27
 585 337 585 337 587 341 c 0,28,29
 596 367 596 367 630 376.5 c 128,-1,30
 664 386 664 386 706 386 c 0,31,32
 814 386 814 386 924 335 c 0,33,34
 959 318 959 318 972.5 309 c 128,-1,35
 986 300 986 300 998 285 c 0,36,37
 1017 262 1017 262 1019 239 c 0,38,39
 1020 228 1020 228 1026 223.5 c 128,-1,40
 1032 219 1032 219 1058 215 c 0,41,42
 1139 205 1139 205 1156 207 c 0,43,0
 1170 210 1170 210 1170 219 c 0,1,2
398 235 m 0,45,46
 411 235 411 235 418.5 237.5 c 128,-1,47
 426 240 426 240 433 246 c 0,48,49
 446 256 446 256 446 278 c 0,50,51
 446 283 446 283 444 293 c 0,52,53
 437 328 437 328 393.5 355 c 128,-1,54
 350 382 350 382 276 400 c 0,55,56
 138 434 138 434 54 434 c 0,57,58
 2 434 2 434 -33 428 c 128,-1,59
 -68 422 -68 422 -74 412 c 0,60,61
 -75 411 -75 411 -75 409 c 0,62,63
 -75 405 -75 405 -68 402 c 0,64,65
 -62 399 -62 399 34 394 c 0,66,67
 83 391 83 391 141.5 380 c 128,-1,68
 200 369 200 369 235 355 c 0,69,70
 263 345 263 345 279.5 332 c 128,-1,71
 296 319 296 319 296 306 c 0,72,73
 296 297 296 297 291 292 c 0,74,75
 285 286 285 286 273.5 276.5 c 128,-1,76
 262 267 262 267 262 262 c 256,77,78
 262 257 262 257 268 254.5 c 128,-1,79
 274 252 274 252 291 250 c 0,80,81
 297 249 297 249 304.5 247.5 c 128,-1,82
 312 246 312 246 322 244 c 0,83,44
 379 235 379 235 398 235 c 0,45,46
1436.5 197.5 m 128,-1,85
 1446 202 1446 202 1446 215 c 0,86,87
 1446 223 1446 223 1441 227 c 128,-1,88
 1436 231 1436 231 1429 232 c 0,89,90
 1421 233 1421 233 1417 238 c 128,-1,91
 1413 243 1413 243 1406 256 c 0,92,93
 1403 264 1403 264 1397 275 c 0,94,95
 1390 288 1390 288 1386.5 296.5 c 128,-1,96
 1383 305 1383 305 1381 308 c 0,97,98
 1375 321 1375 321 1372.5 325.5 c 128,-1,99
 1370 330 1370 330 1369 331 c 0,100,101
 1358 351 1358 351 1339 356 c 0,102,103
 1323 360 1323 360 1258 360 c 0,104,105
 1238 360 1238 360 1234 347 c 0,106,107
 1233 345 1233 345 1233 341 c 0,108,109
 1233 332 1233 332 1244 321 c 0,110,111
 1256 309 1256 309 1267 278 c 0,112,113
 1288 219 1288 219 1322 204 c 0,114,115
 1337 197 1337 197 1351.5 195 c 128,-1,116
 1366 193 1366 193 1391 193 c 0,117,84
 1427 193 1427 193 1436.5 197.5 c 128,-1,85
1646.5 197.5 m 128,-1,119
 1656 202 1656 202 1656 215 c 0,120,121
 1656 223 1656 223 1651 227 c 128,-1,122
 1646 231 1646 231 1639 232 c 0,123,124
 1631 233 1631 233 1627 238 c 128,-1,125
 1623 243 1623 243 1616 256 c 0,126,127
 1613 264 1613 264 1607 275 c 0,128,129
 1600 288 1600 288 1596.5 296.5 c 128,-1,130
 1593 305 1593 305 1591 308 c 0,131,132
 1585 321 1585 321 1582.5 325.5 c 128,-1,133
 1580 330 1580 330 1579 331 c 0,134,135
 1568 351 1568 351 1549 356 c 0,136,137
 1533 360 1533 360 1468 360 c 0,138,139
 1448 360 1448 360 1444 347 c 0,140,141
 1443 345 1443 345 1443 341 c 0,142,143
 1443 332 1443 332 1454 321 c 0,144,145
 1466 309 1466 309 1477 278 c 0,146,147
 1498 219 1498 219 1532 204 c 0,148,149
 1547 197 1547 197 1561.5 195 c 128,-1,150
 1576 193 1576 193 1601 193 c 0,151,118
 1637 193 1637 193 1646.5 197.5 c 128,-1,119
1774 -3 m 0,153,154
 1784 -3 1784 -3 1785 1 c 0,155,156
 1788 8 1788 8 1780.5 17.5 c 128,-1,157
 1773 27 1773 27 1760 34 c 0,158,159
 1723 53 1723 53 1661.5 72 c 128,-1,160
 1600 91 1600 91 1548 100 c 0,161,162
 1531 103 1531 103 1490 103.5 c 128,-1,163
 1449 104 1449 104 1363 104 c 0,164,165
 1278 104 1278 104 1100 102 c 0,166,167
 1076 101 1076 101 1032 101 c 0,168,169
 886 99 886 99 789 99 c 2,170,-1
 713 99 l 2,171,172
 598 100 598 100 562.5 102 c 128,-1,173
 527 104 527 104 476 114 c 2,174,-1
 441 120 l 2,175,176
 433 120 433 120 433 113 c 0,177,178
 433 107 433 107 439.5 97.5 c 128,-1,179
 446 88 446 88 457 80 c 0,180,181
 509 39 509 39 545 31 c 0,182,183
 579 23 579 23 646 16 c 128,-1,184
 713 9 713 9 801 6 c 0,185,186
 821 5 821 5 882 5 c 0,187,188
 950 5 950 5 1004 6 c 0,189,190
 1071 9 1071 9 1180 11 c 0,191,192
 1275 13 1275 13 1343 16 c 0,193,194
 1411 18 1411 18 1447 18 c 0,195,196
 1605 18 1605 18 1735 1 c 0,197,152
 1760 -3 1760 -3 1774 -3 c 0,153,154
EndSplineSet
EndChar

StartChar: X
Encoding: 88 88 25
Width: 1413
GlyphClass: 1
Flags: W
LayerCount: 2
Fore
SplineSet
622 195 m 0,1,2
 637 195 637 195 645.5 198 c 128,-1,3
 654 201 654 201 663 208 c 0,4,5
 678 222 678 222 678 247 c 0,6,7
 678 296 678 296 625 333 c 128,-1,8
 572 370 572 370 472 395 c 0,9,10
 311 436 311 436 202 436 c 0,11,12
 181 436 181 436 170 435 c 0,13,14
 119 433 119 433 86 426.5 c 128,-1,15
 53 420 53 420 47 410 c 0,16,17
 46 409 46 409 46 407 c 0,18,19
 46 400 46 400 54 398 c 0,20,21
 61 395 61 395 178 387 c 0,22,23
 235 384 235 384 307.5 370.5 c 128,-1,24
 380 357 380 357 423 341 c 0,25,26
 457 329 457 329 477 313 c 128,-1,27
 497 297 497 297 497 281 c 0,28,29
 497 271 497 271 490 264 c 0,30,31
 484 256 484 256 472 248 c 0,32,33
 455 233 455 233 455 228 c 0,34,35
 455 221 455 221 463 218 c 128,-1,36
 471 215 471 215 494 212 c 0,37,38
 500 211 500 211 508.5 209.5 c 128,-1,39
 517 208 517 208 528 206 c 0,40,0
 593 195 593 195 622 195 c 0,1,2
1033.5 197.5 m 128,-1,42
 1043 202 1043 202 1043 215 c 0,43,44
 1043 223 1043 223 1038 227 c 128,-1,45
 1033 231 1033 231 1026 232 c 0,46,47
 1018 233 1018 233 1014 238 c 128,-1,48
 1010 243 1010 243 1003 256 c 0,49,50
 1000 264 1000 264 994 275 c 0,51,52
 987 288 987 288 983.5 296.5 c 128,-1,53
 980 305 980 305 978 308 c 0,54,55
 972 321 972 321 969.5 325.5 c 128,-1,56
 967 330 967 330 966 331 c 0,57,58
 955 351 955 351 936 356 c 0,59,60
 920 360 920 360 855 360 c 0,61,62
 835 360 835 360 831 347 c 0,63,64
 830 345 830 345 830 341 c 0,65,66
 830 332 830 332 841 321 c 0,67,68
 853 309 853 309 864 278 c 0,69,70
 885 219 885 219 919 204 c 0,71,72
 934 197 934 197 948.5 195 c 128,-1,73
 963 193 963 193 988 193 c 0,74,41
 1024 193 1024 193 1033.5 197.5 c 128,-1,42
1243.5 197.5 m 128,-1,76
 1253 202 1253 202 1253 215 c 0,77,78
 1253 223 1253 223 1248 227 c 128,-1,79
 1243 231 1243 231 1236 232 c 0,80,81
 1228 233 1228 233 1224 238 c 128,-1,82
 1220 243 1220 243 1213 256 c 0,83,84
 1210 264 1210 264 1204 275 c 0,85,86
 1197 288 1197 288 1193.5 296.5 c 128,-1,87
 1190 305 1190 305 1188 308 c 0,88,89
 1182 321 1182 321 1179.5 325.5 c 128,-1,90
 1177 330 1177 330 1176 331 c 0,91,92
 1165 351 1165 351 1146 356 c 0,93,94
 1130 360 1130 360 1065 360 c 0,95,96
 1045 360 1045 360 1041 347 c 0,97,98
 1040 345 1040 345 1040 341 c 0,99,100
 1040 332 1040 332 1051 321 c 0,101,102
 1063 309 1063 309 1074 278 c 0,103,104
 1095 219 1095 219 1129 204 c 0,105,106
 1144 197 1144 197 1158.5 195 c 128,-1,107
 1173 193 1173 193 1198 193 c 0,108,75
 1234 193 1234 193 1243.5 197.5 c 128,-1,76
1371 -3 m 0,110,111
 1381 -3 1381 -3 1382 1 c 0,112,113
 1385 8 1385 8 1377.5 17.5 c 128,-1,114
 1370 27 1370 27 1357 34 c 0,115,116
 1320 53 1320 53 1258.5 72 c 128,-1,117
 1197 91 1197 91 1145 100 c 0,118,119
 1128 103 1128 103 1087 103.5 c 128,-1,120
 1046 104 1046 104 960 104 c 0,121,122
 875 104 875 104 697 102 c 0,123,124
 673 101 673 101 629 101 c 0,125,126
 483 99 483 99 386 99 c 2,127,-1
 310 99 l 2,128,129
 195 100 195 100 159.5 102 c 128,-1,130
 124 104 124 104 73 114 c 2,131,-1
 38 120 l 2,132,133
 30 120 30 120 30 113 c 0,134,135
 30 107 30 107 36.5 97.5 c 128,-1,136
 43 88 43 88 54 80 c 0,137,138
 106 39 106 39 142 31 c 0,139,140
 176 23 176 23 243 16 c 128,-1,141
 310 9 310 9 398 6 c 0,142,143
 418 5 418 5 479 5 c 0,144,145
 547 5 547 5 601 6 c 0,146,147
 668 9 668 9 777 11 c 0,148,149
 872 13 872 13 940 16 c 0,150,151
 1008 18 1008 18 1044 18 c 0,152,153
 1202 18 1202 18 1332 1 c 0,154,109
 1357 -3 1357 -3 1371 -3 c 0,110,111
EndSplineSet
EndChar

StartChar: a
Encoding: 97 97 28
Width: 0
GlyphClass: 1
Flags: W
LayerCount: 2
Fore
SplineSet
-548 219.5 m 128,-1,1
 -531 227 -531 227 -525 236 c 0,2,3
 -517 247 -517 247 -517 256 c 0,4,5
 -517 268 -517 268 -529 277 c 0,6,7
 -561 302 -561 302 -605 305 c 2,8,-1
 -614 305 l 2,9,10
 -621 305 -621 305 -627 302 c 0,11,12
 -633 298 -633 298 -633 295 c 0,13,14
 -633 290 -633 290 -620 276 c 256,15,16
 -607 262 -607 262 -608 258 c 0,17,18
 -611 247 -611 247 -626.5 244.5 c 128,-1,19
 -642 242 -642 242 -670 242 c 0,20,21
 -754 242 -754 242 -856 294 c 0,22,23
 -879 305 -879 305 -887 305 c 0,24,25
 -892 305 -892 305 -897.5 303 c 128,-1,26
 -903 301 -903 301 -903 299 c 0,27,28
 -903 292 -903 292 -889 282 c 128,-1,29
 -875 272 -875 272 -853 262 c 0,30,31
 -795 236 -795 236 -736 220.5 c 128,-1,32
 -677 205 -677 205 -627 205 c 0,33,34
 -606 205 -606 205 -588 208 c 0,35,0
 -565 212 -565 212 -548 219.5 c 128,-1,1
EndSplineSet
EndChar

StartChar: b
Encoding: 98 98 30
Width: 1413
GlyphClass: 1
Flags: W
LayerCount: 2
Fore
SplineSet
396 182 m 128,-1,1
 411 184 411 184 425 197 c 0,2,3
 430 202 430 202 439 214 c 128,-1,4
 448 226 448 226 449 227 c 256,5,6
 450 228 450 228 457 228 c 0,7,8
 495 228 495 228 546 230 c 128,-1,9
 597 232 597 232 641 235 c 0,10,11
 671 237 671 237 688 240.5 c 128,-1,12
 705 244 705 244 714 251 c 0,13,14
 729 261 729 261 723 265 c 0,15,16
 719 268 719 268 678 268 c 2,17,-1
 611 267 l 2,18,19
 530 267 530 267 499 268.5 c 128,-1,20
 468 270 468 270 468 272 c 0,21,22
 470 278 470 278 480 300 c 128,-1,23
 490 322 490 322 487 325 c 0,24,25
 485 326 485 326 424 326 c 0,26,27
 404 326 404 326 398 324.5 c 128,-1,28
 392 323 392 323 390 318 c 0,29,30
 388 314 388 314 376.5 293.5 c 128,-1,31
 365 273 365 273 364 272 c 0,32,33
 364 271 364 271 355 271 c 0,34,35
 324 271 324 271 281 276 c 0,36,37
 233 283 233 283 202.5 294 c 128,-1,38
 172 305 172 305 148 329 c 0,39,40
 128 350 128 350 110.5 380 c 128,-1,41
 93 410 93 410 85 446 c 0,42,43
 78 477 78 477 68 496 c 128,-1,44
 58 515 58 515 42 526 c 0,45,46
 35 531 35 531 28 532.5 c 128,-1,47
 21 534 21 534 8 535 c 128,-1,48
 -5 536 -5 536 -13 537 c 2,49,-1
 -43 539 l 2,50,51
 -51 539 -51 539 -51 536 c 0,52,53
 -51 525 -51 525 -31.5 464 c 128,-1,54
 -12 403 -12 403 -1 379 c 0,55,56
 27 320 27 320 66.5 290.5 c 128,-1,57
 106 261 106 261 176 245 c 0,58,59
 199 240 199 240 243.5 235.5 c 128,-1,60
 288 231 288 231 317 231 c 0,61,62
 342 231 342 231 342 230 c 0,63,64
 341 226 341 226 337 220.5 c 128,-1,65
 333 215 333 215 329 209 c 0,66,67
 315 191 315 191 315 188 c 0,68,69
 315 180 315 180 329 180 c 0,70,0
 381 180 381 180 396 182 c 128,-1,1
1033.5 197.5 m 128,-1,72
 1043 202 1043 202 1043 215 c 0,73,74
 1043 223 1043 223 1038 227 c 128,-1,75
 1033 231 1033 231 1026 232 c 0,76,77
 1018 233 1018 233 1014 238 c 128,-1,78
 1010 243 1010 243 1003 256 c 0,79,80
 1000 264 1000 264 994 275 c 0,81,82
 987 288 987 288 983.5 296.5 c 128,-1,83
 980 305 980 305 978 308 c 0,84,85
 972 321 972 321 969.5 325.5 c 128,-1,86
 967 330 967 330 966 331 c 0,87,88
 955 351 955 351 936 356 c 0,89,90
 920 360 920 360 855 360 c 0,91,92
 835 360 835 360 831 347 c 0,93,94
 830 345 830 345 830 341 c 0,95,96
 830 332 830 332 841 321 c 0,97,98
 853 309 853 309 864 278 c 0,99,100
 885 219 885 219 919 204 c 0,101,102
 934 197 934 197 948.5 195 c 128,-1,103
 963 193 963 193 988 193 c 0,104,71
 1024 193 1024 193 1033.5 197.5 c 128,-1,72
1243.5 197.5 m 128,-1,106
 1253 202 1253 202 1253 215 c 0,107,108
 1253 223 1253 223 1248 227 c 128,-1,109
 1243 231 1243 231 1236 232 c 0,110,111
 1228 233 1228 233 1224 238 c 128,-1,112
 1220 243 1220 243 1213 256 c 0,113,114
 1210 264 1210 264 1204 275 c 0,115,116
 1197 288 1197 288 1193.5 296.5 c 128,-1,117
 1190 305 1190 305 1188 308 c 0,118,119
 1182 321 1182 321 1179.5 325.5 c 128,-1,120
 1177 330 1177 330 1176 331 c 0,121,122
 1165 351 1165 351 1146 356 c 0,123,124
 1130 360 1130 360 1065 360 c 0,125,126
 1045 360 1045 360 1041 347 c 0,127,128
 1040 345 1040 345 1040 341 c 0,129,130
 1040 332 1040 332 1051 321 c 0,131,132
 1063 309 1063 309 1074 278 c 0,133,134
 1095 219 1095 219 1129 204 c 0,135,136
 1144 197 1144 197 1158.5 195 c 128,-1,137
 1173 193 1173 193 1198 193 c 0,138,105
 1234 193 1234 193 1243.5 197.5 c 128,-1,106
1371 -3 m 0,140,141
 1381 -3 1381 -3 1382 1 c 0,142,143
 1385 8 1385 8 1377.5 17.5 c 128,-1,144
 1370 27 1370 27 1357 34 c 0,145,146
 1320 53 1320 53 1258.5 72 c 128,-1,147
 1197 91 1197 91 1145 100 c 0,148,149
 1128 103 1128 103 1087 103.5 c 128,-1,150
 1046 104 1046 104 960 104 c 0,151,152
 875 104 875 104 697 102 c 0,153,154
 673 101 673 101 629 101 c 0,155,156
 483 99 483 99 386 99 c 2,157,-1
 310 99 l 2,158,159
 195 100 195 100 159.5 102 c 128,-1,160
 124 104 124 104 73 114 c 2,161,-1
 38 120 l 2,162,163
 30 120 30 120 30 113 c 0,164,165
 30 107 30 107 36.5 97.5 c 128,-1,166
 43 88 43 88 54 80 c 0,167,168
 106 39 106 39 142 31 c 0,169,170
 176 23 176 23 243 16 c 128,-1,171
 310 9 310 9 398 6 c 0,172,173
 418 5 418 5 479 5 c 0,174,175
 547 5 547 5 601 6 c 0,176,177
 668 9 668 9 777 11 c 0,178,179
 872 13 872 13 940 16 c 0,180,181
 1008 18 1008 18 1044 18 c 0,182,183
 1202 18 1202 18 1332 1 c 0,184,139
 1357 -3 1357 -3 1371 -3 c 0,140,141
EndSplineSet
EndChar

StartChar: c
Encoding: 99 99 31
Width: 1413
GlyphClass: 1
Flags: W
LayerCount: 2
Fore
SplineSet
856 200 m 0,1,2
 856 212 856 212 830 238 c 0,3,4
 759 312 759 312 627.5 365.5 c 128,-1,5
 496 419 496 419 359 438 c 0,6,7
 280 450 280 450 215 450 c 0,8,9
 134 450 134 450 84.5 430 c 128,-1,10
 35 410 35 410 35 364 c 0,11,12
 35 345 35 345 37.5 335 c 128,-1,13
 40 325 40 325 47 315 c 0,14,15
 61 294 61 294 76 283 c 128,-1,16
 91 272 91 272 105 268 c 128,-1,17
 119 264 119 264 156 256 c 0,18,19
 203 247 203 247 229 247 c 0,20,21
 249 247 249 247 249 252 c 0,22,23
 249 255 249 255 240 261 c 0,24,25
 209 281 209 281 195 295.5 c 128,-1,26
 181 310 181 310 181 327 c 0,27,28
 181 336 181 336 183 341 c 0,29,30
 194 370 194 370 233 381.5 c 128,-1,31
 272 393 272 393 320 393 c 0,32,33
 446 393 446 393 572 333 c 0,34,35
 612 314 612 314 628 303.5 c 128,-1,36
 644 293 644 293 657 276 c 0,37,38
 670 260 670 260 674 248.5 c 128,-1,39
 678 237 678 237 681 223 c 0,40,41
 682 214 682 214 684.5 210 c 128,-1,42
 687 206 687 206 696 202.5 c 128,-1,43
 705 199 705 199 727 196 c 0,44,45
 757 192 757 192 791.5 188 c 128,-1,46
 826 184 826 184 840 186 c 0,47,0
 856 190 856 190 856 200 c 0,1,2
1033.5 197.5 m 128,-1,49
 1043 202 1043 202 1043 215 c 0,50,51
 1043 223 1043 223 1038 227 c 128,-1,52
 1033 231 1033 231 1026 232 c 0,53,54
 1018 233 1018 233 1014 238 c 128,-1,55
 1010 243 1010 243 1003 256 c 0,56,57
 1000 264 1000 264 994 275 c 0,58,59
 987 288 987 288 983.5 296.5 c 128,-1,60
 980 305 980 305 978 308 c 0,61,62
 972 321 972 321 969.5 325.5 c 128,-1,63
 967 330 967 330 966 331 c 0,64,65
 955 351 955 351 936 356 c 0,66,67
 920 360 920 360 855 360 c 0,68,69
 835 360 835 360 831 347 c 0,70,71
 830 345 830 345 830 341 c 0,72,73
 830 332 830 332 841 321 c 0,74,75
 853 309 853 309 864 278 c 0,76,77
 885 219 885 219 919 204 c 0,78,79
 934 197 934 197 948.5 195 c 128,-1,80
 963 193 963 193 988 193 c 0,81,48
 1024 193 1024 193 1033.5 197.5 c 128,-1,49
1243.5 197.5 m 128,-1,83
 1253 202 1253 202 1253 215 c 0,84,85
 1253 223 1253 223 1248 227 c 128,-1,86
 1243 231 1243 231 1236 232 c 0,87,88
 1228 233 1228 233 1224 238 c 128,-1,89
 1220 243 1220 243 1213 256 c 0,90,91
 1210 264 1210 264 1204 275 c 0,92,93
 1197 288 1197 288 1193.5 296.5 c 128,-1,94
 1190 305 1190 305 1188 308 c 0,95,96
 1182 321 1182 321 1179.5 325.5 c 128,-1,97
 1177 330 1177 330 1176 331 c 0,98,99
 1165 351 1165 351 1146 356 c 0,100,101
 1130 360 1130 360 1065 360 c 0,102,103
 1045 360 1045 360 1041 347 c 0,104,105
 1040 345 1040 345 1040 341 c 0,106,107
 1040 332 1040 332 1051 321 c 0,108,109
 1063 309 1063 309 1074 278 c 0,110,111
 1095 219 1095 219 1129 204 c 0,112,113
 1144 197 1144 197 1158.5 195 c 128,-1,114
 1173 193 1173 193 1198 193 c 0,115,82
 1234 193 1234 193 1243.5 197.5 c 128,-1,83
1371 -3 m 0,117,118
 1381 -3 1381 -3 1382 1 c 0,119,120
 1385 8 1385 8 1377.5 17.5 c 128,-1,121
 1370 27 1370 27 1357 34 c 0,122,123
 1320 53 1320 53 1258.5 72 c 128,-1,124
 1197 91 1197 91 1145 100 c 0,125,126
 1128 103 1128 103 1087 103.5 c 128,-1,127
 1046 104 1046 104 960 104 c 0,128,129
 875 104 875 104 697 102 c 0,130,131
 673 101 673 101 629 101 c 0,132,133
 483 99 483 99 386 99 c 2,134,-1
 310 99 l 2,135,136
 195 100 195 100 159.5 102 c 128,-1,137
 124 104 124 104 73 114 c 2,138,-1
 38 120 l 2,139,140
 30 120 30 120 30 113 c 0,141,142
 30 107 30 107 36.5 97.5 c 128,-1,143
 43 88 43 88 54 80 c 0,144,145
 106 39 106 39 142 31 c 0,146,147
 176 23 176 23 243 16 c 128,-1,148
 310 9 310 9 398 6 c 0,149,150
 418 5 418 5 479 5 c 0,151,152
 547 5 547 5 601 6 c 0,153,154
 668 9 668 9 777 11 c 0,155,156
 872 13 872 13 940 16 c 0,157,158
 1008 18 1008 18 1044 18 c 0,159,160
 1202 18 1202 18 1332 1 c 0,161,116
 1357 -3 1357 -3 1371 -3 c 0,117,118
EndSplineSet
EndChar

StartChar: e
Encoding: 101 101 33
Width: 1094
GlyphClass: 1
Flags: W
LayerCount: 2
Fore
SplineSet
632.5 200 m 128,-1,1
 645 202 645 202 649 207.5 c 128,-1,2
 653 213 653 213 653 223 c 0,3,4
 653 231 653 231 647.5 235.5 c 128,-1,5
 642 240 642 240 635 241 c 0,6,7
 626 242 626 242 621.5 247.5 c 128,-1,8
 617 253 617 253 610 267 c 0,9,10
 604 281 604 281 599 289 c 2,11,-1
 582 325 l 1,12,-1
 569 350 l 2,13,14
 557 372 557 372 536 378 c 0,15,16
 517 382 517 382 447 382 c 0,17,18
 424 382 424 382 420 368 c 0,19,20
 419 366 419 366 419 361 c 0,21,22
 419 351 419 351 431 339 c 0,23,24
 446 324 446 324 456 292 c 0,25,26
 481 226 481 226 517 210 c 0,27,28
 534 203 534 203 550.5 200.5 c 128,-1,29
 567 198 567 198 593 198 c 0,30,0
 620 198 620 198 632.5 200 c 128,-1,1
952.5 -75 m 128,-1,32
 1047 -44 1047 -44 1061 26 c 0,33,34
 1064 43 1064 43 1064 56 c 0,35,36
 1064 111 1064 111 1019 133 c 128,-1,37
 974 155 974 155 898 155 c 0,38,39
 852 155 852 155 827 152 c 128,-1,40
 802 149 802 149 802 140 c 256,41,42
 802 131 802 131 829 117 c 0,43,44
 894 85 894 85 894 28 c 0,45,46
 894 -15 894 -15 845 -35 c 128,-1,47
 796 -55 796 -55 715 -55 c 0,48,49
 608 -55 608 -55 482 -24 c 0,50,51
 437 -12 437 -12 381 11.5 c 128,-1,52
 325 35 325 35 287.5 60 c 128,-1,53
 250 85 250 85 254 103 c 0,54,55
 255 108 255 108 298 111 c 0,56,57
 304 111 304 111 315.5 112 c 128,-1,58
 327 113 327 113 329 115 c 0,59,60
 334 120 334 120 334 123 c 0,61,62
 334 129 334 129 328 133 c 0,63,64
 314 145 314 145 253 150.5 c 128,-1,65
 192 156 192 156 126 156 c 0,66,67
 78 156 78 156 67 154 c 0,68,69
 30 147 30 147 30 126 c 0,70,71
 30 110 30 110 49 91 c 0,72,73
 103 36 103 36 330 -45 c 0,74,75
 400 -70 400 -70 515 -87 c 128,-1,76
 630 -104 630 -104 720 -104 c 0,77,31
 858 -106 858 -106 952.5 -75 c 128,-1,32
EndSplineSet
EndChar

StartChar: f
Encoding: 102 102 34
Width: 0
GlyphClass: 1
Flags: W
LayerCount: 2
Fore
SplineSet
-699.5 -235 m 128,-1,1
 -694 -236 -694 -236 -688 -235 c 0,2,3
 -677 -233 -677 -233 -657.5 -214 c 128,-1,4
 -638 -195 -638 -195 -638 -184 c 256,5,6
 -638 -173 -638 -173 -648.5 -165.5 c 128,-1,7
 -659 -158 -659 -158 -679 -151 c 0,8,9
 -701 -142 -701 -142 -714.5 -138 c 128,-1,10
 -728 -134 -728 -134 -741 -134 c 0,11,12
 -750 -134 -750 -134 -754 -135.5 c 128,-1,13
 -758 -137 -758 -137 -763 -142 c 128,-1,14
 -768 -147 -768 -147 -773 -152 c 0,15,16
 -788 -165 -788 -165 -794 -172 c 128,-1,17
 -800 -179 -800 -179 -800 -187 c 0,18,19
 -800 -191 -800 -191 -797 -197 c 0,20,21
 -794 -201 -794 -201 -780 -208 c 128,-1,22
 -766 -215 -766 -215 -747 -221 c 2,23,-1
 -715 -231 l 2,24,0
 -705 -234 -705 -234 -699.5 -235 c 128,-1,1
-499.5 -235 m 128,-1,26
 -494 -236 -494 -236 -488 -235 c 0,27,28
 -477 -233 -477 -233 -457.5 -214 c 128,-1,29
 -438 -195 -438 -195 -438 -184 c 256,30,31
 -438 -173 -438 -173 -448.5 -165.5 c 128,-1,32
 -459 -158 -459 -158 -479 -151 c 0,33,34
 -501 -142 -501 -142 -514.5 -138 c 128,-1,35
 -528 -134 -528 -134 -541 -134 c 0,36,37
 -550 -134 -550 -134 -554 -135.5 c 128,-1,38
 -558 -137 -558 -137 -563 -142 c 128,-1,39
 -568 -147 -568 -147 -573 -152 c 0,40,41
 -588 -165 -588 -165 -594 -172 c 128,-1,42
 -600 -179 -600 -179 -600 -187 c 0,43,44
 -600 -191 -600 -191 -597 -197 c 0,45,46
 -594 -201 -594 -201 -580 -208 c 128,-1,47
 -566 -215 -566 -215 -547 -221 c 2,48,-1
 -515 -231 l 2,49,25
 -505 -234 -505 -234 -499.5 -235 c 128,-1,26
EndSplineSet
EndChar

StartChar: g
Encoding: 103 103 35
Width: 0
GlyphClass: 1
Flags: W
LayerCount: 2
Fore
SplineSet
-799.5 -235 m 128,-1,1
 -794 -236 -794 -236 -788 -235 c 0,2,3
 -777 -233 -777 -233 -757.5 -214 c 128,-1,4
 -738 -195 -738 -195 -738 -184 c 256,5,6
 -738 -173 -738 -173 -748.5 -165.5 c 128,-1,7
 -759 -158 -759 -158 -779 -151 c 0,8,9
 -801 -142 -801 -142 -814.5 -138 c 128,-1,10
 -828 -134 -828 -134 -841 -134 c 0,11,12
 -850 -134 -850 -134 -854 -135.5 c 128,-1,13
 -858 -137 -858 -137 -863 -142 c 128,-1,14
 -868 -147 -868 -147 -873 -152 c 0,15,16
 -888 -165 -888 -165 -894 -172 c 128,-1,17
 -900 -179 -900 -179 -900 -187 c 0,18,19
 -900 -191 -900 -191 -897 -197 c 0,20,21
 -894 -201 -894 -201 -880 -208 c 128,-1,22
 -866 -215 -866 -215 -847 -221 c 2,23,-1
 -815 -231 l 2,24,0
 -805 -234 -805 -234 -799.5 -235 c 128,-1,1
-599.5 -235 m 128,-1,26
 -594 -236 -594 -236 -588 -235 c 0,27,28
 -577 -233 -577 -233 -557.5 -214 c 128,-1,29
 -538 -195 -538 -195 -538 -184 c 256,30,31
 -538 -173 -538 -173 -548.5 -165.5 c 128,-1,32
 -559 -158 -559 -158 -579 -151 c 0,33,34
 -601 -142 -601 -142 -614.5 -138 c 128,-1,35
 -628 -134 -628 -134 -641 -134 c 0,36,37
 -650 -134 -650 -134 -654 -135.5 c 128,-1,38
 -658 -137 -658 -137 -663 -142 c 128,-1,39
 -668 -147 -668 -147 -673 -152 c 0,40,41
 -688 -165 -688 -165 -694 -172 c 128,-1,42
 -700 -179 -700 -179 -700 -187 c 0,43,44
 -700 -191 -700 -191 -697 -197 c 0,45,46
 -694 -201 -694 -201 -680 -208 c 128,-1,47
 -666 -215 -666 -215 -647 -221 c 2,48,-1
 -615 -231 l 2,49,25
 -605 -234 -605 -234 -599.5 -235 c 128,-1,26
-399.5 -235 m 128,-1,51
 -394 -236 -394 -236 -388 -235 c 0,52,53
 -377 -233 -377 -233 -357.5 -214 c 128,-1,54
 -338 -195 -338 -195 -338 -184 c 256,55,56
 -338 -173 -338 -173 -348.5 -165.5 c 128,-1,57
 -359 -158 -359 -158 -379 -151 c 0,58,59
 -401 -142 -401 -142 -414.5 -138 c 128,-1,60
 -428 -134 -428 -134 -441 -134 c 0,61,62
 -450 -134 -450 -134 -454 -135.5 c 128,-1,63
 -458 -137 -458 -137 -463 -142 c 128,-1,64
 -468 -147 -468 -147 -473 -152 c 0,65,66
 -488 -165 -488 -165 -494 -172 c 128,-1,67
 -500 -179 -500 -179 -500 -187 c 0,68,69
 -500 -191 -500 -191 -497 -197 c 0,70,71
 -494 -201 -494 -201 -480 -208 c 128,-1,72
 -466 -215 -466 -215 -447 -221 c 2,73,-1
 -415 -231 l 2,74,50
 -405 -234 -405 -234 -399.5 -235 c 128,-1,51
EndSplineSet
EndChar

StartChar: h
Encoding: 104 104 36
Width: 0
GlyphClass: 1
Flags: W
LayerCount: 2
Fore
SplineSet
-909.5 -235 m 128,-1,1
 -904 -236 -904 -236 -898 -235 c 0,2,3
 -887 -233 -887 -233 -867.5 -214 c 128,-1,4
 -848 -195 -848 -195 -848 -184 c 256,5,6
 -848 -173 -848 -173 -858.5 -165.5 c 128,-1,7
 -869 -158 -869 -158 -889 -151 c 0,8,9
 -911 -142 -911 -142 -924.5 -138 c 128,-1,10
 -938 -134 -938 -134 -951 -134 c 0,11,12
 -960 -134 -960 -134 -964 -135.5 c 128,-1,13
 -968 -137 -968 -137 -973 -142 c 128,-1,14
 -978 -147 -978 -147 -983 -152 c 0,15,16
 -998 -165 -998 -165 -1004 -172 c 128,-1,17
 -1010 -179 -1010 -179 -1010 -187 c 0,18,19
 -1010 -191 -1010 -191 -1007 -197 c 0,20,21
 -1004 -201 -1004 -201 -990 -208 c 128,-1,22
 -976 -215 -976 -215 -957 -221 c 2,23,-1
 -925 -231 l 2,24,0
 -915 -234 -915 -234 -909.5 -235 c 128,-1,1
-709.5 -235 m 128,-1,26
 -704 -236 -704 -236 -698 -235 c 0,27,28
 -687 -233 -687 -233 -667.5 -214 c 128,-1,29
 -648 -195 -648 -195 -648 -184 c 256,30,31
 -648 -173 -648 -173 -658.5 -165.5 c 128,-1,32
 -669 -158 -669 -158 -689 -151 c 0,33,34
 -711 -142 -711 -142 -724.5 -138 c 128,-1,35
 -738 -134 -738 -134 -751 -134 c 0,36,37
 -760 -134 -760 -134 -764 -135.5 c 128,-1,38
 -768 -137 -768 -137 -773 -142 c 128,-1,39
 -778 -147 -778 -147 -783 -152 c 0,40,41
 -798 -165 -798 -165 -804 -172 c 128,-1,42
 -810 -179 -810 -179 -810 -187 c 0,43,44
 -810 -191 -810 -191 -807 -197 c 0,45,46
 -804 -201 -804 -201 -790 -208 c 128,-1,47
 -776 -215 -776 -215 -757 -221 c 2,48,-1
 -725 -231 l 2,49,25
 -715 -234 -715 -234 -709.5 -235 c 128,-1,26
-509.5 -235 m 128,-1,51
 -504 -236 -504 -236 -498 -235 c 0,52,53
 -487 -233 -487 -233 -467.5 -214 c 128,-1,54
 -448 -195 -448 -195 -448 -184 c 256,55,56
 -448 -173 -448 -173 -458.5 -165.5 c 128,-1,57
 -469 -158 -469 -158 -489 -151 c 0,58,59
 -511 -142 -511 -142 -524.5 -138 c 128,-1,60
 -538 -134 -538 -134 -551 -134 c 0,61,62
 -560 -134 -560 -134 -564 -135.5 c 128,-1,63
 -568 -137 -568 -137 -573 -142 c 128,-1,64
 -578 -147 -578 -147 -583 -152 c 0,65,66
 -598 -165 -598 -165 -604 -172 c 128,-1,67
 -610 -179 -610 -179 -610 -187 c 0,68,69
 -610 -191 -610 -191 -607 -197 c 0,70,71
 -604 -201 -604 -201 -590 -208 c 128,-1,72
 -576 -215 -576 -215 -557 -221 c 2,73,-1
 -525 -231 l 2,74,50
 -515 -234 -515 -234 -509.5 -235 c 128,-1,51
-309.5 -235 m 128,-1,76
 -304 -236 -304 -236 -298 -235 c 0,77,78
 -287 -233 -287 -233 -267.5 -214 c 128,-1,79
 -248 -195 -248 -195 -248 -184 c 256,80,81
 -248 -173 -248 -173 -258.5 -165.5 c 128,-1,82
 -269 -158 -269 -158 -289 -151 c 0,83,84
 -311 -142 -311 -142 -324.5 -138 c 128,-1,85
 -338 -134 -338 -134 -351 -134 c 0,86,87
 -360 -134 -360 -134 -364 -135.5 c 128,-1,88
 -368 -137 -368 -137 -373 -142 c 128,-1,89
 -378 -147 -378 -147 -383 -152 c 0,90,91
 -398 -165 -398 -165 -404 -172 c 128,-1,92
 -410 -179 -410 -179 -410 -187 c 0,93,94
 -410 -191 -410 -191 -407 -197 c 0,95,96
 -404 -201 -404 -201 -390 -208 c 128,-1,97
 -376 -215 -376 -215 -357 -221 c 2,98,-1
 -325 -231 l 2,99,75
 -315 -234 -315 -234 -309.5 -235 c 128,-1,76
EndSplineSet
EndChar

StartChar: i
Encoding: 105 105 37
Width: 1132
GlyphClass: 1
Flags: W
LayerCount: 2
Fore
SplineSet
344 227 m 0,1,2
 340 236 340 236 303 255.5 c 128,-1,3
 266 275 266 275 238 285 c 0,4,5
 225 289 225 289 225 292 c 0,6,7
 225 294 225 294 233.5 297.5 c 128,-1,8
 242 301 242 301 245 302 c 0,9,10
 269 309 269 309 302 324 c 0,11,12
 412 372 412 372 471.5 426 c 128,-1,13
 531 480 531 480 570 575 c 0,14,15
 589 619 589 619 620 676 c 0,16,17
 622 680 622 680 627 685.5 c 128,-1,18
 632 691 632 691 632 694 c 0,19,20
 632 704 632 704 613.5 709.5 c 128,-1,21
 595 715 595 715 574 716 c 0,22,23
 558 717 558 717 547 716 c 128,-1,24
 536 715 536 715 523 712 c 0,25,26
 503 708 503 708 488.5 693 c 128,-1,27
 474 678 474 678 464 657 c 128,-1,28
 454 636 454 636 436 591 c 0,29,30
 427 567 427 567 417 548.5 c 128,-1,31
 407 530 407 530 389 502 c 0,32,33
 343 435 343 435 301 402 c 128,-1,34
 259 369 259 369 182 338 c 0,35,36
 169 333 169 333 121 318 c 0,37,38
 106 313 106 313 66.5 300 c 128,-1,39
 27 287 27 287 30 285 c 0,40,41
 37 281 37 281 86 276 c 2,42,-1
 138 269 l 2,43,44
 185 261 185 261 254 247.5 c 128,-1,45
 323 234 323 234 334 229 c 0,46,0
 345 225 345 225 344 227 c 0,1,2
1094 217 m 0,48,49
 1090 226 1090 226 1053 245.5 c 128,-1,50
 1016 265 1016 265 988 275 c 0,51,52
 975 279 975 279 975 282 c 0,53,54
 975 284 975 284 983.5 287.5 c 128,-1,55
 992 291 992 291 995 292 c 0,56,57
 1019 299 1019 299 1052 314 c 0,58,59
 1162 362 1162 362 1221.5 416 c 128,-1,60
 1281 470 1281 470 1320 565 c 0,61,62
 1339 609 1339 609 1370 666 c 0,63,64
 1372 670 1372 670 1377 675.5 c 128,-1,65
 1382 681 1382 681 1382 684 c 0,66,67
 1382 694 1382 694 1363.5 699.5 c 128,-1,68
 1345 705 1345 705 1324 706 c 0,69,70
 1308 707 1308 707 1297 706 c 128,-1,71
 1286 705 1286 705 1273 702 c 0,72,73
 1253 698 1253 698 1238.5 683 c 128,-1,74
 1224 668 1224 668 1214 647 c 128,-1,75
 1204 626 1204 626 1186 581 c 0,76,77
 1177 557 1177 557 1167 538.5 c 128,-1,78
 1157 520 1157 520 1139 492 c 0,79,80
 1093 425 1093 425 1051 392 c 128,-1,81
 1009 359 1009 359 932 328 c 0,82,83
 919 323 919 323 871 308 c 0,84,85
 856 303 856 303 816.5 290 c 128,-1,86
 777 277 777 277 780 275 c 0,87,88
 787 271 787 271 836 266 c 2,89,-1
 888 259 l 2,90,91
 935 251 935 251 1004 237.5 c 128,-1,92
 1073 224 1073 224 1084 219 c 0,93,47
 1095 215 1095 215 1094 217 c 0,48,49
952.5 -75 m 128,-1,95
 1047 -44 1047 -44 1061 26 c 0,96,97
 1064 43 1064 43 1064 56 c 0,98,99
 1064 111 1064 111 1019 133 c 128,-1,100
 974 155 974 155 898 155 c 0,101,102
 852 155 852 155 827 152 c 128,-1,103
 802 149 802 149 802 140 c 256,104,105
 802 131 802 131 829 117 c 0,106,107
 894 85 894 85 894 28 c 0,108,109
 894 -15 894 -15 845 -35 c 128,-1,110
 796 -55 796 -55 715 -55 c 0,111,112
 608 -55 608 -55 482 -24 c 0,113,114
 437 -12 437 -12 381 11.5 c 128,-1,115
 325 35 325 35 287.5 60 c 128,-1,116
 250 85 250 85 254 103 c 0,117,118
 255 108 255 108 298 111 c 0,119,120
 304 111 304 111 315.5 112 c 128,-1,121
 327 113 327 113 329 115 c 0,122,123
 334 120 334 120 334 123 c 0,124,125
 334 129 334 129 328 133 c 0,126,127
 314 145 314 145 253 150.5 c 128,-1,128
 192 156 192 156 126 156 c 0,129,130
 78 156 78 156 67 154 c 0,131,132
 30 147 30 147 30 126 c 0,133,134
 30 110 30 110 49 91 c 0,135,136
 103 36 103 36 330 -45 c 0,137,138
 400 -70 400 -70 515 -87 c 128,-1,139
 630 -104 630 -104 720 -104 c 0,140,94
 858 -106 858 -106 952.5 -75 c 128,-1,95
EndSplineSet
EndChar

StartChar: j
Encoding: 106 106 38
Width: 0
GlyphClass: 1
Flags: W
LayerCount: 2
Fore
SplineSet
-56.5 -310 m 128,-1,1
 -43 -296 -43 -296 -43 -276 c 0,2,3
 -43 -263 -43 -263 -49 -251 c 0,4,5
 -61 -228 -61 -228 -88 -211.5 c 128,-1,6
 -115 -195 -115 -195 -159 -178 c 0,7,8
 -288 -125 -288 -125 -612 -125 c 0,9,10
 -713 -125 -713 -125 -873 -131 c 0,11,12
 -966 -135 -966 -135 -1021.5 -139 c 128,-1,13
 -1077 -143 -1077 -143 -1092 -147 c 128,-1,14
 -1107 -151 -1107 -151 -1121 -160 c 0,15,16
 -1126 -163 -1126 -163 -1126 -168 c 0,17,18
 -1126 -171 -1126 -171 -1124.5 -173.5 c 128,-1,19
 -1123 -176 -1123 -176 -1121 -176 c 2,20,-1
 -1096 -175 l 2,21,22
 -745 -162 -745 -162 -606 -162 c 0,23,24
 -505 -162 -505 -162 -443.5 -167 c 128,-1,25
 -382 -172 -382 -172 -308 -188 c 0,26,27
 -224 -207 -224 -207 -224 -240 c 0,28,29
 -224 -251 -224 -251 -234 -271 c 0,30,31
 -242 -287 -242 -287 -242 -294 c 0,32,33
 -242 -302 -242 -302 -184.5 -313 c 128,-1,34
 -127 -324 -127 -324 -95 -324 c 0,35,0
 -70 -324 -70 -324 -56.5 -310 c 128,-1,1
EndSplineSet
EndChar

StartChar: k
Encoding: 107 107 39
Width: 0
GlyphClass: 1
Flags: W
LayerCount: 2
Fore
SplineSet
-56.5 -310 m 128,-1,1
 -43 -296 -43 -296 -43 -276 c 0,2,3
 -43 -263 -43 -263 -49 -251 c 0,4,5
 -61 -228 -61 -228 -88 -211.5 c 128,-1,6
 -115 -195 -115 -195 -159 -178 c 0,7,8
 -288 -125 -288 -125 -612 -125 c 0,9,10
 -713 -125 -713 -125 -873 -131 c 0,11,12
 -966 -135 -966 -135 -1021.5 -139 c 128,-1,13
 -1077 -143 -1077 -143 -1092 -147 c 128,-1,14
 -1107 -151 -1107 -151 -1121 -160 c 0,15,16
 -1126 -163 -1126 -163 -1126 -168 c 0,17,18
 -1126 -171 -1126 -171 -1124.5 -173.5 c 128,-1,19
 -1123 -176 -1123 -176 -1121 -176 c 2,20,-1
 -1096 -175 l 2,21,22
 -745 -162 -745 -162 -606 -162 c 0,23,24
 -505 -162 -505 -162 -443.5 -167 c 128,-1,25
 -382 -172 -382 -172 -308 -188 c 0,26,27
 -224 -207 -224 -207 -224 -240 c 0,28,29
 -224 -251 -224 -251 -234 -271 c 0,30,31
 -242 -287 -242 -287 -242 -294 c 0,32,33
 -242 -302 -242 -302 -184.5 -313 c 128,-1,34
 -127 -324 -127 -324 -95 -324 c 0,35,0
 -70 -324 -70 -324 -56.5 -310 c 128,-1,1
-579.5 -292.5 m 128,-1,37
 -575 -293 -575 -293 -570 -292 c 0,38,39
 -561 -290 -561 -290 -545.5 -275.5 c 128,-1,40
 -530 -261 -530 -261 -530 -252 c 256,41,42
 -530 -243 -530 -243 -537.5 -238 c 128,-1,43
 -545 -233 -545 -233 -563 -225 c 256,44,45
 -581 -217 -581 -217 -591.5 -214 c 128,-1,46
 -602 -211 -602 -211 -613 -211 c 0,47,48
 -621 -211 -621 -211 -624 -212.5 c 128,-1,49
 -627 -214 -627 -214 -631 -218.5 c 128,-1,50
 -635 -223 -635 -223 -638 -226 c 0,51,52
 -647 -233 -647 -233 -654 -240 c 128,-1,53
 -661 -247 -661 -247 -661 -254 c 0,54,55
 -661 -258 -661 -258 -658 -262 c 0,56,57
 -650 -270 -650 -270 -618 -281 c 2,58,-1
 -592 -289 l 2,59,36
 -584 -292 -584 -292 -579.5 -292.5 c 128,-1,37
EndSplineSet
EndChar

StartChar: l
Encoding: 108 108 40
Width: 0
GlyphClass: 1
Flags: W
LayerCount: 2
Fore
SplineSet
151 -396 m 2,0,1
 181 -396 181 -396 197.5 -383 c 128,-1,2
 214 -370 214 -370 214 -349 c 0,3,4
 214 -325 214 -325 191 -299 c 0,5,6
 170 -276 170 -276 132 -256.5 c 128,-1,7
 94 -237 94 -237 54 -227 c 0,8,9
 -23 -208 -23 -208 -91.5 -200.5 c 128,-1,10
 -160 -193 -160 -193 -240 -193 c 0,11,12
 -288 -193 -288 -193 -444 -199 c 0,13,14
 -473 -200 -473 -200 -519 -202 c 128,-1,15
 -565 -204 -565 -204 -631 -206 c 0,16,17
 -666 -208 -666 -208 -685.5 -212.5 c 128,-1,18
 -705 -217 -705 -217 -717 -225 c 0,19,20
 -724 -230 -724 -230 -725 -232.5 c 128,-1,21
 -726 -235 -726 -235 -724 -238 c 2,22,-1
 -719 -244 l 2,23,24
 -717 -246 -717 -246 -685 -244 c 0,25,26
 -674 -243 -674 -243 -654 -243 c 2,27,-1
 -286 -231 l 2,28,29
 -178 -231 -178 -231 -78.5 -243.5 c 128,-1,30
 21 -256 21 -256 40 -282 c 0,31,32
 52 -298 52 -298 52 -315 c 0,33,34
 52 -327 52 -327 46 -343.5 c 128,-1,35
 40 -360 40 -360 40 -364 c 0,36,37
 40 -372 40 -372 76 -382 c 128,-1,38
 112 -392 112 -392 138 -395 c 2,39,-1
 151 -396 l 2,0,1
-179.5 -362.5 m 128,-1,41
 -175 -363 -175 -363 -170 -362 c 0,42,43
 -161 -360 -161 -360 -145.5 -345.5 c 128,-1,44
 -130 -331 -130 -331 -130 -322 c 256,45,46
 -130 -313 -130 -313 -137.5 -308 c 128,-1,47
 -145 -303 -145 -303 -163 -295 c 256,48,49
 -181 -287 -181 -287 -191.5 -284 c 128,-1,50
 -202 -281 -202 -281 -213 -281 c 0,51,52
 -221 -281 -221 -281 -224 -282.5 c 128,-1,53
 -227 -284 -227 -284 -231 -288.5 c 128,-1,54
 -235 -293 -235 -293 -238 -296 c 0,55,56
 -247 -303 -247 -303 -254 -310 c 128,-1,57
 -261 -317 -261 -317 -261 -324 c 0,58,59
 -261 -328 -261 -328 -258 -332 c 0,60,61
 -250 -340 -250 -340 -218 -351 c 2,62,-1
 -192 -359 l 2,63,40
 -184 -362 -184 -362 -179.5 -362.5 c 128,-1,41
EndSplineSet
EndChar

StartChar: n
Encoding: 110 110 42
Width: 0
GlyphClass: 1
Flags: W
LayerCount: 2
Fore
SplineSet
-18 -125 m 128,-1,1
 14 -132 14 -132 14 -139 c 0,2,3
 14 -145 14 -145 -3 -152 c 128,-1,4
 -20 -159 -20 -159 -44 -166.5 c 128,-1,5
 -68 -174 -68 -174 -76 -176 c 0,6,7
 -98 -182 -98 -182 -100 -183 c 0,8,9
 -160 -204 -160 -204 -303 -256 c 128,-1,10
 -446 -308 -446 -308 -445 -309 c 1,11,12
 -588 -286 -588 -286 -707.5 -260.5 c 128,-1,13
 -827 -235 -827 -235 -1011 -188 c 0,14,15
 -1090 -169 -1090 -169 -1110 -162.5 c 128,-1,16
 -1130 -156 -1130 -156 -1144 -145 c 256,17,18
 -1158 -134 -1158 -134 -1158 -123 c 256,19,20
 -1158 -112 -1158 -112 -1145 -112 c 0,21,22
 -1126 -112 -1126 -112 -803 -188 c 0,23,24
 -713 -211 -713 -211 -587 -236 c 1,25,-1
 -573 -233 l 2,26,27
 -548 -228 -548 -228 -510.5 -212.5 c 128,-1,28
 -473 -197 -473 -197 -402 -165 c 0,29,30
 -335 -135 -335 -135 -321 -129 c 0,31,32
 -280 -113 -280 -113 -259 -105 c 128,-1,33
 -238 -97 -238 -97 -225 -95 c 0,34,35
 -207 -93 -207 -93 -201 -93 c 0,36,37
 -184 -93 -184 -93 -152 -100 c 2,38,-1
 -103 -109 l 2,39,0
 -50 -118 -50 -118 -18 -125 c 128,-1,1
-445 -309 m 1024,40,-1
EndSplineSet
EndChar

StartChar: o
Encoding: 111 111 43
Width: 1132
GlyphClass: 1
Flags: W
LayerCount: 2
Fore
SplineSet
674 427 m 0,1,2
 670 436 670 436 633 455.5 c 128,-1,3
 596 475 596 475 568 485 c 0,4,5
 555 489 555 489 555 492 c 0,6,7
 555 494 555 494 563.5 497.5 c 128,-1,8
 572 501 572 501 575 502 c 0,9,10
 599 509 599 509 632 524 c 0,11,12
 742 572 742 572 801.5 626 c 128,-1,13
 861 680 861 680 900 775 c 0,14,15
 919 819 919 819 950 876 c 0,16,17
 952 880 952 880 957 885.5 c 128,-1,18
 962 891 962 891 962 894 c 0,19,20
 962 904 962 904 943.5 909.5 c 128,-1,21
 925 915 925 915 904 916 c 0,22,23
 888 917 888 917 877 916 c 128,-1,24
 866 915 866 915 853 912 c 0,25,26
 833 908 833 908 818.5 893 c 128,-1,27
 804 878 804 878 794 857 c 128,-1,28
 784 836 784 836 766 791 c 0,29,30
 757 767 757 767 747 748.5 c 128,-1,31
 737 730 737 730 719 702 c 0,32,33
 673 635 673 635 631 602 c 128,-1,34
 589 569 589 569 512 538 c 0,35,36
 499 533 499 533 451 518 c 0,37,38
 436 513 436 513 396.5 500 c 128,-1,39
 357 487 357 487 360 485 c 0,40,41
 367 481 367 481 416 476 c 2,42,-1
 468 469 l 2,43,44
 515 461 515 461 584 447.5 c 128,-1,45
 653 434 653 434 664 429 c 0,46,0
 675 425 675 425 674 427 c 0,1,2
1094 217 m 0,48,49
 1090 226 1090 226 1053 245.5 c 128,-1,50
 1016 265 1016 265 988 275 c 0,51,52
 975 279 975 279 975 282 c 0,53,54
 975 284 975 284 983.5 287.5 c 128,-1,55
 992 291 992 291 995 292 c 0,56,57
 1019 299 1019 299 1052 314 c 0,58,59
 1162 362 1162 362 1221.5 416 c 128,-1,60
 1281 470 1281 470 1320 565 c 0,61,62
 1339 609 1339 609 1370 666 c 0,63,64
 1372 670 1372 670 1377 675.5 c 128,-1,65
 1382 681 1382 681 1382 684 c 0,66,67
 1382 694 1382 694 1363.5 699.5 c 128,-1,68
 1345 705 1345 705 1324 706 c 0,69,70
 1308 707 1308 707 1297 706 c 128,-1,71
 1286 705 1286 705 1273 702 c 0,72,73
 1253 698 1253 698 1238.5 683 c 128,-1,74
 1224 668 1224 668 1214 647 c 128,-1,75
 1204 626 1204 626 1186 581 c 0,76,77
 1177 557 1177 557 1167 538.5 c 128,-1,78
 1157 520 1157 520 1139 492 c 0,79,80
 1093 425 1093 425 1051 392 c 128,-1,81
 1009 359 1009 359 932 328 c 0,82,83
 919 323 919 323 871 308 c 0,84,85
 856 303 856 303 816.5 290 c 128,-1,86
 777 277 777 277 780 275 c 0,87,88
 787 271 787 271 836 266 c 2,89,-1
 888 259 l 2,90,91
 935 251 935 251 1004 237.5 c 128,-1,92
 1073 224 1073 224 1084 219 c 0,93,47
 1095 215 1095 215 1094 217 c 0,48,49
632.5 200 m 128,-1,95
 645 202 645 202 649 207.5 c 128,-1,96
 653 213 653 213 653 223 c 0,97,98
 653 231 653 231 647.5 235.5 c 128,-1,99
 642 240 642 240 635 241 c 0,100,101
 626 242 626 242 621.5 247.5 c 128,-1,102
 617 253 617 253 610 267 c 0,103,104
 604 281 604 281 599 289 c 2,105,-1
 582 325 l 1,106,-1
 569 350 l 2,107,108
 557 372 557 372 536 378 c 0,109,110
 517 382 517 382 447 382 c 0,111,112
 424 382 424 382 420 368 c 0,113,114
 419 366 419 366 419 361 c 0,115,116
 419 351 419 351 431 339 c 0,117,118
 446 324 446 324 456 292 c 0,119,120
 481 226 481 226 517 210 c 0,121,122
 534 203 534 203 550.5 200.5 c 128,-1,123
 567 198 567 198 593 198 c 0,124,94
 620 198 620 198 632.5 200 c 128,-1,95
952.5 -75 m 128,-1,126
 1047 -44 1047 -44 1061 26 c 0,127,128
 1064 43 1064 43 1064 56 c 0,129,130
 1064 111 1064 111 1019 133 c 128,-1,131
 974 155 974 155 898 155 c 0,132,133
 852 155 852 155 827 152 c 128,-1,134
 802 149 802 149 802 140 c 256,135,136
 802 131 802 131 829 117 c 0,137,138
 894 85 894 85 894 28 c 0,139,140
 894 -15 894 -15 845 -35 c 128,-1,141
 796 -55 796 -55 715 -55 c 0,142,143
 608 -55 608 -55 482 -24 c 0,144,145
 437 -12 437 -12 381 11.5 c 128,-1,146
 325 35 325 35 287.5 60 c 128,-1,147
 250 85 250 85 254 103 c 0,148,149
 255 108 255 108 298 111 c 0,150,151
 304 111 304 111 315.5 112 c 128,-1,152
 327 113 327 113 329 115 c 0,153,154
 334 120 334 120 334 123 c 0,155,156
 334 129 334 129 328 133 c 0,157,158
 314 145 314 145 253 150.5 c 128,-1,159
 192 156 192 156 126 156 c 0,160,161
 78 156 78 156 67 154 c 0,162,163
 30 147 30 147 30 126 c 0,164,165
 30 110 30 110 49 91 c 0,166,167
 103 36 103 36 330 -45 c 0,168,169
 400 -70 400 -70 515 -87 c 128,-1,170
 630 -104 630 -104 720 -104 c 0,171,125
 858 -106 858 -106 952.5 -75 c 128,-1,126
EndSplineSet
EndChar

StartChar: p
Encoding: 112 112 44
Width: 1189
GlyphClass: 1
Flags: W
LayerCount: 2
Fore
SplineSet
1148 240 m 0,1,2
 1153 240 1153 240 1155 241 c 128,-1,3
 1157 242 1157 242 1159 245 c 0,4,5
 1162 254 1162 254 1139.5 272 c 128,-1,6
 1117 290 1117 290 1077 309 c 0,7,8
 1022 335 1022 335 965.5 346 c 128,-1,9
 909 357 909 357 836 357 c 0,10,11
 780 357 780 357 709.5 351.5 c 128,-1,12
 639 346 639 346 522 335 c 0,13,14
 398 323 398 323 356 323 c 0,15,16
 322 323 322 323 279 331 c 0,17,18
 240 339 240 339 218 351 c 128,-1,19
 196 363 196 363 196 375 c 0,20,21
 196 385 196 385 215.5 391.5 c 128,-1,22
 235 398 235 398 272 397 c 2,23,-1
 336 394 l 1,24,-1
 368 392 l 2,25,26
 385 392 385 392 390 400 c 256,27,28
 395 408 395 408 369 425 c 128,-1,29
 343 442 343 442 313 455 c 0,30,31
 276 473 276 473 243 479 c 128,-1,32
 210 485 210 485 152 486 c 0,33,34
 104 486 104 486 78 482 c 128,-1,35
 52 478 52 478 41.5 468 c 128,-1,36
 31 458 31 458 31 439 c 0,37,38
 31 411 31 411 71 377 c 128,-1,39
 111 343 111 343 181 311 c 0,40,41
 236 286 236 286 293 274.5 c 128,-1,42
 350 263 350 263 410 260 c 128,-1,43
 470 257 470 257 572 257 c 0,44,45
 678 257 678 257 831 260 c 0,46,47
 853 261 853 261 894 261 c 0,48,49
 983 261 983 261 1103 244 c 0,50,0
 1136 240 1136 240 1148 240 c 0,1,2
1023.5 -75 m 128,-1,52
 1118 -44 1118 -44 1132 26 c 0,53,54
 1135 43 1135 43 1135 56 c 0,55,56
 1135 111 1135 111 1090 133 c 128,-1,57
 1045 155 1045 155 969 155 c 0,58,59
 923 155 923 155 898 152 c 128,-1,60
 873 149 873 149 873 140 c 256,61,62
 873 131 873 131 900 117 c 0,63,64
 965 85 965 85 965 28 c 0,65,66
 965 -15 965 -15 916 -35 c 128,-1,67
 867 -55 867 -55 786 -55 c 0,68,69
 679 -55 679 -55 553 -24 c 0,70,71
 508 -12 508 -12 452 11.5 c 128,-1,72
 396 35 396 35 358.5 60 c 128,-1,73
 321 85 321 85 325 103 c 0,74,75
 326 108 326 108 369 111 c 0,76,77
 375 111 375 111 386.5 112 c 128,-1,78
 398 113 398 113 400 115 c 0,79,80
 405 120 405 120 405 123 c 0,81,82
 405 129 405 129 399 133 c 0,83,84
 385 145 385 145 324 150.5 c 128,-1,85
 263 156 263 156 197 156 c 0,86,87
 149 156 149 156 138 154 c 0,88,89
 101 147 101 147 101 126 c 0,90,91
 101 110 101 110 120 91 c 0,92,93
 174 36 174 36 401 -45 c 0,94,95
 471 -70 471 -70 586 -87 c 128,-1,96
 701 -104 701 -104 791 -104 c 0,97,51
 929 -106 929 -106 1023.5 -75 c 128,-1,52
EndSplineSet
EndChar

StartChar: q
Encoding: 113 113 45
Width: 1094
GlyphClass: 1
Flags: W
LayerCount: 2
Fore
SplineSet
952.5 -75 m 128,-1,1
 1047 -44 1047 -44 1061 26 c 0,2,3
 1064 43 1064 43 1064 56 c 0,4,5
 1064 111 1064 111 1019 133 c 128,-1,6
 974 155 974 155 898 155 c 0,7,8
 852 155 852 155 827 152 c 128,-1,9
 802 149 802 149 802 140 c 256,10,11
 802 131 802 131 829 117 c 0,12,13
 894 85 894 85 894 28 c 0,14,15
 894 -15 894 -15 845 -35 c 128,-1,16
 796 -55 796 -55 715 -55 c 0,17,18
 608 -55 608 -55 482 -24 c 0,19,20
 437 -12 437 -12 381 11.5 c 128,-1,21
 325 35 325 35 287.5 60 c 128,-1,22
 250 85 250 85 254 103 c 0,23,24
 255 108 255 108 298 111 c 0,25,26
 304 111 304 111 315.5 112 c 128,-1,27
 327 113 327 113 329 115 c 0,28,29
 334 120 334 120 334 123 c 0,30,31
 334 129 334 129 328 133 c 0,32,33
 314 145 314 145 253 150.5 c 128,-1,34
 192 156 192 156 126 156 c 0,35,36
 78 156 78 156 67 154 c 0,37,38
 30 147 30 147 30 126 c 0,39,40
 30 110 30 110 49 91 c 0,41,42
 103 36 103 36 330 -45 c 0,43,44
 400 -70 400 -70 515 -87 c 128,-1,45
 630 -104 630 -104 720 -104 c 0,46,0
 858 -106 858 -106 952.5 -75 c 128,-1,1
EndSplineSet
EndChar

StartChar: r
Encoding: 114 114 46
Width: 1132
GlyphClass: 1
Flags: W
LayerCount: 2
Fore
SplineSet
1094 217 m 0,1,2
 1090 226 1090 226 1053 245.5 c 128,-1,3
 1016 265 1016 265 988 275 c 0,4,5
 975 279 975 279 975 282 c 0,6,7
 975 284 975 284 983.5 287.5 c 128,-1,8
 992 291 992 291 995 292 c 0,9,10
 1019 299 1019 299 1052 314 c 0,11,12
 1162 362 1162 362 1221.5 416 c 128,-1,13
 1281 470 1281 470 1320 565 c 0,14,15
 1339 609 1339 609 1370 666 c 0,16,17
 1372 670 1372 670 1377 675.5 c 128,-1,18
 1382 681 1382 681 1382 684 c 0,19,20
 1382 694 1382 694 1363.5 699.5 c 128,-1,21
 1345 705 1345 705 1324 706 c 0,22,23
 1308 707 1308 707 1297 706 c 128,-1,24
 1286 705 1286 705 1273 702 c 0,25,26
 1253 698 1253 698 1238.5 683 c 128,-1,27
 1224 668 1224 668 1214 647 c 128,-1,28
 1204 626 1204 626 1186 581 c 0,29,30
 1177 557 1177 557 1167 538.5 c 128,-1,31
 1157 520 1157 520 1139 492 c 0,32,33
 1093 425 1093 425 1051 392 c 128,-1,34
 1009 359 1009 359 932 328 c 0,35,36
 919 323 919 323 871 308 c 0,37,38
 856 303 856 303 816.5 290 c 128,-1,39
 777 277 777 277 780 275 c 0,40,41
 787 271 787 271 836 266 c 2,42,-1
 888 259 l 2,43,44
 935 251 935 251 1004 237.5 c 128,-1,45
 1073 224 1073 224 1084 219 c 0,46,0
 1095 215 1095 215 1094 217 c 0,1,2
952.5 -75 m 128,-1,48
 1047 -44 1047 -44 1061 26 c 0,49,50
 1064 43 1064 43 1064 56 c 0,51,52
 1064 111 1064 111 1019 133 c 128,-1,53
 974 155 974 155 898 155 c 0,54,55
 852 155 852 155 827 152 c 128,-1,56
 802 149 802 149 802 140 c 256,57,58
 802 131 802 131 829 117 c 0,59,60
 894 85 894 85 894 28 c 0,61,62
 894 -15 894 -15 845 -35 c 128,-1,63
 796 -55 796 -55 715 -55 c 0,64,65
 608 -55 608 -55 482 -24 c 0,66,67
 437 -12 437 -12 381 11.5 c 128,-1,68
 325 35 325 35 287.5 60 c 128,-1,69
 250 85 250 85 254 103 c 0,70,71
 255 108 255 108 298 111 c 0,72,73
 304 111 304 111 315.5 112 c 128,-1,74
 327 113 327 113 329 115 c 0,75,76
 334 120 334 120 334 123 c 0,77,78
 334 129 334 129 328 133 c 0,79,80
 314 145 314 145 253 150.5 c 128,-1,81
 192 156 192 156 126 156 c 0,82,83
 78 156 78 156 67 154 c 0,84,85
 30 147 30 147 30 126 c 0,86,87
 30 110 30 110 49 91 c 0,88,89
 103 36 103 36 330 -45 c 0,90,91
 400 -70 400 -70 515 -87 c 128,-1,92
 630 -104 630 -104 720 -104 c 0,93,47
 858 -106 858 -106 952.5 -75 c 128,-1,48
EndSplineSet
EndChar

StartChar: t
Encoding: 116 116 48
Width: 1094
GlyphClass: 1
Flags: W
LayerCount: 2
Fore
SplineSet
344 227 m 0,1,2
 340 236 340 236 303 255.5 c 128,-1,3
 266 275 266 275 238 285 c 0,4,5
 225 289 225 289 225 292 c 0,6,7
 225 294 225 294 233.5 297.5 c 128,-1,8
 242 301 242 301 245 302 c 0,9,10
 269 309 269 309 302 324 c 0,11,12
 412 372 412 372 471.5 426 c 128,-1,13
 531 480 531 480 570 575 c 0,14,15
 589 619 589 619 620 676 c 0,16,17
 622 680 622 680 627 685.5 c 128,-1,18
 632 691 632 691 632 694 c 0,19,20
 632 704 632 704 613.5 709.5 c 128,-1,21
 595 715 595 715 574 716 c 0,22,23
 558 717 558 717 547 716 c 128,-1,24
 536 715 536 715 523 712 c 0,25,26
 503 708 503 708 488.5 693 c 128,-1,27
 474 678 474 678 464 657 c 128,-1,28
 454 636 454 636 436 591 c 0,29,30
 427 567 427 567 417 548.5 c 128,-1,31
 407 530 407 530 389 502 c 0,32,33
 343 435 343 435 301 402 c 128,-1,34
 259 369 259 369 182 338 c 0,35,36
 169 333 169 333 121 318 c 0,37,38
 106 313 106 313 66.5 300 c 128,-1,39
 27 287 27 287 30 285 c 0,40,41
 37 281 37 281 86 276 c 2,42,-1
 138 269 l 2,43,44
 185 261 185 261 254 247.5 c 128,-1,45
 323 234 323 234 334 229 c 0,46,0
 345 225 345 225 344 227 c 0,1,2
952.5 -75 m 128,-1,48
 1047 -44 1047 -44 1061 26 c 0,49,50
 1064 43 1064 43 1064 56 c 0,51,52
 1064 111 1064 111 1019 133 c 128,-1,53
 974 155 974 155 898 155 c 0,54,55
 852 155 852 155 827 152 c 128,-1,56
 802 149 802 149 802 140 c 256,57,58
 802 131 802 131 829 117 c 0,59,60
 894 85 894 85 894 28 c 0,61,62
 894 -15 894 -15 845 -35 c 128,-1,63
 796 -55 796 -55 715 -55 c 0,64,65
 608 -55 608 -55 482 -24 c 0,66,67
 437 -12 437 -12 381 11.5 c 128,-1,68
 325 35 325 35 287.5 60 c 128,-1,69
 250 85 250 85 254 103 c 0,70,71
 255 108 255 108 298 111 c 0,72,73
 304 111 304 111 315.5 112 c 128,-1,74
 327 113 327 113 329 115 c 0,75,76
 334 120 334 120 334 123 c 0,77,78
 334 129 334 129 328 133 c 0,79,80
 314 145 314 145 253 150.5 c 128,-1,81
 192 156 192 156 126 156 c 0,82,83
 78 156 78 156 67 154 c 0,84,85
 30 147 30 147 30 126 c 0,86,87
 30 110 30 110 49 91 c 0,88,89
 103 36 103 36 330 -45 c 0,90,91
 400 -70 400 -70 515 -87 c 128,-1,92
 630 -104 630 -104 720 -104 c 0,93,47
 858 -106 858 -106 952.5 -75 c 128,-1,48
EndSplineSet
EndChar

StartChar: u
Encoding: 117 117 49
Width: 1094
GlyphClass: 1
Flags: W
LayerCount: 2
Fore
SplineSet
674 427 m 0,1,2
 670 436 670 436 633 455.5 c 128,-1,3
 596 475 596 475 568 485 c 0,4,5
 555 489 555 489 555 492 c 0,6,7
 555 494 555 494 563.5 497.5 c 128,-1,8
 572 501 572 501 575 502 c 0,9,10
 599 509 599 509 632 524 c 0,11,12
 742 572 742 572 801.5 626 c 128,-1,13
 861 680 861 680 900 775 c 0,14,15
 919 819 919 819 950 876 c 0,16,17
 952 880 952 880 957 885.5 c 128,-1,18
 962 891 962 891 962 894 c 0,19,20
 962 904 962 904 943.5 909.5 c 128,-1,21
 925 915 925 915 904 916 c 0,22,23
 888 917 888 917 877 916 c 128,-1,24
 866 915 866 915 853 912 c 0,25,26
 833 908 833 908 818.5 893 c 128,-1,27
 804 878 804 878 794 857 c 128,-1,28
 784 836 784 836 766 791 c 0,29,30
 757 767 757 767 747 748.5 c 128,-1,31
 737 730 737 730 719 702 c 0,32,33
 673 635 673 635 631 602 c 128,-1,34
 589 569 589 569 512 538 c 0,35,36
 499 533 499 533 451 518 c 0,37,38
 436 513 436 513 396.5 500 c 128,-1,39
 357 487 357 487 360 485 c 0,40,41
 367 481 367 481 416 476 c 2,42,-1
 468 469 l 2,43,44
 515 461 515 461 584 447.5 c 128,-1,45
 653 434 653 434 664 429 c 0,46,0
 675 425 675 425 674 427 c 0,1,2
632.5 200 m 128,-1,48
 645 202 645 202 649 207.5 c 128,-1,49
 653 213 653 213 653 223 c 0,50,51
 653 231 653 231 647.5 235.5 c 128,-1,52
 642 240 642 240 635 241 c 0,53,54
 626 242 626 242 621.5 247.5 c 128,-1,55
 617 253 617 253 610 267 c 0,56,57
 604 281 604 281 599 289 c 2,58,-1
 582 325 l 1,59,-1
 569 350 l 2,60,61
 557 372 557 372 536 378 c 0,62,63
 517 382 517 382 447 382 c 0,64,65
 424 382 424 382 420 368 c 0,66,67
 419 366 419 366 419 361 c 0,68,69
 419 351 419 351 431 339 c 0,70,71
 446 324 446 324 456 292 c 0,72,73
 481 226 481 226 517 210 c 0,74,75
 534 203 534 203 550.5 200.5 c 128,-1,76
 567 198 567 198 593 198 c 0,77,47
 620 198 620 198 632.5 200 c 128,-1,48
952.5 -75 m 128,-1,79
 1047 -44 1047 -44 1061 26 c 0,80,81
 1064 43 1064 43 1064 56 c 0,82,83
 1064 111 1064 111 1019 133 c 128,-1,84
 974 155 974 155 898 155 c 0,85,86
 852 155 852 155 827 152 c 128,-1,87
 802 149 802 149 802 140 c 256,88,89
 802 131 802 131 829 117 c 0,90,91
 894 85 894 85 894 28 c 0,92,93
 894 -15 894 -15 845 -35 c 128,-1,94
 796 -55 796 -55 715 -55 c 0,95,96
 608 -55 608 -55 482 -24 c 0,97,98
 437 -12 437 -12 381 11.5 c 128,-1,99
 325 35 325 35 287.5 60 c 128,-1,100
 250 85 250 85 254 103 c 0,101,102
 255 108 255 108 298 111 c 0,103,104
 304 111 304 111 315.5 112 c 128,-1,105
 327 113 327 113 329 115 c 0,106,107
 334 120 334 120 334 123 c 0,108,109
 334 129 334 129 328 133 c 0,110,111
 314 145 314 145 253 150.5 c 128,-1,112
 192 156 192 156 126 156 c 0,113,114
 78 156 78 156 67 154 c 0,115,116
 30 147 30 147 30 126 c 0,117,118
 30 110 30 110 49 91 c 0,119,120
 103 36 103 36 330 -45 c 0,121,122
 400 -70 400 -70 515 -87 c 128,-1,123
 630 -104 630 -104 720 -104 c 0,124,78
 858 -106 858 -106 952.5 -75 c 128,-1,79
EndSplineSet
EndChar

StartChar: v
Encoding: 118 118 50
Width: 1351
GlyphClass: 1
Flags: W
LayerCount: 2
Fore
SplineSet
388 185 m 0,1,2
 405 198 405 198 413 215.5 c 128,-1,3
 421 233 421 233 429 262 c 0,4,5
 435 284 435 284 440.5 298.5 c 128,-1,6
 446 313 446 313 455 325 c 0,7,8
 469 344 469 344 469 352 c 0,9,10
 469 358 469 358 464 361 c 0,11,12
 455 367 455 367 428 369.5 c 128,-1,13
 401 372 401 372 378 372 c 0,14,15
 345 372 345 372 328.5 364 c 128,-1,16
 312 356 312 356 298 330 c 0,17,18
 291 317 291 317 282 279 c 0,19,20
 277 255 277 255 272.5 242.5 c 128,-1,21
 268 230 268 230 259 223 c 0,22,23
 230 200 230 200 230 185 c 0,24,25
 230 161 230 161 310 161 c 0,26,0
 356 161 356 161 388 185 c 0,1,2
933.5 197.5 m 128,-1,28
 943 202 943 202 943 215 c 0,29,30
 943 223 943 223 938 227 c 128,-1,31
 933 231 933 231 926 232 c 0,32,33
 918 233 918 233 914 238 c 128,-1,34
 910 243 910 243 903 256 c 0,35,36
 900 264 900 264 894 275 c 0,37,38
 887 288 887 288 883.5 296.5 c 128,-1,39
 880 305 880 305 878 308 c 0,40,41
 872 321 872 321 869.5 325.5 c 128,-1,42
 867 330 867 330 866 331 c 0,43,44
 855 351 855 351 836 356 c 0,45,46
 820 360 820 360 755 360 c 0,47,48
 735 360 735 360 731 347 c 0,49,50
 730 345 730 345 730 341 c 0,51,52
 730 332 730 332 741 321 c 0,53,54
 753 309 753 309 764 278 c 0,55,56
 785 219 785 219 819 204 c 0,57,58
 834 197 834 197 848.5 195 c 128,-1,59
 863 193 863 193 888 193 c 0,60,27
 924 193 924 193 933.5 197.5 c 128,-1,28
1143.5 197.5 m 128,-1,62
 1153 202 1153 202 1153 215 c 0,63,64
 1153 223 1153 223 1148 227 c 128,-1,65
 1143 231 1143 231 1136 232 c 0,66,67
 1128 233 1128 233 1124 238 c 128,-1,68
 1120 243 1120 243 1113 256 c 0,69,70
 1110 264 1110 264 1104 275 c 0,71,72
 1097 288 1097 288 1093.5 296.5 c 128,-1,73
 1090 305 1090 305 1088 308 c 0,74,75
 1082 321 1082 321 1079.5 325.5 c 128,-1,76
 1077 330 1077 330 1076 331 c 0,77,78
 1065 351 1065 351 1046 356 c 0,79,80
 1030 360 1030 360 965 360 c 0,81,82
 945 360 945 360 941 347 c 0,83,84
 940 345 940 345 940 341 c 0,85,86
 940 332 940 332 951 321 c 0,87,88
 963 309 963 309 974 278 c 0,89,90
 995 219 995 219 1029 204 c 0,91,92
 1044 197 1044 197 1058.5 195 c 128,-1,93
 1073 193 1073 193 1098 193 c 0,94,61
 1134 193 1134 193 1143.5 197.5 c 128,-1,62
1321 2 m 0,96,97
 1321 9 1321 9 1312.5 19 c 128,-1,98
 1304 29 1304 29 1292 35 c 0,99,100
 1255 55 1255 55 1192 75.5 c 128,-1,101
 1129 96 1129 96 1080 106 c 0,102,103
 1065 109 1065 109 970 109 c 0,104,105
 882 109 882 109 796 107.5 c 128,-1,106
 710 106 710 106 654 104 c 0,107,108
 629 103 629 103 516 103 c 0,109,110
 404 103 404 103 302.5 104 c 128,-1,111
 201 105 201 105 148 106 c 0,112,113
 131 107 131 107 108.5 111.5 c 128,-1,114
 86 116 86 116 82 117 c 0,115,116
 47 124 47 124 41 124 c 0,117,118
 30 124 30 124 30 114 c 0,119,120
 30 105 30 105 33.5 100 c 128,-1,121
 37 95 37 95 51 83 c 0,122,123
 106 36 106 36 137 28 c 0,124,125
 227 4 227 4 481 4 c 0,126,127
 602 4 602 4 804 10 c 0,128,129
 966 14 966 14 1011 14 c 0,130,131
 1046 14 1046 14 1080 12 c 0,132,133
 1135 9 1135 9 1241 -1 c 2,134,-1
 1307 -6 l 2,135,95
 1321 -6 1321 -6 1321 2 c 0,96,97
EndSplineSet
EndChar

StartChar: w
Encoding: 119 119 51
Width: 1157
GlyphClass: 1
Flags: W
LayerCount: 2
Fore
SplineSet
1127 252 m 0,1,2
 1127 259 1127 259 1119.5 269 c 128,-1,3
 1112 279 1112 279 1102 285 c 0,4,5
 1071 305 1071 305 1017.5 325.5 c 128,-1,6
 964 346 964 346 922 356 c 0,7,8
 909 359 909 359 828 359 c 0,9,10
 753 359 753 359 680 357.5 c 128,-1,11
 607 356 607 356 560 354 c 0,12,13
 539 353 539 353 443 353 c 0,14,15
 348 353 348 353 261.5 354 c 128,-1,16
 175 355 175 355 130 356 c 0,17,18
 115 357 115 357 74 367 c 0,19,20
 44 374 44 374 39 374 c 0,21,22
 30 374 30 374 30 364 c 0,23,24
 30 355 30 355 32.5 350 c 128,-1,25
 35 345 35 345 47 333 c 0,26,27
 94 286 94 286 120 278 c 0,28,29
 196 254 196 254 412 254 c 0,30,31
 516 254 516 254 688 260 c 0,32,33
 824 264 824 264 863 264 c 0,34,35
 894 264 894 264 922 262 c 0,36,37
 970 259 970 259 1058 249 c 2,38,-1
 1115 244 l 2,39,0
 1127 244 1127 244 1127 252 c 0,1,2
982.5 -75 m 128,-1,41
 1077 -44 1077 -44 1091 26 c 0,42,43
 1094 43 1094 43 1094 56 c 0,44,45
 1094 111 1094 111 1049 133 c 128,-1,46
 1004 155 1004 155 928 155 c 0,47,48
 882 155 882 155 857 152 c 128,-1,49
 832 149 832 149 832 140 c 256,50,51
 832 131 832 131 859 117 c 0,52,53
 924 85 924 85 924 28 c 0,54,55
 924 -15 924 -15 875 -35 c 128,-1,56
 826 -55 826 -55 745 -55 c 0,57,58
 638 -55 638 -55 512 -24 c 0,59,60
 467 -12 467 -12 411 11.5 c 128,-1,61
 355 35 355 35 317.5 60 c 128,-1,62
 280 85 280 85 284 103 c 0,63,64
 285 108 285 108 328 111 c 0,65,66
 334 111 334 111 345.5 112 c 128,-1,67
 357 113 357 113 359 115 c 0,68,69
 364 120 364 120 364 123 c 0,70,71
 364 129 364 129 358 133 c 0,72,73
 344 145 344 145 283 150.5 c 128,-1,74
 222 156 222 156 156 156 c 0,75,76
 108 156 108 156 97 154 c 0,77,78
 60 147 60 147 60 126 c 0,79,80
 60 110 60 110 79 91 c 0,81,82
 133 36 133 36 360 -45 c 0,83,84
 430 -70 430 -70 545 -87 c 128,-1,85
 660 -104 660 -104 750 -104 c 0,86,40
 888 -106 888 -106 982.5 -75 c 128,-1,41
EndSplineSet
EndChar

StartChar: x
Encoding: 120 120 52
Width: 1413
GlyphClass: 1
Flags: W
LayerCount: 2
Fore
SplineSet
753.5 186.5 m 128,-1,1
 762 185 762 185 767 185 c 0,2,3
 773 185 773 185 776 190 c 0,4,5
 778 197 778 197 761 212 c 128,-1,6
 744 227 744 227 715 242 c 0,7,8
 675 263 675 263 633 272.5 c 128,-1,9
 591 282 591 282 538 282 c 0,10,11
 497 282 497 282 446 277.5 c 128,-1,12
 395 273 395 273 307 263 c 0,13,14
 220 253 220 253 185 253 c 0,15,16
 157 253 157 253 129 260 c 0,17,18
 100 267 100 267 83.5 277 c 128,-1,19
 67 287 67 287 67 296 c 0,20,21
 67 304 67 304 80 309 c 128,-1,22
 93 314 93 314 117 314 c 0,23,24
 146 314 146 314 167.5 312.5 c 128,-1,25
 189 311 189 311 196 311 c 0,26,27
 206 311 206 311 210 316 c 0,28,29
 214 323 214 323 196 336.5 c 128,-1,30
 178 350 178 350 154 362 c 0,31,32
 126 376 126 376 101.5 381.5 c 128,-1,33
 77 387 77 387 36 387 c 0,34,35
 -17 387 -17 387 -35.5 379 c 128,-1,36
 -54 371 -54 371 -54 348 c 0,37,38
 -54 326 -54 326 -24.5 298 c 128,-1,39
 5 270 5 270 57 244 c 0,40,41
 114 214 114 214 174.5 206.5 c 128,-1,42
 235 199 235 199 344 199 c 0,43,44
 460 199 460 199 534 203 c 0,45,46
 550 204 550 204 579 204 c 0,47,48
 648 204 648 204 734 189 c 0,49,0
 745 188 745 188 753.5 186.5 c 128,-1,1
1033.5 197.5 m 128,-1,51
 1043 202 1043 202 1043 215 c 0,52,53
 1043 223 1043 223 1038 227 c 128,-1,54
 1033 231 1033 231 1026 232 c 0,55,56
 1018 233 1018 233 1014 238 c 128,-1,57
 1010 243 1010 243 1003 256 c 0,58,59
 1000 264 1000 264 994 275 c 0,60,61
 987 288 987 288 983.5 296.5 c 128,-1,62
 980 305 980 305 978 308 c 0,63,64
 972 321 972 321 969.5 325.5 c 128,-1,65
 967 330 967 330 966 331 c 0,66,67
 955 351 955 351 936 356 c 0,68,69
 920 360 920 360 855 360 c 0,70,71
 835 360 835 360 831 347 c 0,72,73
 830 345 830 345 830 341 c 0,74,75
 830 332 830 332 841 321 c 0,76,77
 853 309 853 309 864 278 c 0,78,79
 885 219 885 219 919 204 c 0,80,81
 934 197 934 197 948.5 195 c 128,-1,82
 963 193 963 193 988 193 c 0,83,50
 1024 193 1024 193 1033.5 197.5 c 128,-1,51
1243.5 197.5 m 128,-1,85
 1253 202 1253 202 1253 215 c 0,86,87
 1253 223 1253 223 1248 227 c 128,-1,88
 1243 231 1243 231 1236 232 c 0,89,90
 1228 233 1228 233 1224 238 c 128,-1,91
 1220 243 1220 243 1213 256 c 0,92,93
 1210 264 1210 264 1204 275 c 0,94,95
 1197 288 1197 288 1193.5 296.5 c 128,-1,96
 1190 305 1190 305 1188 308 c 0,97,98
 1182 321 1182 321 1179.5 325.5 c 128,-1,99
 1177 330 1177 330 1176 331 c 0,100,101
 1165 351 1165 351 1146 356 c 0,102,103
 1130 360 1130 360 1065 360 c 0,104,105
 1045 360 1045 360 1041 347 c 0,106,107
 1040 345 1040 345 1040 341 c 0,108,109
 1040 332 1040 332 1051 321 c 0,110,111
 1063 309 1063 309 1074 278 c 0,112,113
 1095 219 1095 219 1129 204 c 0,114,115
 1144 197 1144 197 1158.5 195 c 128,-1,116
 1173 193 1173 193 1198 193 c 0,117,84
 1234 193 1234 193 1243.5 197.5 c 128,-1,85
1371 -3 m 0,119,120
 1381 -3 1381 -3 1382 1 c 0,121,122
 1385 8 1385 8 1377.5 17.5 c 128,-1,123
 1370 27 1370 27 1357 34 c 0,124,125
 1320 53 1320 53 1258.5 72 c 128,-1,126
 1197 91 1197 91 1145 100 c 0,127,128
 1128 103 1128 103 1087 103.5 c 128,-1,129
 1046 104 1046 104 960 104 c 0,130,131
 875 104 875 104 697 102 c 0,132,133
 673 101 673 101 629 101 c 0,134,135
 483 99 483 99 386 99 c 2,136,-1
 310 99 l 2,137,138
 195 100 195 100 159.5 102 c 128,-1,139
 124 104 124 104 73 114 c 2,140,-1
 38 120 l 2,141,142
 30 120 30 120 30 113 c 0,143,144
 30 107 30 107 36.5 97.5 c 128,-1,145
 43 88 43 88 54 80 c 0,146,147
 106 39 106 39 142 31 c 0,148,149
 176 23 176 23 243 16 c 128,-1,150
 310 9 310 9 398 6 c 0,151,152
 418 5 418 5 479 5 c 0,153,154
 547 5 547 5 601 6 c 0,155,156
 668 9 668 9 777 11 c 0,157,158
 872 13 872 13 940 16 c 0,159,160
 1008 18 1008 18 1044 18 c 0,161,162
 1202 18 1202 18 1332 1 c 0,163,118
 1357 -3 1357 -3 1371 -3 c 0,119,120
EndSplineSet
EndChar

StartChar: y
Encoding: 121 121 53
Width: 1132
GlyphClass: 1
Flags: W
LayerCount: 2
Fore
SplineSet
1094 217 m 0,1,2
 1090 226 1090 226 1053 245.5 c 128,-1,3
 1016 265 1016 265 988 275 c 0,4,5
 975 279 975 279 975 282 c 0,6,7
 975 284 975 284 983.5 287.5 c 128,-1,8
 992 291 992 291 995 292 c 0,9,10
 1019 299 1019 299 1052 314 c 0,11,12
 1162 362 1162 362 1221.5 416 c 128,-1,13
 1281 470 1281 470 1320 565 c 0,14,15
 1339 609 1339 609 1370 666 c 0,16,17
 1372 670 1372 670 1377 675.5 c 128,-1,18
 1382 681 1382 681 1382 684 c 0,19,20
 1382 694 1382 694 1363.5 699.5 c 128,-1,21
 1345 705 1345 705 1324 706 c 0,22,23
 1308 707 1308 707 1297 706 c 128,-1,24
 1286 705 1286 705 1273 702 c 0,25,26
 1253 698 1253 698 1238.5 683 c 128,-1,27
 1224 668 1224 668 1214 647 c 128,-1,28
 1204 626 1204 626 1186 581 c 0,29,30
 1177 557 1177 557 1167 538.5 c 128,-1,31
 1157 520 1157 520 1139 492 c 0,32,33
 1093 425 1093 425 1051 392 c 128,-1,34
 1009 359 1009 359 932 328 c 0,35,36
 919 323 919 323 871 308 c 0,37,38
 856 303 856 303 816.5 290 c 128,-1,39
 777 277 777 277 780 275 c 0,40,41
 787 271 787 271 836 266 c 2,42,-1
 888 259 l 2,43,44
 935 251 935 251 1004 237.5 c 128,-1,45
 1073 224 1073 224 1084 219 c 0,46,0
 1095 215 1095 215 1094 217 c 0,1,2
632.5 200 m 128,-1,48
 645 202 645 202 649 207.5 c 128,-1,49
 653 213 653 213 653 223 c 0,50,51
 653 231 653 231 647.5 235.5 c 128,-1,52
 642 240 642 240 635 241 c 0,53,54
 626 242 626 242 621.5 247.5 c 128,-1,55
 617 253 617 253 610 267 c 0,56,57
 604 281 604 281 599 289 c 2,58,-1
 582 325 l 1,59,-1
 569 350 l 2,60,61
 557 372 557 372 536 378 c 0,62,63
 517 382 517 382 447 382 c 0,64,65
 424 382 424 382 420 368 c 0,66,67
 419 366 419 366 419 361 c 0,68,69
 419 351 419 351 431 339 c 0,70,71
 446 324 446 324 456 292 c 0,72,73
 481 226 481 226 517 210 c 0,74,75
 534 203 534 203 550.5 200.5 c 128,-1,76
 567 198 567 198 593 198 c 0,77,47
 620 198 620 198 632.5 200 c 128,-1,48
952.5 -75 m 128,-1,79
 1047 -44 1047 -44 1061 26 c 0,80,81
 1064 43 1064 43 1064 56 c 0,82,83
 1064 111 1064 111 1019 133 c 128,-1,84
 974 155 974 155 898 155 c 0,85,86
 852 155 852 155 827 152 c 128,-1,87
 802 149 802 149 802 140 c 256,88,89
 802 131 802 131 829 117 c 0,90,91
 894 85 894 85 894 28 c 0,92,93
 894 -15 894 -15 845 -35 c 128,-1,94
 796 -55 796 -55 715 -55 c 0,95,96
 608 -55 608 -55 482 -24 c 0,97,98
 437 -12 437 -12 381 11.5 c 128,-1,99
 325 35 325 35 287.5 60 c 128,-1,100
 250 85 250 85 254 103 c 0,101,102
 255 108 255 108 298 111 c 0,103,104
 304 111 304 111 315.5 112 c 128,-1,105
 327 113 327 113 329 115 c 0,106,107
 334 120 334 120 334 123 c 0,108,109
 334 129 334 129 328 133 c 0,110,111
 314 145 314 145 253 150.5 c 128,-1,112
 192 156 192 156 126 156 c 0,113,114
 78 156 78 156 67 154 c 0,115,116
 30 147 30 147 30 126 c 0,117,118
 30 110 30 110 49 91 c 0,119,120
 103 36 103 36 330 -45 c 0,121,122
 400 -70 400 -70 515 -87 c 128,-1,123
 630 -104 630 -104 720 -104 c 0,124,78
 858 -106 858 -106 952.5 -75 c 128,-1,79
EndSplineSet
EndChar

StartChar: zero
Encoding: 48 48 56
Width: 1245
GlyphClass: 1
Flags: W
LayerCount: 2
Fore
SplineSet
1204 -11 m 0,1,2
 1210 -11 1210 -11 1211.5 -9.5 c 128,-1,3
 1213 -8 1213 -8 1215 -5 c 0,4,5
 1218 4 1218 4 1194 23 c 128,-1,6
 1170 42 1170 42 1129 62 c 0,7,8
 1072 89 1072 89 1012 100.5 c 128,-1,9
 952 112 952 112 876 112 c 0,10,11
 818 112 818 112 749 107 c 128,-1,12
 680 102 680 102 546 89 c 0,13,14
 420 76 420 76 373 76 c 0,15,16
 333 76 333 76 291 85 c 0,17,18
 250 93 250 93 227 106 c 128,-1,19
 204 119 204 119 204 131 c 0,20,21
 204 142 204 142 224 148.5 c 128,-1,22
 244 155 244 155 283 154 c 2,23,-1
 350 151 l 1,24,-1
 384 149 l 2,25,26
 408 149 408 149 408 158 c 0,27,28
 408 168 408 168 382 185 c 128,-1,29
 356 202 356 202 327 215 c 0,30,31
 287 234 287 234 252.5 240.5 c 128,-1,32
 218 247 218 247 158 248 c 0,33,34
 107 248 107 248 80 243.5 c 128,-1,35
 53 239 53 239 41.5 228.5 c 128,-1,36
 30 218 30 218 30 198 c 0,37,38
 30 169 30 169 72 133.5 c 128,-1,39
 114 98 114 98 188 64 c 0,40,41
 246 37 246 37 306 25 c 128,-1,42
 366 13 366 13 429 10 c 128,-1,43
 492 7 492 7 599 7 c 0,44,45
 764 7 764 7 870 11 c 0,46,47
 893 12 893 12 936 12 c 0,48,49
 1033 12 1033 12 1156 -6 c 0,50,0
 1199 -11 1199 -11 1204 -11 c 0,1,2
EndSplineSet
EndChar

StartChar: one
Encoding: 49 49 57
Width: 1351
GlyphClass: 1
Flags: W
LayerCount: 2
Fore
SplineSet
1321 2 m 0,1,2
 1321 9 1321 9 1312.5 19 c 128,-1,3
 1304 29 1304 29 1292 35 c 0,4,5
 1255 55 1255 55 1192 75.5 c 128,-1,6
 1129 96 1129 96 1080 106 c 0,7,8
 1065 109 1065 109 970 109 c 0,9,10
 882 109 882 109 796 107.5 c 128,-1,11
 710 106 710 106 654 104 c 0,12,13
 629 103 629 103 516 103 c 0,14,15
 404 103 404 103 302.5 104 c 128,-1,16
 201 105 201 105 148 106 c 0,17,18
 131 107 131 107 108.5 111.5 c 128,-1,19
 86 116 86 116 82 117 c 0,20,21
 47 124 47 124 41 124 c 0,22,23
 30 124 30 124 30 114 c 0,24,25
 30 105 30 105 33.5 100 c 128,-1,26
 37 95 37 95 51 83 c 0,27,28
 106 36 106 36 137 28 c 0,29,30
 227 4 227 4 481 4 c 0,31,32
 602 4 602 4 804 10 c 0,33,34
 966 14 966 14 1011 14 c 0,35,36
 1046 14 1046 14 1080 12 c 0,37,38
 1135 9 1135 9 1241 -1 c 2,39,-1
 1307 -6 l 2,40,0
 1321 -6 1321 -6 1321 2 c 0,1,2
EndSplineSet
EndChar

StartChar: four
Encoding: 52 52 60
Width: 1351
GlyphClass: 1
Flags: W
LayerCount: 2
Fore
SplineSet
1214 167 m 0,1,2
 1210 176 1210 176 1173 195.5 c 128,-1,3
 1136 215 1136 215 1108 225 c 0,4,5
 1095 229 1095 229 1095 232 c 0,6,7
 1095 234 1095 234 1103.5 237.5 c 128,-1,8
 1112 241 1112 241 1115 242 c 0,9,10
 1139 249 1139 249 1172 264 c 0,11,12
 1282 312 1282 312 1341.5 366 c 128,-1,13
 1401 420 1401 420 1440 515 c 0,14,15
 1459 559 1459 559 1490 616 c 0,16,17
 1492 620 1492 620 1497 625.5 c 128,-1,18
 1502 631 1502 631 1502 634 c 0,19,20
 1502 644 1502 644 1483.5 649.5 c 128,-1,21
 1465 655 1465 655 1444 656 c 0,22,23
 1428 657 1428 657 1417 656 c 128,-1,24
 1406 655 1406 655 1393 652 c 0,25,26
 1373 648 1373 648 1358.5 633 c 128,-1,27
 1344 618 1344 618 1334 597 c 128,-1,28
 1324 576 1324 576 1306 531 c 0,29,30
 1297 507 1297 507 1287 488.5 c 128,-1,31
 1277 470 1277 470 1259 442 c 0,32,33
 1213 375 1213 375 1171 342 c 128,-1,34
 1129 309 1129 309 1052 278 c 0,35,36
 1039 273 1039 273 991 258 c 0,37,38
 976 253 976 253 936.5 240 c 128,-1,39
 897 227 897 227 900 225 c 0,40,41
 907 221 907 221 956 216 c 2,42,-1
 1008 209 l 2,43,44
 1055 201 1055 201 1124 187.5 c 128,-1,45
 1193 174 1193 174 1204 169 c 0,46,0
 1215 165 1215 165 1214 167 c 0,1,2
1321 2 m 0,48,49
 1321 9 1321 9 1312.5 19 c 128,-1,50
 1304 29 1304 29 1292 35 c 0,51,52
 1255 55 1255 55 1192 75.5 c 128,-1,53
 1129 96 1129 96 1080 106 c 0,54,55
 1065 109 1065 109 970 109 c 0,56,57
 882 109 882 109 796 107.5 c 128,-1,58
 710 106 710 106 654 104 c 0,59,60
 629 103 629 103 516 103 c 0,61,62
 404 103 404 103 302.5 104 c 128,-1,63
 201 105 201 105 148 106 c 0,64,65
 131 107 131 107 108.5 111.5 c 128,-1,66
 86 116 86 116 82 117 c 0,67,68
 47 124 47 124 41 124 c 0,69,70
 30 124 30 124 30 114 c 0,71,72
 30 105 30 105 33.5 100 c 128,-1,73
 37 95 37 95 51 83 c 0,74,75
 106 36 106 36 137 28 c 0,76,77
 227 4 227 4 481 4 c 0,78,79
 602 4 602 4 804 10 c 0,80,81
 966 14 966 14 1011 14 c 0,82,83
 1046 14 1046 14 1080 12 c 0,84,85
 1135 9 1135 9 1241 -1 c 2,86,-1
 1307 -6 l 2,87,47
 1321 -6 1321 -6 1321 2 c 0,48,49
EndSplineSet
EndChar

StartChar: five
Encoding: 53 53 61
Width: 1351
GlyphClass: 1
Flags: W
LayerCount: 2
Fore
SplineSet
344 167 m 0,1,2
 340 176 340 176 303 195.5 c 128,-1,3
 266 215 266 215 238 225 c 0,4,5
 225 229 225 229 225 232 c 0,6,7
 225 234 225 234 233.5 237.5 c 128,-1,8
 242 241 242 241 245 242 c 0,9,10
 269 249 269 249 302 264 c 0,11,12
 412 312 412 312 471.5 366 c 128,-1,13
 531 420 531 420 570 515 c 0,14,15
 589 559 589 559 620 616 c 0,16,17
 622 620 622 620 627 625.5 c 128,-1,18
 632 631 632 631 632 634 c 0,19,20
 632 644 632 644 613.5 649.5 c 128,-1,21
 595 655 595 655 574 656 c 0,22,23
 558 657 558 657 547 656 c 128,-1,24
 536 655 536 655 523 652 c 0,25,26
 503 648 503 648 488.5 633 c 128,-1,27
 474 618 474 618 464 597 c 128,-1,28
 454 576 454 576 436 531 c 0,29,30
 427 507 427 507 417 488.5 c 128,-1,31
 407 470 407 470 389 442 c 0,32,33
 343 375 343 375 301 342 c 128,-1,34
 259 309 259 309 182 278 c 0,35,36
 169 273 169 273 121 258 c 0,37,38
 106 253 106 253 66.5 240 c 128,-1,39
 27 227 27 227 30 225 c 0,40,41
 37 221 37 221 86 216 c 2,42,-1
 138 209 l 2,43,44
 185 201 185 201 254 187.5 c 128,-1,45
 323 174 323 174 334 169 c 0,46,0
 345 165 345 165 344 167 c 0,1,2
1321 2 m 0,48,49
 1321 9 1321 9 1312.5 19 c 128,-1,50
 1304 29 1304 29 1292 35 c 0,51,52
 1255 55 1255 55 1192 75.5 c 128,-1,53
 1129 96 1129 96 1080 106 c 0,54,55
 1065 109 1065 109 970 109 c 0,56,57
 882 109 882 109 796 107.5 c 128,-1,58
 710 106 710 106 654 104 c 0,59,60
 629 103 629 103 516 103 c 0,61,62
 404 103 404 103 302.5 104 c 128,-1,63
 201 105 201 105 148 106 c 0,64,65
 131 107 131 107 108.5 111.5 c 128,-1,66
 86 116 86 116 82 117 c 0,67,68
 47 124 47 124 41 124 c 0,69,70
 30 124 30 124 30 114 c 0,71,72
 30 105 30 105 33.5 100 c 128,-1,73
 37 95 37 95 51 83 c 0,74,75
 106 36 106 36 137 28 c 0,76,77
 227 4 227 4 481 4 c 0,78,79
 602 4 602 4 804 10 c 0,80,81
 966 14 966 14 1011 14 c 0,82,83
 1046 14 1046 14 1080 12 c 0,84,85
 1135 9 1135 9 1241 -1 c 2,86,-1
 1307 -6 l 2,87,47
 1321 -6 1321 -6 1321 2 c 0,48,49
EndSplineSet
EndChar

StartChar: six
Encoding: 54 54 62
Width: 1351
GlyphClass: 1
Flags: W
LayerCount: 2
Fore
SplineSet
1214 167 m 0,1,2
 1210 176 1210 176 1173 195.5 c 128,-1,3
 1136 215 1136 215 1108 225 c 0,4,5
 1095 229 1095 229 1095 232 c 0,6,7
 1095 234 1095 234 1103.5 237.5 c 128,-1,8
 1112 241 1112 241 1115 242 c 0,9,10
 1139 249 1139 249 1172 264 c 0,11,12
 1282 312 1282 312 1341.5 366 c 128,-1,13
 1401 420 1401 420 1440 515 c 0,14,15
 1459 559 1459 559 1490 616 c 0,16,17
 1492 620 1492 620 1497 625.5 c 128,-1,18
 1502 631 1502 631 1502 634 c 0,19,20
 1502 644 1502 644 1483.5 649.5 c 128,-1,21
 1465 655 1465 655 1444 656 c 0,22,23
 1428 657 1428 657 1417 656 c 128,-1,24
 1406 655 1406 655 1393 652 c 0,25,26
 1373 648 1373 648 1358.5 633 c 128,-1,27
 1344 618 1344 618 1334 597 c 128,-1,28
 1324 576 1324 576 1306 531 c 0,29,30
 1297 507 1297 507 1287 488.5 c 128,-1,31
 1277 470 1277 470 1259 442 c 0,32,33
 1213 375 1213 375 1171 342 c 128,-1,34
 1129 309 1129 309 1052 278 c 0,35,36
 1039 273 1039 273 991 258 c 0,37,38
 976 253 976 253 936.5 240 c 128,-1,39
 897 227 897 227 900 225 c 0,40,41
 907 221 907 221 956 216 c 2,42,-1
 1008 209 l 2,43,44
 1055 201 1055 201 1124 187.5 c 128,-1,45
 1193 174 1193 174 1204 169 c 0,46,0
 1215 165 1215 165 1214 167 c 0,1,2
708.5 197.5 m 128,-1,48
 718 202 718 202 718 215 c 0,49,50
 718 223 718 223 713 227 c 128,-1,51
 708 231 708 231 701 232 c 0,52,53
 693 233 693 233 689 238 c 128,-1,54
 685 243 685 243 678 256 c 0,55,56
 675 264 675 264 669 275 c 0,57,58
 662 288 662 288 658.5 296.5 c 128,-1,59
 655 305 655 305 653 308 c 0,60,61
 647 321 647 321 644.5 325.5 c 128,-1,62
 642 330 642 330 641 331 c 0,63,64
 630 351 630 351 611 356 c 0,65,66
 595 360 595 360 530 360 c 0,67,68
 510 360 510 360 506 347 c 0,69,70
 505 345 505 345 505 341 c 0,71,72
 505 332 505 332 516 321 c 0,73,74
 528 309 528 309 539 278 c 0,75,76
 560 219 560 219 594 204 c 0,77,78
 609 197 609 197 623.5 195 c 128,-1,79
 638 193 638 193 663 193 c 0,80,47
 699 193 699 193 708.5 197.5 c 128,-1,48
1321 2 m 0,82,83
 1321 9 1321 9 1312.5 19 c 128,-1,84
 1304 29 1304 29 1292 35 c 0,85,86
 1255 55 1255 55 1192 75.5 c 128,-1,87
 1129 96 1129 96 1080 106 c 0,88,89
 1065 109 1065 109 970 109 c 0,90,91
 882 109 882 109 796 107.5 c 128,-1,92
 710 106 710 106 654 104 c 0,93,94
 629 103 629 103 516 103 c 0,95,96
 404 103 404 103 302.5 104 c 128,-1,97
 201 105 201 105 148 106 c 0,98,99
 131 107 131 107 108.5 111.5 c 128,-1,100
 86 116 86 116 82 117 c 0,101,102
 47 124 47 124 41 124 c 0,103,104
 30 124 30 124 30 114 c 0,105,106
 30 105 30 105 33.5 100 c 128,-1,107
 37 95 37 95 51 83 c 0,108,109
 106 36 106 36 137 28 c 0,110,111
 227 4 227 4 481 4 c 0,112,113
 602 4 602 4 804 10 c 0,114,115
 966 14 966 14 1011 14 c 0,116,117
 1046 14 1046 14 1080 12 c 0,118,119
 1135 9 1135 9 1241 -1 c 2,120,-1
 1307 -6 l 2,121,81
 1321 -6 1321 -6 1321 2 c 0,82,83
EndSplineSet
EndChar

StartChar: seven
Encoding: 55 55 63
Width: 1351
GlyphClass: 1
Flags: W
LayerCount: 2
Fore
SplineSet
734 417 m 0,1,2
 730 426 730 426 693 445.5 c 128,-1,3
 656 465 656 465 628 475 c 0,4,5
 615 479 615 479 615 482 c 0,6,7
 615 484 615 484 623.5 487.5 c 128,-1,8
 632 491 632 491 635 492 c 0,9,10
 659 499 659 499 692 514 c 0,11,12
 802 562 802 562 861.5 616 c 128,-1,13
 921 670 921 670 960 765 c 0,14,15
 979 809 979 809 1010 866 c 0,16,17
 1012 870 1012 870 1017 875.5 c 128,-1,18
 1022 881 1022 881 1022 884 c 0,19,20
 1022 894 1022 894 1003.5 899.5 c 128,-1,21
 985 905 985 905 964 906 c 0,22,23
 948 907 948 907 937 906 c 128,-1,24
 926 905 926 905 913 902 c 0,25,26
 893 898 893 898 878.5 883 c 128,-1,27
 864 868 864 868 854 847 c 128,-1,28
 844 826 844 826 826 781 c 0,29,30
 817 757 817 757 807 738.5 c 128,-1,31
 797 720 797 720 779 692 c 0,32,33
 733 625 733 625 691 592 c 128,-1,34
 649 559 649 559 572 528 c 0,35,36
 559 523 559 523 511 508 c 0,37,38
 496 503 496 503 456.5 490 c 128,-1,39
 417 477 417 477 420 475 c 0,40,41
 427 471 427 471 476 466 c 2,42,-1
 528 459 l 2,43,44
 575 451 575 451 644 437.5 c 128,-1,45
 713 424 713 424 724 419 c 0,46,0
 735 415 735 415 734 417 c 0,1,2
708.5 197.5 m 128,-1,48
 718 202 718 202 718 215 c 0,49,50
 718 223 718 223 713 227 c 128,-1,51
 708 231 708 231 701 232 c 0,52,53
 693 233 693 233 689 238 c 128,-1,54
 685 243 685 243 678 256 c 0,55,56
 675 264 675 264 669 275 c 0,57,58
 662 288 662 288 658.5 296.5 c 128,-1,59
 655 305 655 305 653 308 c 0,60,61
 647 321 647 321 644.5 325.5 c 128,-1,62
 642 330 642 330 641 331 c 0,63,64
 630 351 630 351 611 356 c 0,65,66
 595 360 595 360 530 360 c 0,67,68
 510 360 510 360 506 347 c 0,69,70
 505 345 505 345 505 341 c 0,71,72
 505 332 505 332 516 321 c 0,73,74
 528 309 528 309 539 278 c 0,75,76
 560 219 560 219 594 204 c 0,77,78
 609 197 609 197 623.5 195 c 128,-1,79
 638 193 638 193 663 193 c 0,80,47
 699 193 699 193 708.5 197.5 c 128,-1,48
1321 2 m 0,82,83
 1321 9 1321 9 1312.5 19 c 128,-1,84
 1304 29 1304 29 1292 35 c 0,85,86
 1255 55 1255 55 1192 75.5 c 128,-1,87
 1129 96 1129 96 1080 106 c 0,88,89
 1065 109 1065 109 970 109 c 0,90,91
 882 109 882 109 796 107.5 c 128,-1,92
 710 106 710 106 654 104 c 0,93,94
 629 103 629 103 516 103 c 0,95,96
 404 103 404 103 302.5 104 c 128,-1,97
 201 105 201 105 148 106 c 0,98,99
 131 107 131 107 108.5 111.5 c 128,-1,100
 86 116 86 116 82 117 c 0,101,102
 47 124 47 124 41 124 c 0,103,104
 30 124 30 124 30 114 c 0,105,106
 30 105 30 105 33.5 100 c 128,-1,107
 37 95 37 95 51 83 c 0,108,109
 106 36 106 36 137 28 c 0,110,111
 227 4 227 4 481 4 c 0,112,113
 602 4 602 4 804 10 c 0,114,115
 966 14 966 14 1011 14 c 0,116,117
 1046 14 1046 14 1080 12 c 0,118,119
 1135 9 1135 9 1241 -1 c 2,120,-1
 1307 -6 l 2,121,81
 1321 -6 1321 -6 1321 2 c 0,82,83
EndSplineSet
EndChar

StartChar: eight
Encoding: 56 56 64
Width: 1351
GlyphClass: 1
Flags: W
LayerCount: 2
Fore
SplineSet
344 167 m 0,1,2
 340 176 340 176 303 195.5 c 128,-1,3
 266 215 266 215 238 225 c 0,4,5
 225 229 225 229 225 232 c 0,6,7
 225 234 225 234 233.5 237.5 c 128,-1,8
 242 241 242 241 245 242 c 0,9,10
 269 249 269 249 302 264 c 0,11,12
 412 312 412 312 471.5 366 c 128,-1,13
 531 420 531 420 570 515 c 0,14,15
 589 559 589 559 620 616 c 0,16,17
 622 620 622 620 627 625.5 c 128,-1,18
 632 631 632 631 632 634 c 0,19,20
 632 644 632 644 613.5 649.5 c 128,-1,21
 595 655 595 655 574 656 c 0,22,23
 558 657 558 657 547 656 c 128,-1,24
 536 655 536 655 523 652 c 0,25,26
 503 648 503 648 488.5 633 c 128,-1,27
 474 618 474 618 464 597 c 128,-1,28
 454 576 454 576 436 531 c 0,29,30
 427 507 427 507 417 488.5 c 128,-1,31
 407 470 407 470 389 442 c 0,32,33
 343 375 343 375 301 342 c 128,-1,34
 259 309 259 309 182 278 c 0,35,36
 169 273 169 273 121 258 c 0,37,38
 106 253 106 253 66.5 240 c 128,-1,39
 27 227 27 227 30 225 c 0,40,41
 37 221 37 221 86 216 c 2,42,-1
 138 209 l 2,43,44
 185 201 185 201 254 187.5 c 128,-1,45
 323 174 323 174 334 169 c 0,46,0
 345 165 345 165 344 167 c 0,1,2
1214 167 m 0,48,49
 1210 176 1210 176 1173 195.5 c 128,-1,50
 1136 215 1136 215 1108 225 c 0,51,52
 1095 229 1095 229 1095 232 c 0,53,54
 1095 234 1095 234 1103.5 237.5 c 128,-1,55
 1112 241 1112 241 1115 242 c 0,56,57
 1139 249 1139 249 1172 264 c 0,58,59
 1282 312 1282 312 1341.5 366 c 128,-1,60
 1401 420 1401 420 1440 515 c 0,61,62
 1459 559 1459 559 1490 616 c 0,63,64
 1492 620 1492 620 1497 625.5 c 128,-1,65
 1502 631 1502 631 1502 634 c 0,66,67
 1502 644 1502 644 1483.5 649.5 c 128,-1,68
 1465 655 1465 655 1444 656 c 0,69,70
 1428 657 1428 657 1417 656 c 128,-1,71
 1406 655 1406 655 1393 652 c 0,72,73
 1373 648 1373 648 1358.5 633 c 128,-1,74
 1344 618 1344 618 1334 597 c 128,-1,75
 1324 576 1324 576 1306 531 c 0,76,77
 1297 507 1297 507 1287 488.5 c 128,-1,78
 1277 470 1277 470 1259 442 c 0,79,80
 1213 375 1213 375 1171 342 c 128,-1,81
 1129 309 1129 309 1052 278 c 0,82,83
 1039 273 1039 273 991 258 c 0,84,85
 976 253 976 253 936.5 240 c 128,-1,86
 897 227 897 227 900 225 c 0,87,88
 907 221 907 221 956 216 c 2,89,-1
 1008 209 l 2,90,91
 1055 201 1055 201 1124 187.5 c 128,-1,92
 1193 174 1193 174 1204 169 c 0,93,47
 1215 165 1215 165 1214 167 c 0,48,49
1321 2 m 0,95,96
 1321 9 1321 9 1312.5 19 c 128,-1,97
 1304 29 1304 29 1292 35 c 0,98,99
 1255 55 1255 55 1192 75.5 c 128,-1,100
 1129 96 1129 96 1080 106 c 0,101,102
 1065 109 1065 109 970 109 c 0,103,104
 882 109 882 109 796 107.5 c 128,-1,105
 710 106 710 106 654 104 c 0,106,107
 629 103 629 103 516 103 c 0,108,109
 404 103 404 103 302.5 104 c 128,-1,110
 201 105 201 105 148 106 c 0,111,112
 131 107 131 107 108.5 111.5 c 128,-1,113
 86 116 86 116 82 117 c 0,114,115
 47 124 47 124 41 124 c 0,116,117
 30 124 30 124 30 114 c 0,118,119
 30 105 30 105 33.5 100 c 128,-1,120
 37 95 37 95 51 83 c 0,121,122
 106 36 106 36 137 28 c 0,123,124
 227 4 227 4 481 4 c 0,125,126
 602 4 602 4 804 10 c 0,127,128
 966 14 966 14 1011 14 c 0,129,130
 1046 14 1046 14 1080 12 c 0,131,132
 1135 9 1135 9 1241 -1 c 2,133,-1
 1307 -6 l 2,134,94
 1321 -6 1321 -6 1321 2 c 0,95,96
EndSplineSet
EndChar

StartChar: nine
Encoding: 57 57 65
Width: 1351
GlyphClass: 1
Flags: W
LayerCount: 2
Fore
SplineSet
734 417 m 0,1,2
 730 426 730 426 693 445.5 c 128,-1,3
 656 465 656 465 628 475 c 0,4,5
 615 479 615 479 615 482 c 0,6,7
 615 484 615 484 623.5 487.5 c 128,-1,8
 632 491 632 491 635 492 c 0,9,10
 659 499 659 499 692 514 c 0,11,12
 802 562 802 562 861.5 616 c 128,-1,13
 921 670 921 670 960 765 c 0,14,15
 979 809 979 809 1010 866 c 0,16,17
 1012 870 1012 870 1017 875.5 c 128,-1,18
 1022 881 1022 881 1022 884 c 0,19,20
 1022 894 1022 894 1003.5 899.5 c 128,-1,21
 985 905 985 905 964 906 c 0,22,23
 948 907 948 907 937 906 c 128,-1,24
 926 905 926 905 913 902 c 0,25,26
 893 898 893 898 878.5 883 c 128,-1,27
 864 868 864 868 854 847 c 128,-1,28
 844 826 844 826 826 781 c 0,29,30
 817 757 817 757 807 738.5 c 128,-1,31
 797 720 797 720 779 692 c 0,32,33
 733 625 733 625 691 592 c 128,-1,34
 649 559 649 559 572 528 c 0,35,36
 559 523 559 523 511 508 c 0,37,38
 496 503 496 503 456.5 490 c 128,-1,39
 417 477 417 477 420 475 c 0,40,41
 427 471 427 471 476 466 c 2,42,-1
 528 459 l 2,43,44
 575 451 575 451 644 437.5 c 128,-1,45
 713 424 713 424 724 419 c 0,46,0
 735 415 735 415 734 417 c 0,1,2
1214 167 m 0,48,49
 1210 176 1210 176 1173 195.5 c 128,-1,50
 1136 215 1136 215 1108 225 c 0,51,52
 1095 229 1095 229 1095 232 c 0,53,54
 1095 234 1095 234 1103.5 237.5 c 128,-1,55
 1112 241 1112 241 1115 242 c 0,56,57
 1139 249 1139 249 1172 264 c 0,58,59
 1282 312 1282 312 1341.5 366 c 128,-1,60
 1401 420 1401 420 1440 515 c 0,61,62
 1459 559 1459 559 1490 616 c 0,63,64
 1492 620 1492 620 1497 625.5 c 128,-1,65
 1502 631 1502 631 1502 634 c 0,66,67
 1502 644 1502 644 1483.5 649.5 c 128,-1,68
 1465 655 1465 655 1444 656 c 0,69,70
 1428 657 1428 657 1417 656 c 128,-1,71
 1406 655 1406 655 1393 652 c 0,72,73
 1373 648 1373 648 1358.5 633 c 128,-1,74
 1344 618 1344 618 1334 597 c 128,-1,75
 1324 576 1324 576 1306 531 c 0,76,77
 1297 507 1297 507 1287 488.5 c 128,-1,78
 1277 470 1277 470 1259 442 c 0,79,80
 1213 375 1213 375 1171 342 c 128,-1,81
 1129 309 1129 309 1052 278 c 0,82,83
 1039 273 1039 273 991 258 c 0,84,85
 976 253 976 253 936.5 240 c 128,-1,86
 897 227 897 227 900 225 c 0,87,88
 907 221 907 221 956 216 c 2,89,-1
 1008 209 l 2,90,91
 1055 201 1055 201 1124 187.5 c 128,-1,92
 1193 174 1193 174 1204 169 c 0,93,47
 1215 165 1215 165 1214 167 c 0,48,49
708.5 197.5 m 128,-1,95
 718 202 718 202 718 215 c 0,96,97
 718 223 718 223 713 227 c 128,-1,98
 708 231 708 231 701 232 c 0,99,100
 693 233 693 233 689 238 c 128,-1,101
 685 243 685 243 678 256 c 0,102,103
 675 264 675 264 669 275 c 0,104,105
 662 288 662 288 658.5 296.5 c 128,-1,106
 655 305 655 305 653 308 c 0,107,108
 647 321 647 321 644.5 325.5 c 128,-1,109
 642 330 642 330 641 331 c 0,110,111
 630 351 630 351 611 356 c 0,112,113
 595 360 595 360 530 360 c 0,114,115
 510 360 510 360 506 347 c 0,116,117
 505 345 505 345 505 341 c 0,118,119
 505 332 505 332 516 321 c 0,120,121
 528 309 528 309 539 278 c 0,122,123
 560 219 560 219 594 204 c 0,124,125
 609 197 609 197 623.5 195 c 128,-1,126
 638 193 638 193 663 193 c 0,127,94
 699 193 699 193 708.5 197.5 c 128,-1,95
1321 2 m 0,129,130
 1321 9 1321 9 1312.5 19 c 128,-1,131
 1304 29 1304 29 1292 35 c 0,132,133
 1255 55 1255 55 1192 75.5 c 128,-1,134
 1129 96 1129 96 1080 106 c 0,135,136
 1065 109 1065 109 970 109 c 0,137,138
 882 109 882 109 796 107.5 c 128,-1,139
 710 106 710 106 654 104 c 0,140,141
 629 103 629 103 516 103 c 0,142,143
 404 103 404 103 302.5 104 c 128,-1,144
 201 105 201 105 148 106 c 0,145,146
 131 107 131 107 108.5 111.5 c 128,-1,147
 86 116 86 116 82 117 c 0,148,149
 47 124 47 124 41 124 c 0,150,151
 30 124 30 124 30 114 c 0,152,153
 30 105 30 105 33.5 100 c 128,-1,154
 37 95 37 95 51 83 c 0,155,156
 106 36 106 36 137 28 c 0,157,158
 227 4 227 4 481 4 c 0,159,160
 602 4 602 4 804 10 c 0,161,162
 966 14 966 14 1011 14 c 0,163,164
 1046 14 1046 14 1080 12 c 0,165,166
 1135 9 1135 9 1241 -1 c 2,167,-1
 1307 -6 l 2,168,128
 1321 -6 1321 -6 1321 2 c 0,129,130
EndSplineSet
EndChar

StartChar: period
Encoding: 46 46 66
Width: 922
GlyphClass: 1
Flags: W
LayerCount: 2
Fore
SplineSet
618.5 -334.5 m 128,-1,1
 630 -339 630 -339 635 -340 c 0,2,3
 643 -340 643 -340 638.5 -333.5 c 128,-1,4
 634 -327 634 -327 617 -312 c 0,5,6
 594 -293 594 -293 561 -275 c 0,7,8
 493 -238 493 -238 437.5 -200.5 c 128,-1,9
 382 -163 382 -163 352 -133 c 0,10,11
 199 12 199 12 146 258 c 0,12,13
 139 285 139 285 133 299.5 c 128,-1,14
 127 314 127 314 118 324 c 256,15,16
 109 334 109 334 98 336.5 c 128,-1,17
 87 339 87 339 63 337 c 0,18,19
 58 337 58 337 50 336 c 128,-1,20
 42 335 42 335 39 334 c 128,-1,21
 36 333 36 333 34 330 c 0,22,23
 30 326 30 326 30 322 c 0,24,25
 30 314 30 314 42 267 c 2,26,-1
 59 196 l 2,27,28
 81 105 81 105 130 15 c 0,29,30
 137 1 137 1 159 -27.5 c 128,-1,31
 181 -56 181 -56 199 -76 c 0,32,33
 226 -107 226 -107 285 -155 c 0,34,35
 397 -241 397 -241 591 -323 c 0,36,0
 607 -330 607 -330 618.5 -334.5 c 128,-1,1
410.5 55 m 128,-1,38
 416 54 416 54 422 55 c 0,39,40
 433 57 433 57 452.5 76 c 128,-1,41
 472 95 472 95 472 106 c 256,42,43
 472 117 472 117 461.5 124.5 c 128,-1,44
 451 132 451 132 431 139 c 0,45,46
 409 148 409 148 395.5 152 c 128,-1,47
 382 156 382 156 369 156 c 0,48,49
 360 156 360 156 356 154.5 c 128,-1,50
 352 153 352 153 347 148 c 128,-1,51
 342 143 342 143 337 138 c 0,52,53
 322 125 322 125 316 118 c 128,-1,54
 310 111 310 111 310 103 c 0,55,56
 310 99 310 99 313 93 c 0,57,58
 316 89 316 89 330 82 c 128,-1,59
 344 75 344 75 363 69 c 2,60,-1
 395 59 l 2,61,37
 405 56 405 56 410.5 55 c 128,-1,38
630.5 55 m 128,-1,63
 636 54 636 54 642 55 c 0,64,65
 653 57 653 57 672.5 76 c 128,-1,66
 692 95 692 95 692 106 c 256,67,68
 692 117 692 117 681.5 124.5 c 128,-1,69
 671 132 671 132 651 139 c 0,70,71
 629 148 629 148 615.5 152 c 128,-1,72
 602 156 602 156 589 156 c 0,73,74
 580 156 580 156 576 154.5 c 128,-1,75
 572 153 572 153 567 148 c 128,-1,76
 562 143 562 143 557 138 c 0,77,78
 542 125 542 125 536 118 c 128,-1,79
 530 111 530 111 530 103 c 0,80,81
 530 99 530 99 533 93 c 0,82,83
 536 89 536 89 550 82 c 128,-1,84
 564 75 564 75 583 69 c 2,85,-1
 615 59 l 2,86,62
 625 56 625 56 630.5 55 c 128,-1,63
830.5 55 m 128,-1,88
 836 54 836 54 842 55 c 0,89,90
 853 57 853 57 872.5 76 c 128,-1,91
 892 95 892 95 892 106 c 256,92,93
 892 117 892 117 881.5 124.5 c 128,-1,94
 871 132 871 132 851 139 c 0,95,96
 829 148 829 148 815.5 152 c 128,-1,97
 802 156 802 156 789 156 c 0,98,99
 780 156 780 156 776 154.5 c 128,-1,100
 772 153 772 153 767 148 c 128,-1,101
 762 143 762 143 757 138 c 0,102,103
 742 125 742 125 736 118 c 128,-1,104
 730 111 730 111 730 103 c 0,105,106
 730 99 730 99 733 93 c 0,107,108
 736 89 736 89 750 82 c 128,-1,109
 764 75 764 75 783 69 c 2,110,-1
 815 59 l 2,111,87
 825 56 825 56 830.5 55 c 128,-1,88
EndSplineSet
EndChar

StartChar: comma
Encoding: 44 44 67
Width: 670
GlyphClass: 1
Flags: W
LayerCount: 2
Fore
SplineSet
618.5 -334.5 m 128,-1,1
 630 -339 630 -339 635 -340 c 0,2,3
 643 -340 643 -340 638.5 -333.5 c 128,-1,4
 634 -327 634 -327 617 -312 c 0,5,6
 594 -293 594 -293 561 -275 c 0,7,8
 493 -238 493 -238 437.5 -200.5 c 128,-1,9
 382 -163 382 -163 352 -133 c 0,10,11
 199 12 199 12 146 258 c 0,12,13
 139 285 139 285 133 299.5 c 128,-1,14
 127 314 127 314 118 324 c 256,15,16
 109 334 109 334 98 336.5 c 128,-1,17
 87 339 87 339 63 337 c 0,18,19
 58 337 58 337 50 336 c 128,-1,20
 42 335 42 335 39 334 c 128,-1,21
 36 333 36 333 34 330 c 0,22,23
 30 326 30 326 30 322 c 0,24,25
 30 314 30 314 42 267 c 2,26,-1
 59 196 l 2,27,28
 81 105 81 105 130 15 c 0,29,30
 137 1 137 1 159 -27.5 c 128,-1,31
 181 -56 181 -56 199 -76 c 0,32,33
 226 -107 226 -107 285 -155 c 0,34,35
 397 -241 397 -241 591 -323 c 0,36,0
 607 -330 607 -330 618.5 -334.5 c 128,-1,1
410.5 55 m 128,-1,38
 416 54 416 54 422 55 c 0,39,40
 433 57 433 57 452.5 76 c 128,-1,41
 472 95 472 95 472 106 c 256,42,43
 472 117 472 117 461.5 124.5 c 128,-1,44
 451 132 451 132 431 139 c 0,45,46
 409 148 409 148 395.5 152 c 128,-1,47
 382 156 382 156 369 156 c 0,48,49
 360 156 360 156 356 154.5 c 128,-1,50
 352 153 352 153 347 148 c 128,-1,51
 342 143 342 143 337 138 c 0,52,53
 322 125 322 125 316 118 c 128,-1,54
 310 111 310 111 310 103 c 0,55,56
 310 99 310 99 313 93 c 0,57,58
 316 89 316 89 330 82 c 128,-1,59
 344 75 344 75 363 69 c 2,60,-1
 395 59 l 2,61,37
 405 56 405 56 410.5 55 c 128,-1,38
EndSplineSet
EndChar

StartChar: exclam
Encoding: 33 33 70
Width: 792
GlyphClass: 1
Flags: W
LayerCount: 2
Fore
SplineSet
696 -87 m 0,1,2
 713 -87 713 -87 723.5 -83.5 c 128,-1,3
 734 -80 734 -80 744 -72 c 0,4,5
 762 -58 762 -58 762 -26 c 0,6,7
 762 31 762 31 700 74 c 128,-1,8
 638 117 638 117 523 145 c 0,9,10
 333 192 333 192 212 192 c 0,11,12
 186 192 186 192 174 191 c 0,13,14
 115 189 115 189 76.5 181 c 128,-1,15
 38 173 38 173 31 162 c 0,16,17
 30 161 30 161 30 158 c 0,18,19
 30 151 30 151 39 148 c 0,20,21
 50 144 50 144 183 136 c 0,22,23
 250 132 250 132 333 116.5 c 128,-1,24
 416 101 416 101 466 82 c 0,25,26
 506 68 506 68 529 49.5 c 128,-1,27
 552 31 552 31 552 13 c 0,28,29
 552 1 552 1 544 -7 c 0,30,31
 539 -13 539 -13 525 -25 c 0,32,33
 517 -31 517 -31 510.5 -37.5 c 128,-1,34
 504 -44 504 -44 504 -49 c 0,35,36
 504 -57 504 -57 512.5 -60 c 128,-1,37
 521 -63 521 -63 545 -66 c 2,38,-1
 588 -74 l 2,39,0
 666 -87 666 -87 696 -87 c 0,1,2
EndSplineSet
EndChar

StartChar: question
Encoding: 63 63 71
Width: 718
GlyphClass: 1
Flags: W
LayerCount: 2
Fore
SplineSet
618.5 -334.5 m 128,-1,1
 630 -339 630 -339 635 -340 c 0,2,3
 643 -340 643 -340 638.5 -333.5 c 128,-1,4
 634 -327 634 -327 617 -312 c 0,5,6
 594 -293 594 -293 561 -275 c 0,7,8
 493 -238 493 -238 437.5 -200.5 c 128,-1,9
 382 -163 382 -163 352 -133 c 0,10,11
 199 12 199 12 146 258 c 0,12,13
 139 285 139 285 133 299.5 c 128,-1,14
 127 314 127 314 118 324 c 256,15,16
 109 334 109 334 98 336.5 c 128,-1,17
 87 339 87 339 63 337 c 0,18,19
 58 337 58 337 50 336 c 128,-1,20
 42 335 42 335 39 334 c 128,-1,21
 36 333 36 333 34 330 c 0,22,23
 30 326 30 326 30 322 c 0,24,25
 30 314 30 314 42 267 c 2,26,-1
 59 196 l 2,27,28
 81 105 81 105 130 15 c 0,29,30
 137 1 137 1 159 -27.5 c 128,-1,31
 181 -56 181 -56 199 -76 c 0,32,33
 226 -107 226 -107 285 -155 c 0,34,35
 397 -241 397 -241 591 -323 c 0,36,0
 607 -330 607 -330 618.5 -334.5 c 128,-1,1
373 223 m 0,38,39
 405 223 405 223 405 229 c 0,40,41
 405 233 405 233 394 266 c 2,42,-1
 383 304 l 2,43,44
 383 305 383 305 402 305 c 0,45,46
 430 305 430 305 450 304 c 2,47,-1
 538 302 l 2,48,49
 551 302 551 302 557 303.5 c 128,-1,50
 563 305 563 305 563 312 c 0,51,52
 563 317 563 317 560 320 c 128,-1,53
 557 323 557 323 550 328 c 0,54,55
 542 333 542 333 515.5 334 c 128,-1,56
 489 335 489 335 390 335 c 2,57,-1
 285 334 l 2,58,59
 284 334 284 334 284 331 c 0,60,61
 284 321 284 321 290 317 c 0,62,63
 300 312 300 312 309 283 c 0,64,65
 322 237 322 237 344 226 c 0,66,37
 350 223 350 223 373 223 c 0,38,39
410.5 55 m 128,-1,68
 416 54 416 54 422 55 c 0,69,70
 433 57 433 57 452.5 76 c 128,-1,71
 472 95 472 95 472 106 c 256,72,73
 472 117 472 117 461.5 124.5 c 128,-1,74
 451 132 451 132 431 139 c 0,75,76
 409 148 409 148 395.5 152 c 128,-1,77
 382 156 382 156 369 156 c 0,78,79
 360 156 360 156 356 154.5 c 128,-1,80
 352 153 352 153 347 148 c 128,-1,81
 342 143 342 143 337 138 c 0,82,83
 322 125 322 125 316 118 c 128,-1,84
 310 111 310 111 310 103 c 0,85,86
 310 99 310 99 313 93 c 0,87,88
 316 89 316 89 330 82 c 128,-1,89
 344 75 344 75 363 69 c 2,90,-1
 395 59 l 2,91,67
 405 56 405 56 410.5 55 c 128,-1,68
EndSplineSet
EndChar

StartChar: numbersign
Encoding: 35 35 73
Width: 1061
GlyphClass: 1
Flags: W
LayerCount: 2
Fore
SplineSet
1031 -110 m 0,1,2
 1031 -94 1031 -94 1000 -64 c 0,3,4
 914 27 914 27 753.5 92 c 128,-1,5
 593 157 593 157 426 180 c 0,6,7
 331 195 331 195 248 195 c 0,8,9
 150 195 150 195 90 170.5 c 128,-1,10
 30 146 30 146 30 90 c 0,11,12
 30 68 30 68 33 55.5 c 128,-1,13
 36 43 36 43 45 30 c 0,14,15
 62 5 62 5 80.5 -8 c 128,-1,16
 99 -21 99 -21 115.5 -26 c 128,-1,17
 132 -31 132 -31 178 -42 c 0,18,19
 235 -53 235 -53 267 -53 c 0,20,21
 292 -53 292 -53 292 -46 c 0,22,23
 292 -43 292 -43 280 -35 c 0,24,25
 243 -11 243 -11 225.5 6 c 128,-1,26
 208 23 208 23 208 44 c 0,27,28
 208 53 208 53 211 62 c 0,29,30
 224 98 224 98 271.5 111.5 c 128,-1,31
 319 125 319 125 378 125 c 0,32,33
 532 125 532 125 685 53 c 0,34,35
 734 29 734 29 753.5 16.5 c 128,-1,36
 773 4 773 4 789 -17 c 0,37,38
 816 -50 816 -50 818 -81 c 0,39,40
 819 -92 819 -92 822 -97 c 128,-1,41
 825 -102 825 -102 836.5 -106.5 c 128,-1,42
 848 -111 848 -111 874 -115 c 0,43,44
 911 -120 911 -120 953 -124.5 c 128,-1,45
 995 -129 995 -129 1012 -127 c 0,46,0
 1031 -123 1031 -123 1031 -110 c 0,1,2
708 -162 m 0,48,49
 720 -162 720 -162 727 -158 c 0,50,51
 748 -147 748 -147 748 -116 c 0,52,53
 748 -75 748 -75 710.5 -39.5 c 128,-1,54
 673 -4 673 -4 608 17 c 0,55,56
 560 32 560 32 499.5 42 c 128,-1,57
 439 52 439 52 388 52 c 0,58,59
 325 52 325 52 299 37 c 0,60,61
 288 32 288 32 288 26 c 0,62,63
 288 21 288 21 300.5 18 c 128,-1,64
 313 15 313 15 342 11 c 0,65,66
 350 9 350 9 366 7 c 0,67,68
 484 -13 484 -13 534.5 -27 c 128,-1,69
 585 -41 585 -41 603 -62 c 0,70,71
 613 -72 613 -72 613 -85 c 0,72,73
 613 -101 613 -101 591 -123 c 0,74,75
 584 -130 584 -130 584 -133 c 0,76,77
 584 -137 584 -137 598.5 -141.5 c 128,-1,78
 613 -146 613 -146 639 -151 c 0,79,47
 694 -162 694 -162 708 -162 c 0,48,49
EndSplineSet
EndChar

StartChar: slash
Encoding: 47 47 74
Width: 340
GlyphClass: 1
Flags: W
LayerCount: 2
Fore
SplineSet
618.5 -334.5 m 128,-1,1
 630 -339 630 -339 635 -340 c 0,2,3
 643 -340 643 -340 638.5 -333.5 c 128,-1,4
 634 -327 634 -327 617 -312 c 0,5,6
 594 -293 594 -293 561 -275 c 0,7,8
 493 -238 493 -238 437.5 -200.5 c 128,-1,9
 382 -163 382 -163 352 -133 c 0,10,11
 199 12 199 12 146 258 c 0,12,13
 139 285 139 285 133 299.5 c 128,-1,14
 127 314 127 314 118 324 c 256,15,16
 109 334 109 334 98 336.5 c 128,-1,17
 87 339 87 339 63 337 c 0,18,19
 58 337 58 337 50 336 c 128,-1,20
 42 335 42 335 39 334 c 128,-1,21
 36 333 36 333 34 330 c 0,22,23
 30 326 30 326 30 322 c 0,24,25
 30 314 30 314 42 267 c 2,26,-1
 59 196 l 2,27,28
 81 105 81 105 130 15 c 0,29,30
 137 1 137 1 159 -27.5 c 128,-1,31
 181 -56 181 -56 199 -76 c 0,32,33
 226 -107 226 -107 285 -155 c 0,34,35
 397 -241 397 -241 591 -323 c 0,36,0
 607 -330 607 -330 618.5 -334.5 c 128,-1,1
EndSplineSet
EndChar

StartChar: backslash
Encoding: 92 92 75
Width: 86
GlyphClass: 1
Flags: W
LayerCount: 2
Fore
SplineSet
43 -86 m 256,1,2
 49 -86 49 -86 54 -81 c 0,3,4
 57 -78 57 -78 58.5 -65.5 c 128,-1,5
 60 -53 60 -53 60 -19 c 0,6,7
 59 98 59 98 57 134.5 c 128,-1,8
 55 171 55 171 51 181 c 0,9,10
 48 188 48 188 41 188 c 256,11,12
 34 188 34 188 31 181 c 0,13,14
 27 172 27 172 26.5 127 c 128,-1,15
 26 82 26 82 26 -19 c 0,16,17
 26 -53 26 -53 27.5 -65.5 c 128,-1,18
 29 -78 29 -78 32 -81 c 0,19,0
 37 -86 37 -86 43 -86 c 256,1,2
EndSplineSet
EndChar

StartChar: braceright
Encoding: 125 125 78
Width: 0
GlyphClass: 1
Flags: W
LayerCount: 2
Fore
SplineSet
-1042 167 m 256,1,2
 -1037 167 -1037 167 -1031 171 c 0,3,4
 -1028 174 -1028 174 -1026.5 184.5 c 128,-1,5
 -1025 195 -1025 195 -1025 224 c 0,6,7
 -1026 323 -1026 323 -1028 354 c 128,-1,8
 -1030 385 -1030 385 -1034 394 c 0,9,10
 -1037 400 -1037 400 -1044 400 c 256,11,12
 -1051 400 -1051 400 -1054 394 c 0,13,14
 -1058 387 -1058 387 -1058.5 348.5 c 128,-1,15
 -1059 310 -1059 310 -1059 224 c 0,16,17
 -1059 195 -1059 195 -1057.5 184.5 c 128,-1,18
 -1056 174 -1056 174 -1053 171 c 0,19,0
 -1047 167 -1047 167 -1042 167 c 256,1,2
EndSplineSet
EndChar

StartChar: bracketleft
Encoding: 91 91 79
Width: 0
GlyphClass: 1
Flags: W
LayerCount: 2
Fore
SplineSet
539.5 -328.5 m 128,-1,1
 610 -315 610 -315 671 -293.5 c 128,-1,2
 732 -272 732 -272 753 -253 c 0,3,4
 757 -250 757 -250 757 -245 c 0,5,6
 757 -239 757 -239 749 -236 c 0,7,8
 744 -234 744 -234 731.5 -237 c 128,-1,9
 719 -240 719 -240 694 -248 c 0,10,11
 625 -270 625 -270 570 -281 c 128,-1,12
 515 -292 515 -292 463 -292 c 0,13,14
 371 -292 371 -292 282 -253 c 0,15,16
 177 -207 177 -207 84.5 -184.5 c 128,-1,17
 -8 -162 -8 -162 -101 -162 c 0,18,19
 -150 -162 -150 -162 -201 -168 c 0,20,21
 -394 -191 -394 -191 -453 -211 c 2,22,-1
 -472 -218 l 2,23,24
 -473 -218 -473 -218 -470.5 -197.5 c 128,-1,25
 -468 -177 -468 -177 -468 -171 c 0,26,27
 -468 -159 -468 -159 -481.5 -150.5 c 128,-1,28
 -495 -142 -495 -142 -511 -144 c 0,29,30
 -528 -146 -528 -146 -547.5 -151.5 c 128,-1,31
 -567 -157 -567 -157 -573 -161 c 0,32,33
 -584 -170 -584 -170 -587.5 -179 c 128,-1,34
 -591 -188 -591 -188 -593 -219 c 0,35,36
 -595 -247 -595 -247 -597.5 -258 c 128,-1,37
 -600 -269 -600 -269 -610 -294 c 0,38,39
 -613 -302 -613 -302 -617.5 -312 c 128,-1,40
 -622 -322 -622 -322 -623 -326.5 c 128,-1,41
 -624 -331 -624 -331 -620 -331 c 0,42,43
 -613 -331 -613 -331 -543 -306 c 0,44,45
 -393 -255 -393 -255 -283 -231.5 c 128,-1,46
 -173 -208 -173 -208 -87 -206 c 0,47,48
 -28 -206 -28 -206 23 -221.5 c 128,-1,49
 74 -237 74 -237 149 -269 c 0,50,51
 230 -303 230 -303 289 -320.5 c 128,-1,52
 348 -338 348 -338 422 -341 c 0,53,0
 469 -342 469 -342 539.5 -328.5 c 128,-1,1
EndSplineSet
EndChar

StartChar: bracketright
Encoding: 93 93 80
Width: 0
GlyphClass: 1
Flags: W
LayerCount: 2
Fore
SplineSet
-633.5 -389 m 128,-1,1
 -617 -385 -617 -385 -591 -377 c 0,2,3
 -573 -370 -573 -370 -554 -365 c 0,4,5
 -484 -343 -484 -343 -330 -308.5 c 128,-1,6
 -176 -274 -176 -274 -83 -257 c 0,7,8
 -80 -257 -80 -257 -78 -261.5 c 128,-1,9
 -76 -266 -76 -266 -71 -277 c 0,10,11
 -62 -299 -62 -299 -42.5 -317.5 c 128,-1,12
 -23 -336 -23 -336 -1 -346 c 0,13,14
 24 -357 24 -357 53 -357 c 0,15,16
 95 -357 95 -357 139.5 -337.5 c 128,-1,17
 184 -318 184 -318 215 -287 c 2,18,-1
 229 -273 l 1,19,-1
 246 -276 l 2,20,21
 332 -292 332 -292 436 -329 c 0,22,23
 519 -357 519 -357 571 -369 c 0,24,25
 601 -375 601 -375 637 -375 c 0,26,27
 663 -375 663 -375 679 -371 c 0,28,29
 753 -353 753 -353 753 -294 c 0,30,31
 753 -267 753 -267 733.5 -258.5 c 128,-1,32
 714 -250 714 -250 667 -250 c 0,33,34
 626 -250 626 -250 611.5 -258.5 c 128,-1,35
 597 -267 597 -267 601 -291 c 0,36,37
 604 -308 604 -308 596 -316 c 128,-1,38
 588 -324 588 -324 575 -324 c 0,39,40
 568 -324 568 -324 411 -277 c 2,41,-1
 251 -231 l 1,42,-1
 250 -199 l 2,43,44
 250 -148 250 -148 233 -123 c 128,-1,45
 216 -98 216 -98 168 -88 c 0,46,47
 151 -84 151 -84 126 -84 c 0,48,49
 76 -84 76 -84 29 -104.5 c 128,-1,50
 -18 -125 -18 -125 -41 -158 c 0,51,52
 -49 -171 -49 -171 -58 -181.5 c 128,-1,53
 -67 -192 -67 -192 -72 -194 c 0,54,55
 -76 -196 -76 -196 -98 -198 c 0,56,57
 -196 -204 -196 -204 -457 -266 c 2,58,-1
 -488 -273 l 2,59,60
 -489 -273 -489 -273 -489 -242 c 0,61,62
 -489 -215 -489 -215 -491 -208 c 128,-1,63
 -493 -201 -493 -201 -501 -201 c 0,64,65
 -516 -201 -516 -201 -563.5 -221 c 128,-1,66
 -611 -241 -611 -241 -626 -253 c 0,67,68
 -631 -257 -631 -257 -631 -270 c 0,69,70
 -631 -278 -631 -278 -630 -287 c 128,-1,71
 -629 -296 -629 -296 -629 -306 c 0,72,73
 -629 -340 -629 -340 -631 -352.5 c 128,-1,74
 -633 -365 -633 -365 -645 -379 c 0,75,76
 -650 -386 -650 -386 -650 -389 c 0,77,0
 -650 -393 -650 -393 -633.5 -389 c 128,-1,1
169 -209 m 0,79,80
 158 -209 158 -209 118 -204 c 2,81,-1
 70 -199 l 2,82,83
 37 -196 37 -196 24.5 -194.5 c 128,-1,84
 12 -193 12 -193 12 -190 c 0,85,86
 12 -184 12 -184 22.5 -169.5 c 128,-1,87
 33 -155 33 -155 43 -148 c 0,88,89
 60 -136 60 -136 80.5 -129 c 128,-1,90
 101 -122 101 -122 119 -122 c 0,91,92
 132 -122 132 -122 145 -127 c 0,93,94
 160 -134 160 -134 171 -148.5 c 128,-1,95
 182 -163 182 -163 182 -176 c 0,96,97
 182 -186 182 -186 177 -199 c 0,98,78
 173 -209 173 -209 169 -209 c 0,79,80
6 -248 m 128,-1,100
 8 -246 8 -246 20 -246 c 0,101,102
 145 -249 145 -249 145 -257 c 0,103,104
 145 -260 145 -260 136.5 -271.5 c 128,-1,105
 128 -283 128 -283 121 -290 c 0,106,107
 101 -310 101 -310 68 -310 c 0,108,109
 42 -310 42 -310 23 -297 c 128,-1,110
 4 -284 4 -284 4 -261 c 0,111,99
 4 -250 4 -250 6 -248 c 128,-1,100
EndSplineSet
EndChar

StartChar: hyphen
Encoding: 45 45 81
Width: 359
GlyphClass: 1
Flags: W
LayerCount: 2
Fore
SplineSet
198 -44 m 0,1,2
 215 -31 215 -31 223 -13.5 c 128,-1,3
 231 4 231 4 239 33 c 0,4,5
 245 55 245 55 250.5 69.5 c 128,-1,6
 256 84 256 84 265 96 c 0,7,8
 279 115 279 115 279 123 c 0,9,10
 279 129 279 129 274 132 c 0,11,12
 265 138 265 138 238 140.5 c 128,-1,13
 211 143 211 143 188 143 c 0,14,15
 155 143 155 143 138.5 135 c 128,-1,16
 122 127 122 127 108 101 c 0,17,18
 101 88 101 88 92 50 c 0,19,20
 87 26 87 26 82.5 13.5 c 128,-1,21
 78 1 78 1 69 -6 c 0,22,23
 40 -29 40 -29 40 -44 c 0,24,25
 40 -68 40 -68 120 -68 c 0,26,0
 166 -68 166 -68 198 -44 c 0,1,2
EndSplineSet
EndChar

StartChar: underscore
Encoding: 95 95 82
Width: 1811
GlyphClass: 1
Flags: W
LayerCount: 2
Fore
SplineSet
1781 -110 m 0,1,2
 1781 -94 1781 -94 1750 -64 c 0,3,4
 1664 27 1664 27 1503.5 92 c 128,-1,5
 1343 157 1343 157 1176 180 c 0,6,7
 1081 195 1081 195 998 195 c 0,8,9
 900 195 900 195 840 170.5 c 128,-1,10
 780 146 780 146 780 90 c 0,11,12
 780 68 780 68 783 55.5 c 128,-1,13
 786 43 786 43 795 30 c 0,14,15
 812 5 812 5 830.5 -8 c 128,-1,16
 849 -21 849 -21 865.5 -26 c 128,-1,17
 882 -31 882 -31 928 -42 c 0,18,19
 985 -53 985 -53 1017 -53 c 0,20,21
 1042 -53 1042 -53 1042 -46 c 0,22,23
 1042 -43 1042 -43 1030 -35 c 0,24,25
 993 -11 993 -11 975.5 6 c 128,-1,26
 958 23 958 23 958 44 c 0,27,28
 958 53 958 53 961 62 c 0,29,30
 974 98 974 98 1021.5 111.5 c 128,-1,31
 1069 125 1069 125 1128 125 c 0,32,33
 1282 125 1282 125 1435 53 c 0,34,35
 1484 29 1484 29 1503.5 16.5 c 128,-1,36
 1523 4 1523 4 1539 -17 c 0,37,38
 1566 -50 1566 -50 1568 -81 c 0,39,40
 1569 -92 1569 -92 1572 -97 c 128,-1,41
 1575 -102 1575 -102 1586.5 -106.5 c 128,-1,42
 1598 -111 1598 -111 1624 -115 c 0,43,44
 1661 -120 1661 -120 1703 -124.5 c 128,-1,45
 1745 -129 1745 -129 1762 -127 c 0,46,0
 1781 -123 1781 -123 1781 -110 c 0,1,2
696 -87 m 0,48,49
 713 -87 713 -87 723.5 -83.5 c 128,-1,50
 734 -80 734 -80 744 -72 c 0,51,52
 762 -58 762 -58 762 -26 c 0,53,54
 762 31 762 31 700 74 c 128,-1,55
 638 117 638 117 523 145 c 0,56,57
 333 192 333 192 212 192 c 0,58,59
 186 192 186 192 174 191 c 0,60,61
 115 189 115 189 76.5 181 c 128,-1,62
 38 173 38 173 31 162 c 0,63,64
 30 161 30 161 30 158 c 0,65,66
 30 151 30 151 39 148 c 0,67,68
 50 144 50 144 183 136 c 0,69,70
 250 132 250 132 333 116.5 c 128,-1,71
 416 101 416 101 466 82 c 0,72,73
 506 68 506 68 529 49.5 c 128,-1,74
 552 31 552 31 552 13 c 0,75,76
 552 1 552 1 544 -7 c 0,77,78
 539 -13 539 -13 525 -25 c 0,79,80
 517 -31 517 -31 510.5 -37.5 c 128,-1,81
 504 -44 504 -44 504 -49 c 0,82,83
 504 -57 504 -57 512.5 -60 c 128,-1,84
 521 -63 521 -63 545 -66 c 2,85,-1
 588 -74 l 2,86,47
 666 -87 666 -87 696 -87 c 0,48,49
EndSplineSet
EndChar

StartChar: quoteleft
Encoding: 8216 8216 85
Width: 0
GlyphClass: 1
Flags: W
LayerCount: 2
Fore
SplineSet
542 -507 m 0,1,2
 669 -507 669 -507 786 -475 c 0,3,4
 847 -458 847 -458 878 -444.5 c 128,-1,5
 909 -431 909 -431 950 -407 c 0,6,7
 1029 -364 1029 -364 1049 -354 c 0,8,9
 1166 -296 1166 -296 1240 -288 c 0,10,11
 1259 -286 1259 -286 1259 -282 c 256,12,13
 1259 -278 1259 -278 1246 -271 c 0,14,15
 1230 -263 1230 -263 1175.5 -255.5 c 128,-1,16
 1121 -248 1121 -248 1078 -248 c 0,17,18
 1051 -248 1051 -248 1033.5 -250 c 128,-1,19
 1016 -252 1016 -252 997 -258 c 0,20,21
 979 -264 979 -264 918 -304 c 0,22,23
 868 -335 868 -335 855 -343 c 0,24,25
 759 -397 759 -397 676 -427 c 128,-1,26
 593 -457 593 -457 516 -464 c 0,27,28
 510 -465 510 -465 495 -465 c 0,29,30
 448 -465 448 -465 306 -447 c 0,31,32
 205 -435 205 -435 132 -427 c 2,33,-1
 107 -424 l 2,34,35
 79 -420 79 -420 75 -420 c 0,36,37
 72 -420 72 -420 72 -425 c 128,-1,38
 72 -430 72 -430 76 -431 c 0,39,40
 123 -444 123 -444 177 -457 c 0,41,42
 359 -499 359 -499 498 -506 c 0,43,0
 512 -507 512 -507 542 -507 c 0,1,2
EndSplineSet
EndChar

StartChar: guillemotleft
Encoding: 171 171 86
Width: 0
GlyphClass: 1
Flags: W
LayerCount: 2
Fore
SplineSet
-272 162 m 256,1,2
 -267 162 -267 162 -261 166 c 0,3,4
 -258 169 -258 169 -256.5 179.5 c 128,-1,5
 -255 190 -255 190 -255 219 c 0,6,7
 -256 318 -256 318 -258 349 c 128,-1,8
 -260 380 -260 380 -264 389 c 0,9,10
 -267 395 -267 395 -274 395 c 256,11,12
 -281 395 -281 395 -284 389 c 0,13,14
 -288 382 -288 382 -288.5 343.5 c 128,-1,15
 -289 305 -289 305 -289 219 c 0,16,17
 -289 190 -289 190 -287.5 179.5 c 128,-1,18
 -286 169 -286 169 -283 166 c 0,19,0
 -277 162 -277 162 -272 162 c 256,1,2
EndSplineSet
EndChar

StartChar: quotesingle
Encoding: 39 39 88
Width: 0
GlyphClass: 1
Flags: W
LayerCount: 2
Fore
SplineSet
-32 -249 m 128,-1,1
 33 -209 33 -209 33 -204 c 0,2,3
 33 -201 33 -201 32 -200 c 2,4,-1
 6 -196 l 2,5,6
 -4 -195 -4 -195 -64 -186 c 2,7,-1
 -158 -171 l 1,8,-1
 -1184 -193 l 1,9,10
 -1203 -212 -1203 -212 -1203 -214 c 0,11,12
 -1203 -225 -1203 -225 -946 -225 c 0,13,14
 -767 -225 -767 -225 -477 -221 c 0,15,16
 -328 -218 -328 -218 -249 -218 c 1,17,18
 -279 -258 -279 -258 -312 -291 c 0,19,20
 -314 -293 -314 -293 -314.5 -295 c 128,-1,21
 -315 -297 -315 -297 -313 -298 c 0,22,23
 -306 -305 -306 -305 -246.5 -309 c 128,-1,24
 -187 -313 -187 -313 -145 -313 c 1,25,0
 -97 -289 -97 -289 -32 -249 c 128,-1,1
EndSplineSet
EndChar

StartChar: dollar
Encoding: 36 36 89
Width: 1055
GlyphClass: 1
Flags: W
LayerCount: 2
Fore
SplineSet
603.5 -67.5 m 128,-1,1
 623 -65 623 -65 641 -49 c 0,2,3
 648 -43 648 -43 659.5 -27 c 128,-1,4
 671 -11 671 -11 672 -10 c 256,5,6
 673 -9 673 -9 682 -9 c 0,7,8
 717 -9 717 -9 789.5 -6 c 128,-1,9
 862 -3 862 -3 918 0 c 0,10,11
 956 2 956 2 978 6.5 c 128,-1,12
 1000 11 1000 11 1012 20 c 0,13,14
 1031 33 1031 33 1023 38 c 0,15,16
 1018 41 1018 41 956 41 c 2,17,-1
 879 41 l 2,18,19
 758 42 758 42 727 43 c 128,-1,20
 696 44 696 44 696 47 c 256,21,22
 696 50 696 50 705 70 c 0,23,24
 723 112 723 112 720 115 c 0,25,26
 718 117 718 117 640 117 c 0,27,28
 614 117 614 117 606.5 115.5 c 128,-1,29
 599 114 599 114 596 107 c 0,30,31
 591 97 591 97 580 77 c 128,-1,32
 569 57 569 57 563 47 c 0,33,34
 562 46 562 46 554 46 c 0,35,36
 534 46 534 46 457 53 c 0,37,38
 395 61 395 61 355.5 75.5 c 128,-1,39
 316 90 316 90 286 120 c 0,40,41
 259 148 259 148 237 186.5 c 128,-1,42
 215 225 215 225 205 270 c 0,43,44
 196 310 196 310 183 334.5 c 128,-1,45
 170 359 170 359 150 373 c 0,46,47
 140 380 140 380 131.5 381.5 c 128,-1,48
 123 383 123 383 106.5 384.5 c 128,-1,49
 90 386 90 386 80 387 c 0,50,51
 68 388 68 388 58.5 389 c 128,-1,52
 49 390 49 390 42 390 c 0,53,54
 31 390 31 390 31 385 c 0,55,56
 31 372 31 372 56 294 c 128,-1,57
 81 216 81 216 95 184 c 0,58,59
 130 109 130 109 181 71.5 c 128,-1,60
 232 34 232 34 322 13 c 0,61,62
 352 6 352 6 409 0.5 c 128,-1,63
 466 -5 466 -5 502 -5 c 0,64,65
 534 -5 534 -5 534 -6 c 0,66,67
 534 -10 534 -10 517 -33 c 0,68,69
 500 -59 500 -59 500 -60 c 0,70,71
 500 -66 500 -66 504 -68 c 128,-1,72
 508 -70 508 -70 517 -70 c 0,73,0
 584 -70 584 -70 603.5 -67.5 c 128,-1,1
EndSplineSet
EndChar

StartChar: florin
Encoding: 402 402 90
Width: 0
GlyphClass: 1
Flags: W
LayerCount: 2
Fore
SplineSet
-590.5 -236 m 128,-1,1
 -585 -237 -585 -237 -579 -236 c 0,2,3
 -568 -233 -568 -233 -549 -216.5 c 128,-1,4
 -530 -200 -530 -200 -529 -188 c 2,5,-1
 -529 -184 l 2,6,7
 -529 -179 -529 -179 -535 -172 c 0,8,9
 -539 -167 -539 -167 -544 -164 c 128,-1,10
 -549 -161 -549 -161 -556.5 -158 c 128,-1,11
 -564 -155 -564 -155 -570 -152 c 0,12,13
 -592 -143 -592 -143 -605.5 -139 c 128,-1,14
 -619 -135 -619 -135 -632 -135 c 0,15,16
 -641 -135 -641 -135 -645 -136.5 c 128,-1,17
 -649 -138 -649 -138 -654 -143 c 128,-1,18
 -659 -148 -659 -148 -664 -153 c 0,19,20
 -679 -166 -679 -166 -685 -173 c 128,-1,21
 -691 -180 -691 -180 -691 -188 c 0,22,23
 -691 -192 -691 -192 -688 -198 c 0,24,25
 -685 -202 -685 -202 -671 -209 c 128,-1,26
 -657 -216 -657 -216 -638 -222 c 2,27,-1
 -606 -232 l 2,28,0
 -596 -235 -596 -235 -590.5 -236 c 128,-1,1
-380.5 -236 m 128,-1,30
 -375 -237 -375 -237 -369 -236 c 0,31,32
 -358 -233 -358 -233 -339 -216.5 c 128,-1,33
 -320 -200 -320 -200 -319 -188 c 2,34,-1
 -319 -184 l 2,35,36
 -319 -179 -319 -179 -325 -172 c 0,37,38
 -329 -167 -329 -167 -334 -164 c 128,-1,39
 -339 -161 -339 -161 -346.5 -158 c 128,-1,40
 -354 -155 -354 -155 -360 -152 c 0,41,42
 -382 -143 -382 -143 -395.5 -139 c 128,-1,43
 -409 -135 -409 -135 -422 -135 c 0,44,45
 -431 -135 -431 -135 -435 -136.5 c 128,-1,46
 -439 -138 -439 -138 -444 -143 c 128,-1,47
 -449 -148 -449 -148 -454 -153 c 0,48,49
 -469 -166 -469 -166 -475 -173 c 128,-1,50
 -481 -180 -481 -180 -481 -188 c 0,51,52
 -481 -192 -481 -192 -478 -198 c 0,53,54
 -475 -202 -475 -202 -461 -209 c 128,-1,55
 -447 -216 -447 -216 -428 -222 c 2,56,-1
 -396 -232 l 2,57,29
 -386 -235 -386 -235 -380.5 -236 c 128,-1,30
EndSplineSet
EndChar

StartChar: plus
Encoding: 43 43 91
Width: 332
GlyphClass: 1
Flags: W
LayerCount: 2
Fore
SplineSet
163.5 -88.5 m 128,-1,1
 174 -85 174 -85 179 -81 c 0,2,3
 186 -76 186 -76 187.5 -67 c 128,-1,4
 189 -58 189 -58 189 -21 c 0,5,6
 189 7 189 7 189.5 16.5 c 128,-1,7
 190 26 190 26 190 27 c 0,8,9
 204 29 204 29 241 32 c 128,-1,10
 278 35 278 35 296 35 c 2,11,-1
 312 35 l 1,12,-1
 314 39 l 2,13,14
 316 42 316 42 316 46 c 0,15,16
 316 52 316 52 314 58 c 2,17,-1
 308 76 l 1,18,-1
 304 81 l 1,19,-1
 247 82 l 1,20,-1
 190 82 l 1,21,-1
 188 112 l 2,22,23
 187 145 187 145 183 161.5 c 128,-1,24
 179 178 179 178 170 186 c 0,25,26
 164 191 164 191 158 191 c 2,27,-1
 145 189 l 2,28,29
 138 188 138 188 134 184 c 0,30,31
 131 181 131 181 129 162 c 128,-1,32
 127 143 127 143 127 117 c 2,33,-1
 125 83 l 1,34,35
 120 82 120 82 61 77 c 2,36,-1
 38 75 l 2,37,38
 17 73 17 73 17 73 c 2,39,40
 15 71 15 71 15 65 c 0,41,42
 15 50 15 50 23 23 c 0,43,44
 24 21 24 21 24.5 18.5 c 128,-1,45
 25 16 25 16 26.5 15 c 128,-1,46
 28 14 28 14 32 14 c 0,47,48
 42 14 42 14 66 18 c 2,49,-1
 99 22 l 2,50,51
 123 24 123 24 123 23 c 1,52,53
 124 23 124 23 126 -10 c 0,54,55
 128 -50 128 -50 132 -71 c 128,-1,56
 136 -92 136 -92 147 -92 c 0,57,0
 153 -92 153 -92 163.5 -88.5 c 128,-1,1
EndSplineSet
EndChar

StartChar: equal
Encoding: 61 61 92
Width: 160
GlyphClass: 1
Flags: W
LayerCount: 2
Fore
SplineSet
35 446 m 0,1,2
 45 446 45 446 57.5 453 c 128,-1,3
 70 460 70 460 80 470 c 0,4,5
 116 507 116 507 135.5 549 c 128,-1,6
 155 591 155 591 155 626 c 0,7,8
 155 665 155 665 138.5 700 c 128,-1,9
 122 735 122 735 98 746 c 0,10,11
 83 752 83 752 69 752 c 0,12,13
 42 752 42 752 23.5 734 c 128,-1,14
 5 716 5 716 5 685 c 0,15,16
 5 660 5 660 20.5 647.5 c 128,-1,17
 36 635 36 635 63 635 c 0,18,19
 75 635 75 635 90 638 c 2,20,-1
 91 638 l 2,21,22
 96 638 96 638 96 628 c 2,23,-1
 94 609 l 2,24,25
 89 570 89 570 77.5 544 c 128,-1,26
 66 518 66 518 38 487 c 0,27,28
 20 468 20 468 20 458 c 0,29,30
 20 451 20 451 27 448 c 0,31,0
 31 446 31 446 35 446 c 0,1,2
EndSplineSet
EndChar

StartChar: notequal
Encoding: 8800 8800 93
Width: 0
GlyphClass: 1
Flags: W
LayerCount: 2
Fore
SplineSet
10 482 m 0,1,2
 -32 539 -32 539 -72 567 c 0,3,4
 -128 608 -128 608 -197.5 630 c 128,-1,5
 -267 652 -267 652 -342 652 c 0,6,7
 -389 652 -389 652 -435 643 c 0,8,9
 -583 615 -583 615 -683 491 c 0,10,11
 -709 458 -709 458 -719.5 443 c 128,-1,12
 -730 428 -730 428 -730 422 c 0,13,14
 -730 414 -730 414 -715 414 c 0,15,16
 -703 414 -703 414 -692.5 422 c 128,-1,17
 -682 430 -682 430 -670 443 c 128,-1,18
 -658 456 -658 456 -653 461 c 0,19,20
 -615 500 -615 500 -574.5 529.5 c 128,-1,21
 -534 559 -534 559 -497 572 c 0,22,23
 -431 596 -431 596 -361 596 c 0,24,25
 -272 596 -272 596 -180 557 c 0,26,27
 -139 540 -139 540 -102.5 515 c 128,-1,28
 -66 490 -66 490 -48 466 c 0,29,30
 -39 453 -39 453 -25 439.5 c 128,-1,31
 -11 426 -11 426 -2 419 c 0,32,33
 9 411 9 411 23 411 c 0,34,35
 39 411 39 411 43 422 c 0,36,0
 47 432 47 432 10 482 c 0,1,2
-342 435 m 0,38,39
 -326 435 -326 435 -319 439 c 256,40,41
 -312 443 -312 443 -302.5 452 c 128,-1,42
 -293 461 -293 461 -290 470 c 0,43,44
 -286 482 -286 482 -286 490 c 0,45,46
 -286 503 -286 503 -291 513 c 0,47,48
 -298 527 -298 527 -311 534.5 c 128,-1,49
 -324 542 -324 542 -339 542 c 256,50,51
 -354 542 -354 542 -367.5 534 c 128,-1,52
 -381 526 -381 526 -388 511 c 0,53,54
 -391 504 -391 504 -391 489 c 0,55,56
 -391 469 -391 469 -387 462 c 256,57,58
 -383 455 -383 455 -375.5 448 c 128,-1,59
 -368 441 -368 441 -361 438 c 0,60,37
 -355 435 -355 435 -342 435 c 0,38,39
EndSplineSet
EndChar

StartChar: greater
Encoding: 62 62 94
Width: 1122
GlyphClass: 1
Flags: W
LayerCount: 2
Fore
SplineSet
618.5 -334.5 m 128,-1,1
 630 -339 630 -339 635 -340 c 0,2,3
 643 -340 643 -340 638.5 -333.5 c 128,-1,4
 634 -327 634 -327 617 -312 c 0,5,6
 594 -293 594 -293 561 -275 c 0,7,8
 493 -238 493 -238 437.5 -200.5 c 128,-1,9
 382 -163 382 -163 352 -133 c 0,10,11
 199 12 199 12 146 258 c 0,12,13
 139 285 139 285 133 299.5 c 128,-1,14
 127 314 127 314 118 324 c 256,15,16
 109 334 109 334 98 336.5 c 128,-1,17
 87 339 87 339 63 337 c 0,18,19
 58 337 58 337 50 336 c 128,-1,20
 42 335 42 335 39 334 c 128,-1,21
 36 333 36 333 34 330 c 0,22,23
 30 326 30 326 30 322 c 0,24,25
 30 314 30 314 42 267 c 2,26,-1
 59 196 l 2,27,28
 81 105 81 105 130 15 c 0,29,30
 137 1 137 1 159 -27.5 c 128,-1,31
 181 -56 181 -56 199 -76 c 0,32,33
 226 -107 226 -107 285 -155 c 0,34,35
 397 -241 397 -241 591 -323 c 0,36,0
 607 -330 607 -330 618.5 -334.5 c 128,-1,1
410.5 55 m 128,-1,38
 416 54 416 54 422 55 c 0,39,40
 433 57 433 57 452.5 76 c 128,-1,41
 472 95 472 95 472 106 c 256,42,43
 472 117 472 117 461.5 124.5 c 128,-1,44
 451 132 451 132 431 139 c 0,45,46
 409 148 409 148 395.5 152 c 128,-1,47
 382 156 382 156 369 156 c 0,48,49
 360 156 360 156 356 154.5 c 128,-1,50
 352 153 352 153 347 148 c 128,-1,51
 342 143 342 143 337 138 c 0,52,53
 322 125 322 125 316 118 c 128,-1,54
 310 111 310 111 310 103 c 0,55,56
 310 99 310 99 313 93 c 0,57,58
 316 89 316 89 330 82 c 128,-1,59
 344 75 344 75 363 69 c 2,60,-1
 395 59 l 2,61,37
 405 56 405 56 410.5 55 c 128,-1,38
630.5 55 m 128,-1,63
 636 54 636 54 642 55 c 0,64,65
 653 57 653 57 672.5 76 c 128,-1,66
 692 95 692 95 692 106 c 256,67,68
 692 117 692 117 681.5 124.5 c 128,-1,69
 671 132 671 132 651 139 c 0,70,71
 629 148 629 148 615.5 152 c 128,-1,72
 602 156 602 156 589 156 c 0,73,74
 580 156 580 156 576 154.5 c 128,-1,75
 572 153 572 153 567 148 c 128,-1,76
 562 143 562 143 557 138 c 0,77,78
 542 125 542 125 536 118 c 128,-1,79
 530 111 530 111 530 103 c 0,80,81
 530 99 530 99 533 93 c 0,82,83
 536 89 536 89 550 82 c 128,-1,84
 564 75 564 75 583 69 c 2,85,-1
 615 59 l 2,86,62
 625 56 625 56 630.5 55 c 128,-1,63
830.5 55 m 128,-1,88
 836 54 836 54 842 55 c 0,89,90
 853 57 853 57 872.5 76 c 128,-1,91
 892 95 892 95 892 106 c 256,92,93
 892 117 892 117 881.5 124.5 c 128,-1,94
 871 132 871 132 851 139 c 0,95,96
 829 148 829 148 815.5 152 c 128,-1,97
 802 156 802 156 789 156 c 0,98,99
 780 156 780 156 776 154.5 c 128,-1,100
 772 153 772 153 767 148 c 128,-1,101
 762 143 762 143 757 138 c 0,102,103
 742 125 742 125 736 118 c 128,-1,104
 730 111 730 111 730 103 c 0,105,106
 730 99 730 99 733 93 c 0,107,108
 736 89 736 89 750 82 c 128,-1,109
 764 75 764 75 783 69 c 2,110,-1
 815 59 l 2,111,87
 825 56 825 56 830.5 55 c 128,-1,88
1030.5 55 m 128,-1,113
 1036 54 1036 54 1042 55 c 0,114,115
 1053 57 1053 57 1072.5 76 c 128,-1,116
 1092 95 1092 95 1092 106 c 256,117,118
 1092 117 1092 117 1081.5 124.5 c 128,-1,119
 1071 132 1071 132 1051 139 c 0,120,121
 1029 148 1029 148 1015.5 152 c 128,-1,122
 1002 156 1002 156 989 156 c 0,123,124
 980 156 980 156 976 154.5 c 128,-1,125
 972 153 972 153 967 148 c 128,-1,126
 962 143 962 143 957 138 c 0,127,128
 942 125 942 125 936 118 c 128,-1,129
 930 111 930 111 930 103 c 0,130,131
 930 99 930 99 933 93 c 0,132,133
 936 89 936 89 950 82 c 128,-1,134
 964 75 964 75 983 69 c 2,135,-1
 1015 59 l 2,136,112
 1025 56 1025 56 1030.5 55 c 128,-1,113
EndSplineSet
EndChar

StartChar: less
Encoding: 60 60 95
Width: 722
GlyphClass: 1
Flags: W
LayerCount: 2
Fore
SplineSet
618.5 -334.5 m 128,-1,1
 630 -339 630 -339 635 -340 c 0,2,3
 643 -340 643 -340 638.5 -333.5 c 128,-1,4
 634 -327 634 -327 617 -312 c 0,5,6
 594 -293 594 -293 561 -275 c 0,7,8
 493 -238 493 -238 437.5 -200.5 c 128,-1,9
 382 -163 382 -163 352 -133 c 0,10,11
 199 12 199 12 146 258 c 0,12,13
 139 285 139 285 133 299.5 c 128,-1,14
 127 314 127 314 118 324 c 256,15,16
 109 334 109 334 98 336.5 c 128,-1,17
 87 339 87 339 63 337 c 0,18,19
 58 337 58 337 50 336 c 128,-1,20
 42 335 42 335 39 334 c 128,-1,21
 36 333 36 333 34 330 c 0,22,23
 30 326 30 326 30 322 c 0,24,25
 30 314 30 314 42 267 c 2,26,-1
 59 196 l 2,27,28
 81 105 81 105 130 15 c 0,29,30
 137 1 137 1 159 -27.5 c 128,-1,31
 181 -56 181 -56 199 -76 c 0,32,33
 226 -107 226 -107 285 -155 c 0,34,35
 397 -241 397 -241 591 -323 c 0,36,0
 607 -330 607 -330 618.5 -334.5 c 128,-1,1
410.5 55 m 128,-1,38
 416 54 416 54 422 55 c 0,39,40
 433 57 433 57 452.5 76 c 128,-1,41
 472 95 472 95 472 106 c 256,42,43
 472 117 472 117 461.5 124.5 c 128,-1,44
 451 132 451 132 431 139 c 0,45,46
 409 148 409 148 395.5 152 c 128,-1,47
 382 156 382 156 369 156 c 0,48,49
 360 156 360 156 356 154.5 c 128,-1,50
 352 153 352 153 347 148 c 128,-1,51
 342 143 342 143 337 138 c 0,52,53
 322 125 322 125 316 118 c 128,-1,54
 310 111 310 111 310 103 c 0,55,56
 310 99 310 99 313 93 c 0,57,58
 316 89 316 89 330 82 c 128,-1,59
 344 75 344 75 363 69 c 2,60,-1
 395 59 l 2,61,37
 405 56 405 56 410.5 55 c 128,-1,38
630.5 55 m 128,-1,63
 636 54 636 54 642 55 c 0,64,65
 653 57 653 57 672.5 76 c 128,-1,66
 692 95 692 95 692 106 c 256,67,68
 692 117 692 117 681.5 124.5 c 128,-1,69
 671 132 671 132 651 139 c 0,70,71
 629 148 629 148 615.5 152 c 128,-1,72
 602 156 602 156 589 156 c 0,73,74
 580 156 580 156 576 154.5 c 128,-1,75
 572 153 572 153 567 148 c 128,-1,76
 562 143 562 143 557 138 c 0,77,78
 542 125 542 125 536 118 c 128,-1,79
 530 111 530 111 530 103 c 0,80,81
 530 99 530 99 533 93 c 0,82,83
 536 89 536 89 550 82 c 128,-1,84
 564 75 564 75 583 69 c 2,85,-1
 615 59 l 2,86,62
 625 56 625 56 630.5 55 c 128,-1,63
EndSplineSet
EndChar

StartChar: asciitilde
Encoding: 126 126 96
Width: 232
GlyphClass: 1
Flags: W
LayerCount: 2
Fore
SplineSet
183.5 -42.5 m 128,-1,1
 193 -38 193 -38 193 -25 c 0,2,3
 193 -17 193 -17 188 -13 c 128,-1,4
 183 -9 183 -9 176 -8 c 0,5,6
 168 -7 168 -7 164 -2 c 128,-1,7
 160 3 160 3 153 16 c 0,8,9
 150 24 150 24 144 35 c 0,10,11
 137 48 137 48 133.5 56.5 c 128,-1,12
 130 65 130 65 128 68 c 0,13,14
 122 81 122 81 119.5 85.5 c 128,-1,15
 117 90 117 90 116 91 c 0,16,17
 105 111 105 111 86 116 c 0,18,19
 70 120 70 120 5 120 c 0,20,21
 -15 120 -15 120 -19 107 c 0,22,23
 -20 105 -20 105 -20 101 c 0,24,25
 -20 92 -20 92 -9 81 c 0,26,27
 3 69 3 69 14 38 c 0,28,29
 35 -21 35 -21 69 -36 c 0,30,31
 84 -43 84 -43 98.5 -45 c 128,-1,32
 113 -47 113 -47 138 -47 c 0,33,0
 174 -47 174 -47 183.5 -42.5 c 128,-1,1
EndSplineSet
EndChar

StartChar: partialdiff
Encoding: 8706 8706 98
Width: 0
GlyphClass: 1
Flags: W
LayerCount: 2
Fore
SplineSet
-184.5 -275 m 128,-1,1
 -179 -276 -179 -276 -173 -275 c 0,2,3
 -162 -273 -162 -273 -142.5 -254 c 128,-1,4
 -123 -235 -123 -235 -123 -224 c 256,5,6
 -123 -213 -123 -213 -133.5 -205.5 c 128,-1,7
 -144 -198 -144 -198 -164 -191 c 0,8,9
 -186 -182 -186 -182 -199.5 -178 c 128,-1,10
 -213 -174 -213 -174 -226 -174 c 0,11,12
 -235 -174 -235 -174 -239 -175.5 c 128,-1,13
 -243 -177 -243 -177 -248 -182 c 128,-1,14
 -253 -187 -253 -187 -258 -192 c 0,15,16
 -273 -205 -273 -205 -279 -212 c 128,-1,17
 -285 -219 -285 -219 -285 -227 c 0,18,19
 -285 -231 -285 -231 -282 -237 c 0,20,21
 -279 -241 -279 -241 -265 -248 c 128,-1,22
 -251 -255 -251 -255 -232 -261 c 2,23,-1
 -200 -271 l 2,24,0
 -190 -274 -190 -274 -184.5 -275 c 128,-1,1
EndSplineSet
EndChar

StartChar: at
Encoding: 64 64 100
Width: 1061
GlyphClass: 1
Flags: W
LayerCount: 2
Fore
SplineSet
1031 -110 m 0,1,2
 1031 -94 1031 -94 1000 -64 c 0,3,4
 914 27 914 27 753.5 92 c 128,-1,5
 593 157 593 157 426 180 c 0,6,7
 331 195 331 195 248 195 c 0,8,9
 150 195 150 195 90 170.5 c 128,-1,10
 30 146 30 146 30 90 c 0,11,12
 30 68 30 68 33 55.5 c 128,-1,13
 36 43 36 43 45 30 c 0,14,15
 62 5 62 5 80.5 -8 c 128,-1,16
 99 -21 99 -21 115.5 -26 c 128,-1,17
 132 -31 132 -31 178 -42 c 0,18,19
 235 -53 235 -53 267 -53 c 0,20,21
 292 -53 292 -53 292 -46 c 0,22,23
 292 -43 292 -43 280 -35 c 0,24,25
 243 -11 243 -11 225.5 6 c 128,-1,26
 208 23 208 23 208 44 c 0,27,28
 208 53 208 53 211 62 c 0,29,30
 224 98 224 98 271.5 111.5 c 128,-1,31
 319 125 319 125 378 125 c 0,32,33
 532 125 532 125 685 53 c 0,34,35
 734 29 734 29 753.5 16.5 c 128,-1,36
 773 4 773 4 789 -17 c 0,37,38
 816 -50 816 -50 818 -81 c 0,39,40
 819 -92 819 -92 822 -97 c 128,-1,41
 825 -102 825 -102 836.5 -106.5 c 128,-1,42
 848 -111 848 -111 874 -115 c 0,43,44
 911 -120 911 -120 953 -124.5 c 128,-1,45
 995 -129 995 -129 1012 -127 c 0,46,0
 1031 -123 1031 -123 1031 -110 c 0,1,2
EndSplineSet
EndChar

StartChar: bar
Encoding: 124 124 103
Width: 0
GlyphClass: 1
Flags: W
LayerCount: 2
Fore
SplineSet
-652 162 m 256,1,2
 -647 162 -647 162 -641 166 c 0,3,4
 -638 169 -638 169 -636.5 179.5 c 128,-1,5
 -635 190 -635 190 -635 219 c 0,6,7
 -636 318 -636 318 -638 349 c 128,-1,8
 -640 380 -640 380 -644 389 c 0,9,10
 -647 395 -647 395 -654 395 c 256,11,12
 -661 395 -661 395 -664 389 c 0,13,14
 -668 382 -668 382 -668.5 343.5 c 128,-1,15
 -669 305 -669 305 -669 219 c 0,16,17
 -669 190 -669 190 -667.5 179.5 c 128,-1,18
 -666 169 -666 169 -663 166 c 0,19,0
 -657 162 -657 162 -652 162 c 256,1,2
EndSplineSet
EndChar

